SplineFontDB: 3.0
FontName: JannonStM
FullName: Sorts Mill Jannon
FamilyName: Sorts Mill Jannon
Weight: Regular
Copyright: Created by trashman with FontForge 2.0 (http://fontforge.sf.net)
UComments: "small: cut 1000px high, no scaling.+AAoA-larger: cut 1200px high, scale by .95." 
Version: 001.000
ItalicAngle: 0
UnderlinePosition: -100
UnderlineWidth: 50
Ascent: 700
Descent: 300
LayerCount: 3
Layer: 0 0 "Back"  1
Layer: 1 0 "Fore"  0
Layer: 2 0 "backup"  0
NeedsXUIDChange: 1
XUID: [1021 658 797806517 9253483]
FSType: 0
OS2Version: 0
OS2_WeightWidthSlopeOnly: 0
OS2_UseTypoMetrics: 1
CreationTime: 1283672823
ModificationTime: 1287042630
OS2TypoAscent: 0
OS2TypoAOffset: 1
OS2TypoDescent: 0
OS2TypoDOffset: 1
OS2TypoLinegap: 90
OS2WinAscent: 0
OS2WinAOffset: 1
OS2WinDescent: 0
OS2WinDOffset: 1
HheadAscent: 0
HheadAOffset: 1
HheadDescent: 0
HheadDOffset: 1
OS2Vendor: 'PfEd'
Lookup: 3 0 0 "'aalt' Access All Alternates in Latin lookup 0"  {"'aalt' Access All Alternates in Latin lookup 0 subtable"  } ['aalt' ('DFLT' <'dflt' > 'latn' <'dflt' 'ROM ' 'MOL ' 'TRK ' 'AZE ' 'CRT ' > ) ]
Lookup: 3 0 0 "'salt' Stylistic Alternatives in Latin lookup 0"  {"'salt' Stylistic Alternatives in Latin lookup 0 subtable"  } ['salt' ('latn' <'dflt' 'ROM ' 'MOL ' 'TRK ' 'AZE ' 'CRT ' > 'DFLT' <'dflt' > ) ]
Lookup: 4 0 1 "'liga' Standard Ligatures in Latin lookup 1"  {"'liga' Standard Ligatures in Latin lookup 1 subtable"  } ['liga' ('latn' <'dflt' 'ROM ' 'MOL ' 'TRK ' 'AZE ' 'CRT ' > 'DFLT' <'dflt' > ) ]
Lookup: 4 0 0 "'dlig' Discretionary Ligatures in Latin lookup 2"  {"'dlig' Discretionary Ligatures in Latin lookup 2 subtable"  } ['dlig' ('latn' <'dflt' 'ROM ' 'MOL ' 'TRK ' 'AZE ' 'CRT ' > 'DFLT' <'dflt' > ) ]
Lookup: 260 0 0 "spacing anchors"  {"spacing anchors-1"  } []

StartChar: a
Encoding: 97 97 0
Width: 422
VWidth: 0
Flags: HW
HStem: -9 58<74 167.836> 0 50<277 371.554> 376 40<152.914 262.5>
VStem: 25 81<31 119.673> 246 65<88.9403 198.038> 250 70<229.635 364.502>
AnchorPoint: "l;bl" 0 10 basechar 0
AnchorPoint: "l;x" 20 380 basechar 0
AnchorPoint: "l;o" 0 210 basechar 0
AnchorPoint: "r;bl" 422 10 basechar 0
AnchorPoint: "r;x" 382 380 basechar 0
AnchorPoint: "r;o" 392 210 basechar 0
LayerCount: 3
Fore
SplineSet
47 302 m 0x74
 47 361 174 416 241 416 c 0
 284 416 320 391 320 329 c 0x74
 320 276 311 120 311 103 c 0
 311 65 327 50 340 50 c 0
 376 50 384 92 400 92 c 0
 404 92 411 89 411 82 c 0
 411 60 374 0 308 0 c 0x78
 246 0 246 78 243 78 c 0
 240 78 184 -9 87 -9 c 0xb8
 61 -9 25 12 25 50 c 0
 25 153 139 195 230 226 c 0
 243 230 247 231 248 250 c 0
 249 265 250 282 250 299 c 0
 250 339 238 376 198 376 c 0
 123 376 122 272 74 272 c 0
 58 272 47 288 47 302 c 0x74
236 200 m 0
 210 200 106 156 106 90 c 0
 106 60 121 49 142 49 c 0
 204 49 245 95 245 155 c 0
 245 161 246 170 246 179 c 0xb8
 246 190 244 200 236 200 c 0
EndSplineSet
EndChar

StartChar: b
Encoding: 98 98 1
Width: 471
VWidth: 0
Flags: HW
HStem: -11 34<170.339 304.979> 358 51<174.244 288.764> 656 20G<117.5 123.5>
VStem: 64 63<56.2284 350.578 368.637 601.875> 374 67<116.638 270.709>
AnchorPoint: "l;bl" 0 10 basechar 0
AnchorPoint: "l;x" 0 380 basechar 0
AnchorPoint: "l;o" 0 210 basechar 0
AnchorPoint: "r;bl" 431 10 basechar 0
AnchorPoint: "r;x" 451 380 basechar 0
AnchorPoint: "r;o" 471 210 basechar 0
AnchorPoint: "l;k;hi" 0 660 basechar 0
LayerCount: 3
Fore
SplineSet
441 208 m 0
 441 85 338 -11 222 -11 c 0
 163 -11 140 8 113 8 c 0
 85 8 94 -46 77 -46 c 0
 67 -46 61 -41 61 -24 c 0
 61 -6 64 89 64 129 c 0
 64 233 60 433 60 558 c 0
 60 594 50 600 29 608 c 2
 17 613 l 2
 10 616 -1 621 -1 627 c 0
 -1 630 3 634 12 637 c 0
 37 644 78 660 103 672 c 0
 107 674 116 676 119 676 c 0
 128 676 127 667 127 654 c 0
 127 559 129 469 129 373 c 0
 129 370 133 361 145 369 c 0
 199 407 228 409 263 409 c 0
 371 409 441 314 441 208 c 0
237 23 m 0
 325 23 374 88 374 188 c 0
 374 278 306 358 208 358 c 0
 135 358 127 344 127 299 c 0
 127 242 129 168 129 106 c 0
 129 45 192 23 237 23 c 0
EndSplineSet
EndChar

StartChar: c
Encoding: 99 99 2
Width: 411
VWidth: 0
Flags: HW
HStem: -17 61<174.333 303.592> 392 41<166.342 282.48>
VStem: 30 71<123.475 292.911>
AnchorPoint: "l;bl" 20 10 basechar 0
AnchorPoint: "l;x" 20 380 basechar 0
AnchorPoint: "l;o" 0 210 basechar 0
AnchorPoint: "r;bl" 401 10 basechar 0
AnchorPoint: "r;x" 411 380 basechar 0
AnchorPoint: "r;o" 411 210 basechar 0
LayerCount: 3
Fore
SplineSet
232 392 m 0
 144 392 101 307 101 217 c 0
 101 122 159 44 248 44 c 0
 267 44 287 48 307 55 c 0
 337 67 355 86 363 99 c 0
 365 101 368 102 371 102 c 0
 378 102 381 98 381 89 c 0
 381 56 304 -17 226 -17 c 0
 123 -17 30 58 30 192 c 0
 30 315 119 433 254 433 c 0
 337 433 367 401 367 365 c 0
 367 348 352 341 342 341 c 0
 290 341 289 392 232 392 c 0
EndSplineSet
EndChar

StartChar: d
Encoding: 100 100 3
Width: 477
VWidth: 0
Flags: HW
HStem: -18 21G<338.5 346> -1 48<181.124 303.792> 18 24<412.426 467.725> 380 27<171.352 286.047>
VStem: 30 63<134.381 284.136> 322 67<67.4082 355.532 397.428 649.61> 330 60<53.7426 297.595>
AnchorPoint: "l;bl" 20 10 basechar 0
AnchorPoint: "l;x" 20 380 basechar 0
AnchorPoint: "l;o" 0 210 basechar 0
AnchorPoint: "r;bl" 477 10 basechar 0
AnchorPoint: "r;x" 467 380 basechar 0
AnchorPoint: "r;hi" 467 660 basechar 0
AnchorPoint: "r;o" 467 210 basechar 0
LayerCount: 3
Fore
SplineSet
319 630 m 0x5c
 317 662 250 648 250 672 c 0
 250 681 257 682 267 682 c 0
 346 684 359 690 382 694 c 1
 393 694 394 688 394 680 c 2
 394 670 l 1
 391 610 389 418 389 260 c 0x5c
 389 195 389 136 390 94 c 0
 391 47 392 35 412 35 c 0
 421 35 435 38 453 42 c 0
 462 44 468 42 468 33 c 0
 468 25 464 22 451 18 c 0
 383 0 348 -18 344 -18 c 0xba
 333 -18 331 -12 329 0 c 2
 324 30 l 1
 324 30 264 -1 218 -1 c 0
 102 -1 30 77 30 191 c 0
 30 286 103 407 235 407 c 0
 258 407 296 400 311 394 c 0
 319 390 322 399 322 416 c 2
 322 461 l 2
 322 526 319 617 319 630 c 0x5c
265 47 m 0
 328 47 330 67 330 115 c 2
 330 124 l 2x5a
 330 178 329 249 324 300 c 0
 319 352 288 380 230 380 c 0
 147 380 93 320 93 215 c 0
 93 110 181 47 265 47 c 0
EndSplineSet
EndChar

StartChar: e
Encoding: 101 101 4
Width: 413
VWidth: 0
Flags: HW
HStem: -22 63<161.943 297.299> 261 29<107 285.953> 381 29<175.087 274.215>
VStem: 30 58<119.935 260.367> 306 77<277 329.895>
AnchorPoint: "l;bl" 20 10 basechar 0
AnchorPoint: "l;x" 20 380 basechar 0
AnchorPoint: "l;o" 0 210 basechar 0
AnchorPoint: "r;bl" 403 10 basechar 0
AnchorPoint: "r;x" 403 380 basechar 0
AnchorPoint: "r;o" 413 210 basechar 0
LayerCount: 3
Fore
SplineSet
212 -22 m 0
 97 -22 30 74 30 178 c 0
 30 298 105 410 225 410 c 0
 275 410 305 392 334 364 c 0
 360 339 383 297 383 284 c 0
 383 270 374 262 356 262 c 2
 104 261 l 2
 93 261 88 240 88 222 c 0
 88 126 131 41 247 41 c 0
 313 41 337 75 356 83 c 1
 365 88 368 80 368 73 c 0
 368 46 300 -22 212 -22 c 0
221 381 m 0
 167 381 107 317 107 291 c 1
 116 291 135 290 158 290 c 0
 219 290 306 291 306 329 c 0
 306 353 263 381 221 381 c 0
EndSplineSet
EndChar

StartChar: f
Encoding: 102 102 5
Width: 302
VWidth: 0
Flags: HW
HStem: -2 29<16.0118 95.689 180.752 259.989> 333 32<35.0964 85.2515> 351 42<173.872 270.916> 358 39<190.361 285.996> 645 43<215.899 327.653>
VStem: 105 67<32.6543 338.764 393.005 530.822>
AnchorPoint: "l;bl" 0 10 basechar 0
AnchorPoint: "l;x" 20 380 basechar 0
AnchorPoint: "l;o" 10 210 basechar 0
AnchorPoint: "r;bl" 277 10 basechar 0
AnchorPoint: "r;x" 302 380 basechar 0
AnchorPoint: "r;o" 297 210 basechar 0
LayerCount: 3
Fore
SplineSet
291 688 m 4xcc
 313 688 354 688 354 662 c 4
 354 658 349 646 346 641 c 4
 337 629 330 621 314 621 c 4
 295 621 270 645 250 645 c 4
 233 645 208 627 194 581 c 4
 182 542 173 487 173 410 c 4
 173 400 176 393 185 393 c 4xac
 200 393 253 396 272 397 c 4
 281 397 286 396 286 377 c 4
 286 363 282 358 272 358 c 4x9c
 249 357 218 355 189 351 c 4xac
 171 349 174 346 174 335 c 4
 173 252 172 170 172 87 c 4
 172 27 189 31 228 30 c 4
 245 30 260 25 260 12 c 4
 260 0 248 -3 237 -3 c 4
 208 -3 176 0 135 0 c 4
 97 0 56 -2 32 -2 c 4
 20 -2 16 3 16 13 c 4
 16 25 29 27 42 27 c 6
 52 27 l 6
 94 27 105 35 105 102 c 6
 104 322 l 6
 104 330 104 339 86 339 c 4
 70 339 56 333 46 333 c 4
 39 333 35 336 35 348 c 4
 35 357 50 363 56 365 c 4
 82 374 110 376 110 387 c 4
 110 479 125 558 161 610 c 4
 188 650 223 688 291 688 c 4xcc
EndSplineSet
EndChar

StartChar: g
Encoding: 103 103 6
Width: 425
VWidth: 0
Flags: HW
HStem: -254 31<91.772 242.588> -22 56<98.321 327.68> 128 23<161.51 233.409> 341 59<341.002 423.472> 394 26<153.601 238.726>
VStem: -15 56<-188.536 -90.589> 26 60<49.1886 107.83> 48 67<190.825 352.462> 281 66<200.168 339.94> 351 51<-144.091 -46.2797>
AnchorPoint: "l;bl" 0 10 basechar 0
AnchorPoint: "l;x" 25 380 basechar 0
AnchorPoint: "l;o" 5 210 basechar 0
AnchorPoint: "l;lo" 0 -200 basechar 0
AnchorPoint: "r;bl" 415 10 basechar 0
AnchorPoint: "r;x" 425 380 basechar 0
AnchorPoint: "r;o" 415 210 basechar 0
AnchorPoint: "r;lo" 385 -200 basechar 0
LayerCount: 3
Fore
SplineSet
281 274 m 0xe9c0
 281 360 240 394 198 394 c 0
 145 394 115 354 115 288 c 0
 115 195 151 151 198 151 c 0
 252 151 281 210 281 274 c 0xe9c0
165 -22 m 2
 114 -22 41 -70 41 -137 c 0xe4c0
 41 -210 129 -223 170 -223 c 0
 263 -223 351 -172 351 -88 c 0
 351 -26 273 -22 199 -22 c 2
 165 -22 l 2
152 -254 m 0
 60 -254 -15 -223 -15 -152 c 0xf4c0
 -15 -102 26 -61 69 -38 c 0
 91 -26 103 -22 103 -16 c 0
 103 -12 98 -9 88 -2 c 0
 62 16 26 53 26 90 c 0xf2c0
 26 100 32 105 54 112 c 0
 86 123 111 128 111 138 c 0
 111 143 105 150 94 161 c 0
 65 190 48 218 48 277 c 0
 48 352 106 420 198 420 c 0xe9c0
 248 420 292 398 301 398 c 2
 395 400 l 2
 417 400 425 387 425 363 c 0
 425 352 418 341 410 341 c 2
 352 341 l 2
 344 341 341 340 341 334 c 0
 341 326 347 313 347 285 c 0
 347 205 296 128 205 128 c 2
 142 128 l 2
 128 128 86 94 86 76 c 0xf2c0
 86 54 128 34 159 34 c 0
 182 34 261 40 268 40 c 0
 339 40 402 22 402 -77 c 0
 402 -179 264 -254 152 -254 c 0
EndSplineSet
EndChar

StartChar: h
Encoding: 104 104 7
Width: 514
VWidth: 0
Flags: HW
HStem: -3 28<13.3054 76.5469 279.046 340.52 419.367 497.862> -3 15<206.75 218.16> 371 45<219.096 326.882> 604 22<26.2938 67.1849> 645 20G<144 151>
VStem: 82 67<27.9153 337.001 353.017 573.785> 88 70<353.017 603.789> 348 69<27.9199 257.006> 355 68<68.0578 343.481>
AnchorPoint: "l;bl" 0 10 basechar 0
AnchorPoint: "l;x" 10 380 basechar 0
AnchorPoint: "l;k;hi" 10 660 basechar 0
AnchorPoint: "l;o" 10 210 basechar 0
AnchorPoint: "r;bl" 514 10 basechar 0
AnchorPoint: "r;x" 504 380 basechar 0
AnchorPoint: "r;o" 504 210 basechar 0
LayerCount: 3
Fore
SplineSet
423 260 m 0x7a80
 423 196 417 141 417 59 c 0
 417 39 421 25 438 25 c 2
 471 25 l 2xb9
 486 25 498 23 498 9 c 0
 498 -4 487 -5 479 -5 c 0
 468 -5 425 -3 382 -3 c 0
 340 -3 313 -5 298 -5 c 0
 286 -5 279 0 279 10 c 0
 279 19 286 23 301 24 c 0
 332 26 345 29 348 70 c 0x79
 353 140 355 224 355 296 c 0
 355 341 308 371 260 371 c 0
 215 371 149 331 149 309 c 2
 146 49 l 2
 146 21 216 25 220 12 c 0
 224 1 212 -3 202 -3 c 0
 192 -3 146 0 118 0 c 0
 81 0 25 -2 21 -2 c 0
 14 -2 13 6 13 9 c 0
 13 14 18 19 30 20 c 0
 49 21 82 26 82 58 c 0x7c80
 82 215 88 449 88 580 c 0
 88 596 75 604 63 604 c 2
 40 604 l 2
 31 604 26 607 26 612 c 0
 26 618 29 624 35 626 c 0
 83 640 140 665 148 665 c 0
 154 665 158 663 158 655 c 0
 158 639 152 459 152 396 c 0
 152 376 152 353 154 353 c 0
 164 353 221 416 301 416 c 0
 325 416 343 412 359 405 c 0
 408 383 423 358 423 260 c 0x7a80
EndSplineSet
EndChar

StartChar: i
Encoding: 105 105 8
Width: 272
VWidth: 0
Flags: HW
HStem: -1 27<26.0094 92.634 176.516 245.751> 342 28<47.0058 95.013> 581 80<112.109 185.211>
VStem: 105 63<30.8226 302.875> 107 82<586.355 656.15>
AnchorPoint: "l;bl" 0 10 basechar 0
AnchorPoint: "l;x" 0 380 basechar 0
AnchorPoint: "l;o" 0 210 basechar 0
AnchorPoint: "r;bl" 272 10 basechar 0
AnchorPoint: "r;x" 257 380 basechar 0
AnchorPoint: "r;o" 257 210 basechar 0
LayerCount: 3
Fore
SplineSet
107 622 m 0xe8
 107 645 126 661 149 661 c 0
 172 661 189 644 189 622 c 0
 189 593 172 581 149 581 c 0
 126 581 107 599 107 622 c 0xe8
178 417 m 0
 178 408 168 235 168 77 c 0
 168 39 178 28 211 28 c 2
 227 28 l 2
 239 28 246 25 246 17 c 0
 246 7 244 0 228 0 c 2
 46 -1 l 2
 35 -1 26 0 26 13 c 0
 26 25 39 26 43 26 c 2
 68 26 l 2
 86 26 100 38 102 76 c 0
 105 141 105 222 105 288 c 0
 105 318 103 335 66 342 c 0
 55 344 47 349 47 356 c 0
 47 361 52 368 66 370 c 0
 105 376 126 398 146 421 c 0
 152 429 161 436 168 436 c 0xf0
 174 436 178 431 178 417 c 0
EndSplineSet
EndChar

StartChar: j
Encoding: 106 106 9
Width: 217
VWidth: 0
Flags: HW
HStem: 567 82<42.0117 111.672>
VStem: 36 82<572.48 643.759> 84 69<-97.6011 419>
AnchorPoint: "l;bl" 0 10 basechar 0
AnchorPoint: "l;x" 0 380 basechar 0
AnchorPoint: "l;o" 0 210 basechar 0
AnchorPoint: "l;lo" 0 -200 basechar 0
AnchorPoint: "r;bl" 217 10 basechar 0
AnchorPoint: "r;x" 217 380 basechar 0
AnchorPoint: "r;o" 217 210 basechar 0
AnchorPoint: "r;lo" 117 -200 basechar 0
LayerCount: 3
Fore
SplineSet
75 649 m 0xc0
 99 649 115 631 115 613 c 0
 115 590 100 567 72 567 c 0
 48 567 33 586 33 605 c 0
 33 627 49 649 75 649 c 0xc0
150 419 m 0xa0
 150 295 148 59 146 -1 c 0
 141 -123 83 -200 42 -226 c 0
 35 -230 27 -234 21 -234 c 0
 11 -234 7 -230 7 -224 c 0
 7 -220 9 -213 14 -209 c 0
 30 -194 49 -177 59 -150 c 0
 69 -123 78 -95 79 -23 c 0
 80 53 81 276 81 289 c 0
 81 328 80 345 53 353 c 0
 41 357 25 361 25 372 c 0
 25 375 26 380 38 385 c 0
 50 390 69 397 81 404 c 0
 99 414 112 425 121 432 c 0
 127 436 132 439 137 439 c 0
 144 439 150 433 150 419 c 0xa0
EndSplineSet
EndChar

StartChar: k
Encoding: 107 107 10
Width: 506
VWidth: 0
Flags: HW
HStem: 0 30<21.4095 84.0474 162.43 212.907 258.007 306.995 420.765 500.993> 188 24<159.732 184.923> 369 24<291.007 336.905> 374 31<415.125 490.891> 619 25<36.312 77.3478> 653 20G<156 163>
VStem: 89 69<30.5938 187.99 212.006 465.599> 93 73<300.664 618.569>
DStem2: 252 210 178 184 0.700468 -0.713684<-18.9675 158.97> 180 220 251 241 0.803001 0.595977<54.0989 206.953>
AnchorPoint: "l;bl" 0 10 basechar 0
AnchorPoint: "l;x" 20 380 basechar 0
AnchorPoint: "l;k;hi" 20 660 basechar 0
AnchorPoint: "l;o" 20 210 basechar 0
AnchorPoint: "r;bl" 506 10 basechar 0
AnchorPoint: "r;x" 506 380 basechar 0
AnchorPoint: "r;o" 466 210 basechar 0
LayerCount: 3
Fore
SplineSet
53 26 m 0xde
 83 28 89 47 89 77 c 0xde
 89 188 93 539 93 574 c 0
 93 613 80 619 65 619 c 2
 53 619 l 2
 40 619 36 624 36 629 c 0
 36 635 41 641 53 644 c 2
 133 667 l 2
 144 670 153 673 159 673 c 0
 167 673 172 668 172 653 c 0
 172 641 168 599 166 538 c 0xdd
 163 447 158 246 158 232 c 0
 158 220 160 212 165 212 c 0
 168 212 173 215 180 220 c 0
 233 258 270 289 324 336 c 0
 332 343 337 350 337 356 c 0
 337 363 329 368 308 369 c 0
 299 369 291 373 291 381 c 0
 291 388 300 393 306 393 c 0xee
 404 398 462 405 475 405 c 0
 485 405 491 401 491 392 c 0
 491 377 484 376 473 374 c 0
 421 366 402 354 379 336 c 2
 251 241 l 2
 245 236 242 232 242 227 c 0
 242 222 246 216 252 210 c 2
 358 102 l 2
 391 68 427 30 462 30 c 2
 477 30 l 2
 491 30 501 24 501 15 c 0
 501 4 497 0 479 0 c 0
 468 0 399 2 377 2 c 0
 334 2 312 0 271 0 c 0
 261 0 258 6 258 15 c 0
 258 25 268 28 282 28 c 2
 286 28 l 2
 300 28 307 33 307 41 c 0
 307 46 305 52 299 58 c 0
 254 110 200 164 178 184 c 0
 175 187 173 188 171 188 c 0
 163 188 158 174 158 168 c 2
 159 80 l 2
 159 42 162 34 185 29 c 0
 199 26 213 23 213 14 c 0
 213 1 205 0 193 0 c 0
 170 0 134 2 116 2 c 0
 78 2 61 0 37 0 c 0
 25 0 21 4 21 12 c 0
 21 25 37 25 53 26 c 0xde
EndSplineSet
EndChar

StartChar: l
Encoding: 108 108 11
Width: 256
VWidth: 0
Flags: HW
HStem: -5 34<7.0491 87.256> 0 36<168.98 242.744> 659 20G<158 164.5>
VStem: 96 78<36.8129 661>
AnchorPoint: "l;bl" 0 10 basechar 0
AnchorPoint: "l;x" 20 380 basechar 0
AnchorPoint: "l;k;hi" 20 660 basechar 0
AnchorPoint: "l;o" 20 210 basechar 0
AnchorPoint: "r;bl" 256 10 basechar 0
AnchorPoint: "r;x" 251 380 basechar 0
AnchorPoint: "r;hi" 251 660 basechar 0
AnchorPoint: "r;o" 251 210 basechar 0
LayerCount: 3
Fore
SplineSet
96 583 m 0xb0
 96 610 88 613 60 623 c 0
 48 627 41 632 41 638 c 0
 41 643 46 649 57 652 c 0
 72 656 93 661 110 666 c 0
 135 673 156 679 160 679 c 0
 169 679 174 671 174 661 c 0
 171 467 168 447 168 64 c 0
 168 39 179 39 202 36 c 0
 223 33 243 33 243 15 c 0
 243 3 233 0 222 0 c 0x70
 199 0 196 2 138 2 c 0
 113 2 41 -5 31 -5 c 0
 14 -5 7 0 7 11 c 0
 7 27 24 28 36 29 c 0
 90 32 94 49 94 74 c 0
 96 185 96 190 96 583 c 0xb0
EndSplineSet
EndChar

StartChar: m
Encoding: 109 109 12
Width: 746
VWidth: 0
Flags: HW
HStem: -1 24<16.0464 81.364 277.078 329.448 419.929 478.965 518.128 578.781 668.569 727.951> 378 47<226.286 323.866 462.686 567.201>
VStem: 95 66<29.5634 339.147> 344 66<30.5934 349.219> 594 69<30.1191 349.172>
AnchorPoint: "l;bl" 0 10 basechar 0
AnchorPoint: "l;x" 5 380 basechar 0
AnchorPoint: "l;o" 5 210 basechar 0
AnchorPoint: "r;bl" 746 10 basechar 0
AnchorPoint: "r;x" 731 380 basechar 0
AnchorPoint: "r;o" 746 210 basechar 0
LayerCount: 3
Fore
SplineSet
164 1 m 0
 120 1 75 -2 44 -2 c 0
 20 -2 16 4 16 12 c 0
 16 21 32 22 48 23 c 0
 62 24 90 30 91 55 c 0
 93 89 95 127 95 172 c 2
 95 256 l 2
 95 284 95 311 94 333 c 0
 92 380 30 355 30 378 c 0
 30 387 42 390 68 393 c 0
 99 397 123 414 139 435 c 0
 145 443 153 454 163 454 c 0
 168 454 171 450 171 439 c 0
 171 431 168 396 168 391 c 0
 168 377 170 372 174 372 c 0
 179 372 186 377 193 383 c 0
 217 402 261 425 313 425 c 0
 351 425 386 409 406 375 c 0
 411 367 408 362 418 371 c 0
 444 394 480 423 547 423 c 0
 623 423 661 379 663 292 c 0
 663 282 663 272 663 262 c 0
 663 196 659 127 659 60 c 0
 659 31 681 27 696 25 c 0
 715 23 728 21 728 10 c 0
 728 -1 711 -3 702 -3 c 0
 695 -3 657 -1 621 -1 c 2
 538 -1 l 2
 525 -1 518 3 518 13 c 0
 518 21 528 22 536 23 c 0
 582 26 588 34 590 78 c 0
 593 124 594 199 594 218 c 2
 594 229 l 2
 594 305 592 379 508 379 c 0
 463 379 413 353 413 306 c 2
 413 275 l 2
 413 187 410 96 410 63 c 0
 410 30 426 31 452 26 c 0
 467 23 479 23 479 12 c 0
 479 -1 468 -1 460 -1 c 0
 445 -1 403 2 368 2 c 0
 336 2 331 1 299 1 c 0
 289 1 277 2 277 12 c 0
 277 19 284 23 297 24 c 0
 335 28 344 45 344 81 c 0
 344 102 343 143 343 170 c 0
 343 210 342 256 340 294 c 0
 337 341 331 378 265 378 c 0
 216 378 165 345 164 288 c 0
 163 214 161 142 161 66 c 0
 161 3 235 39 235 11 c 0
 235 5 226 0 208 0 c 0
 194 0 180 1 164 1 c 0
EndSplineSet
EndChar

StartChar: n
Encoding: 110 110 13
Width: 496
VWidth: 0
Flags: HW
HStem: -2 28<26.2197 82.0057 153.984 233.799 282.041 350.986 422.057 480.737> 368 50<212.764 338.158>
VStem: 88 67<28.0551 326.761> 356 64<28.7501 350.051>
AnchorPoint: "l;bl" 0 10 basechar 0
AnchorPoint: "l;x" 20 380 basechar 0
AnchorPoint: "l;o" 0 210 basechar 0
AnchorPoint: "r;bl" 496 10 basechar 0
AnchorPoint: "r;x" 486 380 basechar 0
AnchorPoint: "r;o" 486 210 basechar 0
LayerCount: 3
Fore
SplineSet
314 27 m 0
 347 27 356 31 356 75 c 2
 356 202 l 2
 356 233 356 264 354 307 c 0
 352 355 313 368 271 368 c 0
 237 368 204 362 180 348 c 0
 166 340 155 328 155 313 c 0
 154 235 153 158 151 82 c 0
 151 72 150 64 150 54 c 0
 150 30 173 28 198 25 c 0
 224 22 234 19 234 10 c 0
 234 2 230 -2 215 -2 c 0
 179 -2 148 1 112 1 c 0
 76 1 54 -2 46 -2 c 0
 35 -2 26 1 26 10 c 0
 26 21 38 22 62 26 c 0
 73 28 84 33 85 53 c 0
 87 103 87 164 88 216 c 2
 89 304 l 2
 89 321 74 325 62 328 c 0
 47 331 38 337 38 343 c 0
 38 348 45 354 60 357 c 0
 94 364 112 388 127 412 c 0
 131 418 137 429 144 429 c 0
 152 429 155 425 155 415 c 0
 155 411 154 398 154 373 c 0
 154 364 156 361 159 361 c 0
 164 361 175 369 181 374 c 0
 210 397 240 418 298 418 c 0
 350 418 426 403 426 323 c 0
 426 237 420 109 420 52 c 0
 420 40 424 31 439 29 c 0
 458 26 481 29 481 15 c 0
 481 0 467 -1 460 -1 c 0
 416 -1 399 0 384 0 c 0
 351 0 324 -2 304 -2 c 0
 288 -2 282 5 282 11 c 0
 282 26 296 27 314 27 c 0
EndSplineSet
EndChar

StartChar: o
Encoding: 111 111 14
Width: 495
VWidth: 0
Flags: HW
HStem: -21 30<190.575 306.484> 400 28<186.666 291.92>
VStem: 30 75<101.641 307.85> 383 82<104.009 303.043>
AnchorPoint: "l;bl" 20 10 basechar 0
AnchorPoint: "l;x" 20 380 basechar 0
AnchorPoint: "l;o" 0 210 basechar 0
AnchorPoint: "r;bl" 475 10 basechar 0
AnchorPoint: "r;x" 475 380 basechar 0
AnchorPoint: "r;o" 495 210 basechar 0
LayerCount: 3
Fore
SplineSet
240 -21 m 0
 137 -21 30 46 30 201 c 0
 30 334 116 428 252 428 c 0
 364 428 465 359 465 212 c 0
 465 46 349 -21 240 -21 c 0
246 9 m 0
 365 9 383 132 383 203 c 0
 383 308 320 400 242 400 c 0
 162 400 105 330 105 224 c 0
 105 102 156 9 246 9 c 0
EndSplineSet
EndChar

StartChar: p
Encoding: 112 112 15
Width: 506
VWidth: 0
Flags: HMW
HStem: -265 30<158.176 246.991> -2 32<185.572 337.51> 368 27<4.0291 66.9392> 370 54<197.747 321.057>
VStem: 82 69<-228.367 11.6457 54.5028 357.373> 124 31<428.722 472.361> 412 64<112.859 269.526>
AnchorPoint: "l;bl" 0 10 basechar 0
AnchorPoint: "l;k;x" -5 380 basechar 0
AnchorPoint: "l;o" 0 210 basechar 0
AnchorPoint: "l;lo" 0 -200 basechar 0
AnchorPoint: "r;bl" 466 10 basechar 0
AnchorPoint: "r;x" 486 380 basechar 0
AnchorPoint: "r;o" 506 210 basechar 0
LayerCount: 3
Fore
SplineSet
265 -2 m 0xe6
 217 -2 182 7 167 14 c 0
 156 19 151 15 151 10 c 2
 153 -206 l 2
 153 -224 169 -233 217 -235 c 0
 235 -236 247 -239 247 -250 c 0
 247 -256 241 -265 223 -265 c 0
 190 -264 160 -261 128 -261 c 0
 97 -261 73 -266 40 -266 c 0
 23 -266 14 -263 14 -252 c 0
 14 -230 82 -260 82 -182 c 0xea
 82 -75 79 186 78 320 c 0
 78 362 54 367 29 368 c 0
 14 369 4 374 4 381 c 0
 4 387 10 394 24 395 c 0
 78 400 113 421 124 453 c 0
 127 462 134 473 143 473 c 0
 150 473 155 467 155 454 c 0
 155 441 150 418 150 403 c 0
 150 384 157 382 163 382 c 0
 166 382 170 384 175 388 c 0
 212 415 247 424 286 424 c 0
 381 424 476 362 476 217 c 0
 476 97 404 -2 265 -2 c 0xe6
240 370 m 0
 178 370 153 356 150 312 c 0
 149 292 148 261 148 230 c 0
 148 169 150 79 166 61 c 0
 185 40 219 30 272 30 c 0
 371 30 412 111 412 174 c 0
 412 273 349 370 240 370 c 0
EndSplineSet
EndChar

StartChar: q
Encoding: 113 113 16
Width: 490
VWidth: 0
Flags: HW
HStem: -255 32<275.055 344.844 422.008 511.954> 19 26<290.413 343.371> 374 36<179.689 298.738> 400 20G<405 422.5>
VStem: 30 72<128.398 289.94> 346 76<-220.537 19.1391 46.2587 334.307>
AnchorPoint: "l;bl" 30 10 basechar 0
AnchorPoint: "l;x" 30 380 basechar 0
AnchorPoint: "l;o" 0 210 basechar 0
AnchorPoint: "r;bl" 490 10 basechar 0
AnchorPoint: "r;x" 490 380 basechar 0
AnchorPoint: "r;o" 490 210 basechar 0
AnchorPoint: "r;k;lo" 505 -200 basechar 0
LayerCount: 3
Fore
SplineSet
251 410 m 0xec
 323 410 373 370 382 370 c 0
 398 370 392 420 418 420 c 0xdc
 427 420 429 410 429 403 c 0
 429 394 424 336 424 314 c 2
 421 49 l 2
 421 8 422 -57 422 -73 c 0
 422 -113 419 -151 419 -190 c 0
 419 -212 427 -220 455 -222 c 2
 477 -223 l 2
 499 -224 512 -228 512 -240 c 0
 512 -254 505 -259 495 -259 c 0
 471 -259 388 -253 356 -253 c 0
 328 -253 301 -255 293 -255 c 0
 277 -255 275 -247 275 -238 c 0
 276 -224 288 -223 302 -223 c 2
 317 -223 l 2
 335 -223 347 -218 347 -191 c 2
 346 9 l 2
 346 23 332 22 324 19 c 0
 292 7 258 -8 225 -8 c 0
 114 -8 30 80 30 187 c 0
 30 356 165 410 251 410 c 0xec
102 216 m 0
 102 114 171 45 290 45 c 0
 343 45 346 46 346 86 c 2
 346 192 l 1
 345 234 348 285 336 315 c 0
 322 349 281 374 240 374 c 0xec
 175 374 102 313 102 216 c 0
EndSplineSet
EndChar

StartChar: r
Encoding: 114 114 17
Width: 363
VWidth: 0
Flags: HW
HStem: -1 28<26.3576 90.5858 171.317 257.491> 353 65<227.34 319.582>
VStem: 97 66<36.0186 323.667>
AnchorPoint: "l;bl" 0 10 basechar 0
AnchorPoint: "l;x" 0 380 basechar 0
AnchorPoint: "l;o" 0 210 basechar 0
AnchorPoint: "r;bl" 343 10 basechar 0
AnchorPoint: "r;x" 363 380 basechar 0
AnchorPoint: "r;o" 343 210 basechar 0
LayerCount: 3
Fore
SplineSet
304 324 m 0
 296 324 287 326 280 329 c 0
 262 337 248 353 236 353 c 0
 216 353 202 345 189 333 c 0
 171 316 165 311 164 287 c 0
 163 264 163 239 163 213 c 0
 163 162 164 106 164 60 c 0
 164 37 177 36 208 33 c 2
 238 30 l 2
 251 29 258 25 258 17 c 0
 258 7 251 0 232 0 c 0
 228 0 181 3 139 3 c 0
 108 3 62 -1 42 -1 c 0
 29 -1 26 4 26 10 c 0
 26 23 40 26 54 27 c 2
 65 28 l 2
 89 30 94 40 94 62 c 2
 97 267 l 1
 97 288 l 2
 97 303 96 317 91 324 c 0
 76 341 31 331 31 347 c 0
 31 357 39 359 52 364 c 0
 99 380 124 411 142 435 c 0
 145 440 150 442 154 442 c 0
 160 442 165 437 165 426 c 0
 165 413 161 397 161 370 c 0
 161 352 167 352 178 360 c 2
 208 383 l 2
 230 400 263 418 295 418 c 0
 334 418 354 393 354 368 c 0
 354 346 337 324 304 324 c 0
EndSplineSet
EndChar

StartChar: s
Encoding: 115 115 18
Width: 335
VWidth: 0
Flags: HW
HStem: -15 33<110.77 214.578> 386 28<113.186 210.668>
VStem: 40 53<282.158 370.181> 40 27<69.5251 124.863> 247 62<46.5147 130.096>
AnchorPoint: "l;bl" 0 10 basechar 0
AnchorPoint: "l;x" 5 380 basechar 0
AnchorPoint: "l;o" 0 210 basechar 0
AnchorPoint: "r;bl" 335 10 basechar 0
AnchorPoint: "r;x" 330 380 basechar 0
AnchorPoint: "r;o" 335 210 basechar 0
LayerCount: 3
Fore
SplineSet
309 114 m 0xe8
 309 47 252 -15 150 -15 c 0
 135 -15 91 -11 72 -4 c 0
 50 4 40 11 40 23 c 2
 40 100 l 2
 40 114 46 125 52 125 c 0
 61 125 64 113 67 103 c 0xd8
 84 40 123 18 169 18 c 0
 207 18 247 52 247 92 c 0
 247 132 185 159 131 188 c 0
 82 214 40 246 40 302 c 0
 40 367 84 414 169 414 c 0
 188 414 225 409 253 401 c 0
 273 395 278 383 278 368 c 2
 279 334 l 2
 280 315 275 305 268 305 c 0
 263 305 257 311 253 321 c 0
 239 357 207 386 158 386 c 0
 117 386 93 362 93 330 c 0
 93 288 133 264 182 239 c 0
 240 209 309 183 309 114 c 0xe8
EndSplineSet
EndChar

StartChar: t
Encoding: 116 116 19
Width: 317
VWidth: 0
Flags: HW
HStem: -11 53<165.796 257.73> 350 34<32.4016 86.792> 355 54<167.528 302.223> 355 46<157.037 282.287>
VStem: 81 72<53.0595 328.244> 91 64<108.77 351.957>
AnchorPoint: "l;bl" 5 10 basechar 0
AnchorPoint: "l;x" 5 380 basechar 0
AnchorPoint: "l;o" 0 210 basechar 0
AnchorPoint: "r;bl" 317 10 basechar 0
AnchorPoint: "r;x" 312 380 basechar 0
AnchorPoint: "r;o" 317 210 basechar 0
LayerCount: 3
Fore
SplineSet
76 352 m 0xa4
 67 352 53 350 48 350 c 0
 37 350 31 354 31 361 c 0
 31 374 47 379 57 384 c 0xc4
 94 402 112 416 133 452 c 2
 140 464 l 2
 144 472 150 479 156 479 c 0
 161 479 165 474 165 463 c 0
 165 449 157 417 157 410 c 0
 157 404 158 401 167 401 c 0x94
 177 401 269 409 283 409 c 0
 298 409 303 398 303 389 c 0
 303 362 294 355 280 355 c 2
 176 355 l 2
 163 355 155 351 155 341 c 0xa4
 154 272 153 196 153 130 c 0
 153 72 164 42 210 42 c 0
 255 42 284 75 295 75 c 0
 301 75 303 71 303 65 c 0
 303 35 245 -11 181 -11 c 0
 100 -11 81 33 81 103 c 0xa8
 81 227 91 293 91 330 c 0
 91 348 88 352 76 352 c 0xa4
EndSplineSet
EndChar

StartChar: u
Encoding: 117 117 20
Width: 500
VWidth: 0
Flags: HW
HStem: -22 21G<339 347> -13 55<172.909 272.49> 366 28<14.2167 50>
VStem: 75 72<66.8647 362.078> 332 71<62.8893 300.583> 333 78<133.422 356.998>
AnchorPoint: "l;bl" 30 10 basechar 0
AnchorPoint: "l;x" 0 380 basechar 0
AnchorPoint: "l;o" 10 210 basechar 0
AnchorPoint: "r;bl" 500 10 basechar 0
AnchorPoint: "r;x" 480 380 basechar 0
AnchorPoint: "r;o" 480 210 basechar 0
LayerCount: 3
Fore
SplineSet
50 363 m 2x74
 29 366 l 2
 18 368 14 373 14 378 c 0
 14 386 22 394 45 394 c 2
 135 395 l 2
 155 395 158 383 158 376 c 0
 158 364 147 336 147 169 c 0
 147 104 151 42 232 42 c 0
 272 42 332 62 332 91 c 0x78
 332 160 333 247 333 320 c 0
 333 388 243 345 243 380 c 0
 243 390 255 396 268 396 c 2
 328 396 l 2
 367 396 381 397 393 397 c 0
 404 397 411 387 411 375 c 0x74
 411 355 403 288 403 66 c 0
 403 43 416 39 432 39 c 2
 470 39 l 2
 476 39 485 39 485 29 c 0
 485 14 461 10 397 -7 c 0
 387 -10 351 -22 343 -22 c 0xb8
 335 -22 333 -17 333 -9 c 2
 333 30 l 2
 333 45 323 39 317 35 c 0
 282 11 237 -13 193 -13 c 0
 90 -13 75 59 75 133 c 0
 75 200 78 302 78 331 c 0
 78 354 69 360 50 363 c 2x74
EndSplineSet
EndChar

StartChar: v
Encoding: 118 118 21
Width: 481
VWidth: 0
Flags: HW
HStem: -17 21G<237.5 250> 364 33<407.757 471.98>
AnchorPoint: "l;bl" 80 10 basechar 0
AnchorPoint: "l;x" 0 380 basechar 0
AnchorPoint: "l;o" 40 210 basechar 0
AnchorPoint: "r;bl" 401 10 basechar 0
AnchorPoint: "r;x" 481 380 basechar 0
AnchorPoint: "r;o" 441 210 basechar 0
LayerCount: 3
Fore
SplineSet
345 337 m 0
 345 374 283 344 283 378 c 0
 283 392 301 396 314 396 c 0
 351 396 364 394 387 394 c 0
 411 394 432 397 455 397 c 0
 465 397 472 390 472 381 c 0
 472 368 460 366 443 364 c 0
 407 359 393 334 382 305 c 0
 374 284 365 258 359 241 c 0
 332 169 292 75 271 23 c 0
 260 -5 256 -17 244 -17 c 0
 231 -17 217 24 209 42 c 2
 85 319 l 2
 62 370 9 362 9 384 c 0
 9 392 15 397 29 397 c 2
 33 397 l 1
 75 395 80 394 115 394 c 2
 201 394 l 2
 213 394 226 391 226 381 c 0
 226 349 162 372 162 342 c 0
 162 330 201 231 248 129 c 0
 254 116 259 104 265 104 c 0
 268 104 272 108 275 117 c 0
 302 190 345 317 345 337 c 0
EndSplineSet
EndChar

StartChar: w
Encoding: 119 119 22
Width: 766
VWidth: 0
Flags: HW
HStem: -10 21G<230 241 517 529> 367 30<164.597 231.566 443.551 509.986 570.217 631.703 693.032 756.761> 375 27<10.0647 62.5463 290.327 338.929>
VStem: 348 95<294.277 365.669> 633 124<330.5 389.5>
AnchorPoint: "l;bl" 80 10 basechar 0
AnchorPoint: "l;x" 0 380 basechar 0
AnchorPoint: "l;o" 40 210 basechar 0
AnchorPoint: "r;bl" 686 10 basechar 0
AnchorPoint: "r;x" 766 380 basechar 0
AnchorPoint: "r;o" 726 210 basechar 0
LayerCount: 3
Fore
SplineSet
510 382 m 0xd8
 510 372 491 369 473 367 c 0
 455 365 443 363 443 347 c 0
 443 336 504 181 534 120 c 0
 540 107 546 105 553 120 c 0
 586 187 633 316 633 345 c 0
 633 354 627 367 604 370 c 0
 589 372 570 371 570 384 c 0
 570 399 585 399 595 399 c 0
 621 399 646 396 673 396 c 0
 697 396 729 397 740 397 c 0xd8
 749 397 757 394 757 385 c 0
 757 372 748 368 728 365 c 0
 688 359 680 345 658 289 c 0
 620 192 590 116 552 31 c 0
 539 2 536 -10 522 -10 c 0
 512 -10 505 -5 494 24 c 0
 467 96 430 181 393 261 c 0
 384 281 380 292 375 292 c 0
 371 292 368 285 361 267 c 2
 268 34 l 2
 253 -3 246 -13 236 -13 c 0
 224 -13 221 -2 208 26 c 0
 161 132 122 233 78 337 c 0
 65 367 51 372 40 375 c 0
 20 381 9 383 9 393 c 0
 9 401 17 402 25 402 c 0xb8
 34 402 93 398 110 398 c 0
 152 398 194 399 207 399 c 0
 215 399 232 398 232 385 c 0
 232 372 215 371 198 369 c 0
 170 366 161 351 161 340 c 0
 161 329 166 314 171 299 c 0
 187 253 217 175 249 108 c 0
 255 96 260 92 265 104 c 0
 292 171 348 316 348 343 c 0
 348 354 343 366 312 372 c 0
 299 375 290 375 290 386 c 0
 290 397 303 398 310 398 c 0
 314 398 354 395 387 395 c 0
 414 395 450 397 478 397 c 0
 491 397 510 393 510 382 c 0xd8
EndSplineSet
EndChar

StartChar: x
Encoding: 120 120 23
Width: 483
VWidth: 0
Flags: HW
HStem: -1 28<16.2101 56 162.426 212.971 410.425 465.381> 372 29<26.012 60 408.451 473.974>
VStem: 213 72<178.812 224.25>
DStem2: 127 72 169 64 0.62302 0.782206<0.907059 127.701 224.313 359.786> 250 261 130 312 0.582347 -0.81294<-109.064 12.3516 82.1803 214.616>
AnchorPoint: "l;bl" 0 10 basechar 0
AnchorPoint: "l;x" 15 380 basechar 0
AnchorPoint: "l;o" 20 210 basechar 0
AnchorPoint: "r;bl" 483 10 basechar 0
AnchorPoint: "r;x" 483 380 basechar 0
AnchorPoint: "r;o" 473 210 basechar 0
LayerCount: 3
Fore
SplineSet
266 14 m 0
 266 35 310 21 310 39 c 0
 310 59 270 111 247 143 c 0
 239 155 235 153 225 142 c 0
 202 115 185 89 169 64 c 0
 164 57 162 51 162 45 c 0
 162 35 169 28 187 27 c 0
 203 26 213 24 213 14 c 0
 213 3 205 -1 187 -1 c 0
 164 -1 137 1 114 1 c 0
 90 1 54 -1 31 -1 c 0
 21 -1 16 4 16 10 c 0
 16 23 24 24 39 27 c 2
 56 30 l 2
 92 36 105 47 127 72 c 2
 201 160 l 2
 209 169 213 177 213 185 c 0
 213 191 211 197 206 204 c 2
 130 312 l 2
 112 338 91 365 60 370 c 2
 47 372 l 2
 30 375 26 379 26 386 c 0
 26 397 35 401 47 401 c 2
 201 400 l 2
 227 400 234 393 234 387 c 0
 234 365 194 384 194 356 c 0
 194 336 217 308 250 261 c 0
 257 251 265 252 274 263 c 0
 328 330 341 352 341 362 c 0
 341 376 297 364 297 387 c 0
 297 395 305 403 324 403 c 0
 335 403 365 401 388 401 c 0
 399 401 436 403 451 403 c 0
 465 403 474 396 474 387 c 0
 474 380 468 373 454 370 c 0
 431 366 418 367 396 349 c 0
 364 322 326 277 292 234 c 0
 287 228 285 222 285 217 c 0
 285 206 293 197 302 185 c 2
 399 53 l 2
 414 33 425 31 449 25 c 0
 462 22 466 17 466 8 c 0
 466 -3 452 -3 443 -3 c 0
 421 -3 401 0 364 0 c 2
 289 0 l 2
 280 0 266 1 266 14 c 0
EndSplineSet
EndChar

StartChar: y
Encoding: 121 121 24
Width: 491
VWidth: 0
Flags: HW
HStem: -248 79<30.1326 117.11> 369 28<9.049 71.7356 166.925 220.906 288.013 351.334 418.959 481.991>
AnchorPoint: "l;bl" 80 10 basechar 0
AnchorPoint: "l;x" 0 380 basechar 0
AnchorPoint: "l;hi" 0 660 basechar 0
AnchorPoint: "l;o" 40 210 basechar 0
AnchorPoint: "l;lo" 20 -200 basechar 0
AnchorPoint: "r;bl" 371 10 basechar 0
AnchorPoint: "r;x" 491 380 basechar 0
AnchorPoint: "r;hi" 491 660 basechar 0
AnchorPoint: "r;o" 431 210 basechar 0
LayerCount: 3
Fore
SplineSet
70 -248 m 0
 39 -248 25 -226 25 -207 c 0
 25 -187 41 -169 72 -169 c 0
 85 -169 95 -171 103 -171 c 0
 111 -171 117 -169 123 -159 c 0
 161 -99 208 -8 208 -2 c 0
 208 1 180 70 173 89 c 2
 88 324 l 2
 76 358 65 365 42 368 c 0
 24 370 9 372 9 384 c 0
 9 397 26 398 34 398 c 0
 67 398 118 396 127 396 c 0
 151 396 177 397 201 397 c 0
 214 397 221 391 221 384 c 0
 221 377 213 371 198 369 c 0
 179 366 166 366 166 348 c 0
 166 327 207 222 244 120 c 0
 246 114 249 112 252 112 c 0
 256 112 260 118 264 126 c 0
 290 179 325 261 342 312 c 0
 347 326 352 340 352 350 c 0
 352 360 346 367 329 367 c 2
 316 367 l 2
 306 367 288 369 288 383 c 0
 288 393 297 400 315 400 c 0
 329 400 358 397 389 397 c 0
 416 397 444 398 456 398 c 0
 473 398 482 392 482 383 c 0
 482 368 469 366 449 364 c 0
 417 361 400 344 391 324 c 0
 316 159 260 19 171 -144 c 0
 150 -183 121 -248 70 -248 c 0
EndSplineSet
EndChar

StartChar: z
Encoding: 122 122 25
Width: 398
VWidth: 0
Flags: HW
HStem: 0 42<150 308.619> 0 35<131.005 272> 362 39<101.346 247.999> 388 20G<335 359.5>
DStem2: 64 75 134 52 0.569641 0.821894<12.7653 337.095>
AnchorPoint: "l;bl" 0 10 basechar 0
AnchorPoint: "l;x" 0 380 basechar 0
AnchorPoint: "l;o" 0 210 basechar 0
AnchorPoint: "r;bl" 398 10 basechar 0
AnchorPoint: "r;x" 398 380 basechar 0
AnchorPoint: "r;o" 398 210 basechar 0
LayerCount: 3
Fore
SplineSet
101 450 m 0x60
 101 439 100 429 100 422 c 0
 100 408 105 401 133 401 c 0x60
 163 401 316 408 354 408 c 0
 365 408 372 402 372 393 c 0
 372 386 359 368 347 354 c 0
 307 304 187 128 134 52 c 0
 132 49 131 46 131 44 c 0
 131 38 138 35 150 35 c 2x50
 272 42 l 2x80
 304 43 310 62 324 96 c 0
 332 116 340 145 354 145 c 0
 360 145 366 137 366 122 c 0
 366 108 360 72 360 56 c 0
 360 47 361 34 361 24 c 0
 361 12 361 0 348 0 c 2
 69 0 l 2
 26 0 26 8 26 15 c 0
 26 26 49 50 64 75 c 0
 106 143 200 277 236 331 c 0
 240 337 248 350 248 358 c 0
 248 362 246 365 239 365 c 2
 159 362 l 2
 101 360 81 358 59 302 c 0
 55 294 49 291 44 291 c 0
 37 291 30 298 30 311 c 0
 30 332 59 398 72 444 c 0
 75 456 85 463 92 463 c 0
 97 463 101 459 101 450 c 0x60
EndSplineSet
EndChar

StartChar: A
Encoding: 65 65 26
Width: 693
VWidth: 0
Flags: W
HStem: -8 43<17.0073 90.6747> 0 38<48 91.0164 155.004 244.664 390.046 478.759 576.061 675.24> 294 44<264.994 391.999> 652 20G<355.5 371>
VStem: 17 138<6.5 59>
DStem2: 92 59 159 80 0.385185 0.922839<21.7593 285.508> 450 431 416 270 0.30782 -0.951445<110.436 361.309>
LayerCount: 3
Fore
SplineSet
265 357 m 0x38
 265 355 257 338 272 338 c 2
 382 338 l 2
 390 338 392 346 392 347 c 0
 392 354 335 527 333 527 c 0
 329 527 265 364 265 357 c 0x38
425 37 m 2
 436 37 l 2
 458 37 479 40 479 60 c 0
 479 73 464 116 448 168 c 0
 436 206 425 245 416 270 c 0
 408 292 407 294 394 294 c 2
 255 294 l 2
 241 294 239 293 232 276 c 2
 213 226 l 2
 200 190 170 118 159 80 c 0
 156 70 155 62 155 56 c 0
 155 44 161 39 178 38 c 2
 208 36 l 2
 227 35 245 30 245 16 c 0
 245 6 238 -3 220 -3 c 0
 199 -3 166 0 136 0 c 0x78
 96 0 56 -8 42 -8 c 0
 24 -8 17 -1 17 14 c 0
 17 27 27 31 48 35 c 2xb8
 68 38 l 2
 78 39 87 48 92 59 c 2
 332 634 l 2
 341 655 348 672 363 672 c 0
 379 672 382 652 385 642 c 0
 406 567 426 505 450 431 c 0
 486 316 535 167 572 64 c 0
 582 37 615 37 636 34 c 0
 649 32 676 31 676 15 c 0
 676 6 668 0 642 0 c 0x78
 612 0 550 2 529 2 c 0
 470 2 432 -2 416 -2 c 0
 396 -2 390 6 390 18 c 0
 390 35 406 37 425 37 c 2
EndSplineSet
EndChar

StartChar: B
Encoding: 66 66 27
Width: 572
VWidth: 0
Flags: W
HStem: -2 35<22.0659 120.609> 0 44<225.194 403.63> 346 30<219.046 349.937> 611 38<30.6389 124.158> 618 40<218.146 357.189>
VStem: 130 89<55.1657 345.765 376.009 608.429> 430 2<375 502> 465 92<122.168 274.083>
LayerCount: 3
Fore
SplineSet
430 502 m 0x2f
 430 580 342 618 264 618 c 2
 240 618 l 2
 226 618 218 614 218 594 c 2
 217 401 l 2
 217 388 218 376 228 376 c 0
 333 376 430 390 430 502 c 0x2f
130 575 m 2
 130 611 104 611 80 611 c 2
 49 611 l 2
 36 611 29 612 29 622 c 0
 29 634 36 645 82 649 c 0xb7
 145 654 245 658 285 658 c 0
 421 658 520 613 520 509 c 0
 520 411 432 378 432 375 c 0
 432 373 557 362 557 215 c 0
 557 98 472 27 373 8 c 0
 337 2 296 0 253 0 c 0x6f
 229 0 190 2 166 2 c 0
 122 2 95 -1 52 -2 c 0
 32 -2 22 3 22 17 c 0
 22 30 32 33 47 33 c 2
 68 33 l 2xa7
 117 33 130 53 130 80 c 2
 130 575 l 2
220 79 m 0
 220 51 274 44 306 44 c 0x67
 428 44 465 109 465 193 c 0
 465 253 434 309 378 329 c 0
 344 341 274 346 252 346 c 0
 221 346 219 342 219 335 c 0
 219 257 220 161 220 79 c 0
EndSplineSet
EndChar

StartChar: C
Encoding: 67 67 28
Width: 622
VWidth: 0
Flags: W
HStem: -13 48<275.752 484.414> 626 42<289.903 477.408>
VStem: 34 100<196.006 436.108> 526 34<551.396 582.894>
LayerCount: 3
Fore
SplineSet
589 174 m 0
 597 174 602 168 602 156 c 0
 602 138 593 103 590 62 c 0
 588 40 571 35 540 21 c 0
 467 -12 385 -13 350 -13 c 0
 149 -13 34 141 34 310 c 0
 34 472 139 668 390 668 c 0
 458 668 500 659 536 644 c 0
 552 638 557 630 560 611 c 0
 563 596 571 559 571 551 c 0
 571 540 563 536 556 536 c 0
 545 536 532 557 526 565 c 0
 507 591 462 626 388 626 c 0
 229 626 134 491 134 345 c 0
 134 108 255 35 380 35 c 0
 440 35 467 46 493 62 c 0
 521 79 539 91 560 134 c 2
 569 152 l 2
 575 162 580 174 589 174 c 0
EndSplineSet
EndChar

StartChar: D
Encoding: 68 68 29
Width: 725
VWidth: 0
Flags: W
HStem: -4 41<15.8697 106.041 191.366 444.905> 614 41<17.0095 109.711 196 369.472>
VStem: 107 87<66.0925 612.191> 597 102<210.255 426.593>
LayerCount: 3
Fore
SplineSet
15 12 m 0
 15 29 40 29 69 34 c 0
 102 39 107 43 107 74 c 0
 107 89 103 119 103 152 c 0
 103 276 105 475 110 581 c 1
 110 588 l 2
 110 613 100 610 49 617 c 0
 30 620 17 622 17 635 c 0
 17 650 29 653 46 653 c 0
 77 653 127 651 147 651 c 0
 201 651 214 655 267 655 c 0
 363 655 448 649 515 617 c 0
 627 563 699 472 699 315 c 0
 699 243 650 59 479 15 c 0
 425 1 402 -4 310 -4 c 0
 265 -4 193 2 151 2 c 0
 109 2 66 -5 51 -5 c 0
 20 -5 15 2 15 12 c 0
358 37 m 0
 417 37 468 64 509 99 c 0
 572 153 597 232 597 310 c 0
 597 527 415 614 220 614 c 0
 198 614 196 606 196 594 c 0
 194 467 194 338 194 211 c 0
 194 168 194 110 204 82 c 0
 217 47 290 37 358 37 c 0
EndSplineSet
EndChar

StartChar: E
Encoding: 69 69 30
Width: 608
VWidth: 0
Flags: W
HStem: -2 38<18.1514 114.484> 0 45<212.824 519.693> 327 34<216.52 436.013> 611 44<262.748 504.331> 619 40<220.757 371.006> 629 36<41.1145 137.004>
VStem: 121 91<45.7832 320.742> 132 82<361.217 615.189> 446 35<213.193 318.713> 526 32<508.052 578.947> 559 33<129 154.301>
LayerCount: 3
Fore
SplineSet
538 655 m 0x31e0
 554 655 558 639 558 627 c 2
 558 526 l 2
 558 516 551 508 541 508 c 0
 530 508 527 518 526 522 c 0
 515 611 483 605 444 611 c 0x31e0
 416 615 297 619 261 619 c 0
 242 619 220 616 220 593 c 0
 220 526 214 475 214 405 c 0x29e0
 214 366 222 361 242 361 c 2
 364 361 l 2
 437 361 437 362 444 391 c 0
 449 410 452 453 469 453 c 0
 480 453 483 445 483 438 c 0
 483 424 478 381 478 344 c 0
 478 262 481 241 481 228 c 0
 481 220 477 212 469 212 c 0
 448 212 448 247 446 269 c 0
 443 298 440 324 408 325 c 2
 239 327 l 2
 216 327 212 315 212 302 c 2
 212 108 l 2
 212 90 212 75 213 65 c 0
 214 51 227 45 240 45 c 2
 430 45 l 2
 502 45 526 58 553 116 c 2
 559 129 l 2
 564 140 571 155 578 155 c 0
 588 155 592 147 592 133 c 0
 592 110 583 80 580 62 c 0
 576 39 573 17 572 8 c 0
 571 -1 561 -3 553 -3 c 0
 509 -3 465 0 422 0 c 2
 158 0 l 2x6ae0
 109 0 66 -2 42 -2 c 0
 31 -2 18 0 18 11 c 0
 18 33 22 36 36 36 c 2
 87 36 l 2
 107 36 115 45 121 82 c 0xa2e0
 126 112 130 263 132 397 c 0
 133 497 138 590 138 604 c 0
 138 626 116 629 90 629 c 2
 62 629 l 2
 50 629 41 638 41 649 c 0
 41 657 45 665 64 665 c 0xa5e0
 72 665 82 664 95 663 c 0
 117 661 145 659 167 659 c 0x29e0
 263 659 440 655 538 655 c 0x31e0
EndSplineSet
EndChar

StartChar: F
Encoding: 70 70 31
Width: 577
VWidth: 0
Flags: W
HStem: -4 36<30.5331 120.527 213.291 307.574> 314 36<205.216 425.355> 614 41<206.969 488.9> 625 27<32.0205 117.189>
VStem: 127 78<40.8036 313.965 350.062 607.933> 442 26<227.318 299.956 372.035 441.954> 520 24<511.772 574.686>
LayerCount: 3
Fore
SplineSet
209 66 m 0xee
 209 44 225 39 244 38 c 2
 264 37 l 2
 284 36 308 34 308 18 c 0
 308 4 298 1 280 1 c 0
 273 1 219 3 168 3 c 0
 116 3 74 -4 48 -4 c 0
 37 -4 30 2 30 11 c 0
 30 27 60 25 86 32 c 0
 118 40 126 50 126 70 c 0
 126 207 127 449 127 563 c 2
 127 582 l 2
 127 626 94 622 52 625 c 0
 39 625 32 629 32 639 c 0
 32 651 46 652 66 652 c 2
 89 652 l 2xde
 231 652 374 654 517 655 c 0
 533 655 541 647 541 635 c 2
 544 529 l 2
 544 516 540 511 535 511 c 0
 529 511 521 520 520 533 c 0
 516 573 503 593 470 601 c 0
 419 613 380 614 340 614 c 0
 312 614 288 613 251 611 c 0
 212 608 206 603 206 584 c 2
 207 495 l 2
 207 451 205 407 205 369 c 0
 205 354 211 350 222 350 c 2
 364 352 l 2
 428 353 435 374 438 397 c 2
 442 426 l 2
 443 435 446 442 454 442 c 0
 462 442 465 436 465 424 c 0
 465 410 461 369 461 332 c 0
 461 298 468 253 468 240 c 0
 468 232 464 227 458 227 c 0
 447 227 444 236 443 250 c 2
 442 263 l 2
 438 307 422 313 373 313 c 2
 236 314 l 2
 209 314 203 314 203 296 c 0
 203 282 203 268 204 252 c 0
 206 182 209 97 209 66 c 0xee
EndSplineSet
EndChar

StartChar: G
Encoding: 71 71 32
Width: 753
VWidth: 0
Flags: W
HStem: -18 39<292.412 495.227> 268 37<405.092 527.266 618 728.831> 638 41<291.158 498.372>
VStem: 28 91<209.146 447.193> 533 85<49.5366 260.458> 581 34<494.316 559.566>
LayerCount: 3
Fore
SplineSet
119 344 m 0xf4
 119 139 237 21 392 21 c 0
 473 21 526 48 528 72 c 0
 531 112 533 179 533 230 c 0
 533 266 495 265 460 268 c 0
 433 270 405 270 405 288 c 0
 405 300 413 305 423 305 c 2
 710 305 l 2
 727 305 729 294 729 288 c 0
 729 273 703 272 676 271 c 0
 647 270 619 269 618 250 c 2xf8
 612 57 l 2
 611 36 603 32 576 21 c 0
 531 3 455 -18 369 -18 c 0
 127 -18 28 146 28 325 c 0
 28 502 156 679 418 679 c 0
 484 679 555 660 596 634 c 0
 608 627 611 617 611 608 c 2
 611 566 l 2
 611 546 615 522 615 509 c 0
 615 501 612 494 602 494 c 0
 590 494 587 499 581 522 c 0
 563 587 500 638 407 638 c 0
 178 638 119 465 119 344 c 0xf4
EndSplineSet
EndChar

StartChar: H
Encoding: 72 72 33
Width: 765
VWidth: 0
Flags: W
HStem: -2 33<40.5858 114.156 452.117 545.103> 303 49<210 552.471> 613 37<50.0233 124.504 219.002 305.681 507.571 553.402 641.431 711.982> 620 35<474.009 529>
VStem: 122 88<37.3398 302.975 352.009 612.031> 128 90<351.984 611.407> 555 84<44.7637 302.71 351.371 616.199>
LayerCount: 3
Fore
SplineSet
210 62 m 0xea
 210 16 304 47 304 15 c 0
 304 -1 292 -3 274 -3 c 0
 267 -3 223 0 172 0 c 0
 120 0 89 -2 63 -2 c 0
 45 -2 40 2 40 11 c 0
 40 27 63 26 84 31 c 0
 102 35 122 46 122 68 c 0xea
 122 84 122 219 124 348 c 0
 126 434 128 511 128 547 c 2
 128 566 l 2
 128 593 123 611 102 612 c 2
 70 613 l 2
 58 613 50 618 50 631 c 0
 50 647 68 650 92 650 c 0
 118 650 145 649 171 649 c 0
 214 649 273 653 283 653 c 0
 292 653 306 652 306 634 c 0
 306 617 278 616 260 615 c 2
 241 614 l 2
 222 613 220 610 218 584 c 0xe6
 213 515 213 459 210 376 c 0
 210 374 210 372 210 370 c 0
 210 355 213 352 233 352 c 2
 526 351 l 2
 549 351 553 358 554 394 c 0
 555 426 555 456 555 482 c 0
 555 534 554 571 554 580 c 0
 554 606 551 614 529 617 c 2
 504 620 l 2
 486 622 474 626 474 637 c 0
 474 651 487 655 502 655 c 0xda
 513 655 574 650 596 650 c 0
 608 650 657 649 683 649 c 0
 707 649 712 641 712 632 c 0
 712 618 687 618 668 617 c 0
 645 616 641 610 641 582 c 0
 641 509 639 434 639 347 c 0
 639 236 638 131 638 80 c 0
 638 20 742 42 742 13 c 0
 742 0 728 0 710 0 c 0
 703 0 649 2 598 2 c 0
 546 2 493 -6 467 -6 c 0
 456 -6 451 -1 451 8 c 0
 451 23 464 25 483 26 c 2
 500 27 l 2
 516 28 549 32 551 66 c 0
 553 107 555 174 555 242 c 2
 555 286 l 2
 555 302 545 303 518 303 c 2
 237 303 l 2
 213 303 209 302 209 287 c 0
 209 255 212 222 212 191 c 0
 212 135 210 86 210 62 c 0xea
EndSplineSet
EndChar

StartChar: I
Encoding: 73 73 34
Width: 327
VWidth: 0
Flags: W
HStem: -6 34<15.0349 108.904 250.625 309.578> 616 38<20.8558 119.653 218.545 308.99>
VStem: 114 90<41.4682 321> 123 86<332.342 607.72>
LayerCount: 3
Fore
SplineSet
280 616 m 0xd0
 231 614 209 611 209 552 c 0xd0
 209 415 204 218 204 68 c 0
 204 46 224 40 248 36 c 2
 269 33 l 2
 289 30 310 26 310 14 c 0
 310 3 298 0 281 0 c 0
 274 0 222 2 171 2 c 0
 119 2 59 -6 33 -6 c 0
 22 -6 15 1 15 10 c 0
 15 25 27 27 43 28 c 2
 71 30 l 2
 102 32 112 34 114 65 c 0xe0
 116 94 123 547 123 580 c 0
 123 614 94 618 65 619 c 0
 42 620 20 623 20 640 c 0
 20 654 30 657 44 657 c 0
 73 657 83 652 169 652 c 0
 238 652 258 654 273 654 c 0
 295 654 309 650 309 635 c 0
 309 619 296 617 280 616 c 0xd0
EndSplineSet
EndChar

StartChar: J
Encoding: 74 74 35
Width: 327
VWidth: 0
Flags: W
HStem: -243 38<-9.99677 80.8098> 616 42<11.3576 121.34> 623 39<219.448 301.818>
VStem: -94 79<-200.169 -141.401> 124 93<320.382 612.903> 133 89<-102.072 371.144>
LayerCount: 3
Fore
SplineSet
-26 -65 m 0xb4
 0 -65 23 -83 23 -112 c 0
 23 -143 -15 -145 -15 -171 c 0
 -15 -194 7 -205 33 -205 c 0
 100 -205 126 -120 129 -54 c 0
 132 2 133 60 133 121 c 0xb4
 133 269 126 429 124 580 c 0
 124 606 107 616 84 616 c 2
 37 616 l 2
 21 616 11 621 11 633 c 0
 11 646 21 658 40 658 c 2
 128 658 l 6xd8
 182 658 263 662 285 662 c 0
 297 662 302 653 302 645 c 0
 302 626 277 625 258 623 c 0
 235 620 217 622 217 584 c 0xb8
 217 429 222 219 222 82 c 0
 222 -55 202 -118 170 -164 c 0
 136 -213 78 -243 20 -243 c 0
 -44 -243 -94 -198 -94 -148 c 0
 -94 -102 -64 -65 -26 -65 c 0xb4
EndSplineSet
EndChar

StartChar: K
Encoding: 75 75 36
Width: 703
VWidth: 0
Flags: W
HStem: 0 39<13.2725 113.733 207.857 310.985 352.017 444.99 588.434 677.803> 312 36<205.023 236.915> 605 39<23.1561 123.98> 610 41<216.602 291.818 369.267 445.527> 621 39<544.694 642.883>
VStem: 113 91<45.9822 311.996 348.004 454.513> 124 92<365.617 601>
DStem2: 321 335 234 298 0.66629 -0.745693<-36.6562 292.657> 254 380 317 388 0.716521 0.697565<19.119 286.271>
LayerCount: 3
Fore
SplineSet
352 20 m 0xcc
 352 36 376 38 402 39 c 0
 432 40 445 43 445 53 c 0
 445 60 439 69 427 82 c 2
 234 298 l 2
 228 304 219 312 213 312 c 0
 208 312 205 307 205 294 c 2
 204 83 l 2
 204 48 213 44 271 40 c 0
 290 39 311 35 311 20 c 0
 311 0 302 0 284 0 c 2
 168 0 l 2
 114 0 77 -2 49 -2 c 0
 37 -2 13 1 13 16 c 0
 13 37 29 39 49 39 c 2
 85 39 l 2
 99 39 114 45 114 62 c 0
 114 72 113 126 113 201 c 0xcc
 113 323 124 569 124 585 c 0
 124 600 96 603 75 605 c 0
 47 607 23 607 23 622 c 0
 23 639 33 644 57 644 c 0xe2
 95 644 131 645 167 646 c 0
 199 647 255 651 264 651 c 0
 282 651 292 642 292 633 c 0
 292 618 279 613 261 610 c 0
 233 606 216 598 216 586 c 0xd2
 214 527 204 376 204 365 c 0
 204 353 207 348 212 348 c 0
 223 348 242 368 254 380 c 0
 282 407 341 472 421 553 c 0
 427 559 446 576 446 595 c 0
 446 603 441 608 426 609 c 0
 392 611 369 610 369 634 c 0
 369 640 371 651 404 652 c 0
 424 653 483 653 496 654 c 0
 530 656 609 660 622 660 c 0
 639 660 643 650 643 642 c 0
 643 626 625 624 608 621 c 0
 553 613 532 597 506 572 c 0
 482 548 457 526 427 497 c 2
 317 388 l 2
 303 374 297 368 297 363 c 0
 297 357 306 351 321 335 c 0
 380 273 553 82 588 53 c 0
 597 46 623 41 636 41 c 0
 661 40 678 41 678 24 c 0
 678 0 669 -2 648 -2 c 0
 611 -2 598 0 526 0 c 2
 377 0 l 2
 374 0 352 0 352 20 c 0xcc
EndSplineSet
EndChar

StartChar: L
Encoding: 76 76 37
Width: 583
VWidth: 0
Flags: W
HStem: 0 38<213.097 435.553> 616 32<18.3406 121.86 217.393 282.25> 624 33<263 333.267>
VStem: 124 84<42.0008 613.928>
LayerCount: 3
Fore
SplineSet
211 69 m 0xb0
 211 60 216 38 234 38 c 0
 257 38 425 44 467 58 c 0
 532 79 540 171 558 171 c 0
 567 171 571 162 571 148 c 0
 571 132 568 111 566 91 c 0
 564 63 563 43 563 21 c 0
 563 5 548 0 530 0 c 2
 168 0 l 2
 116 0 52 -6 26 -6 c 0
 15 -6 2 -3 2 7 c 0
 2 39 121 13 121 73 c 0
 121 102 124 545 124 578 c 0
 124 609 120 613 88 616 c 2
 58 618 l 2
 36 619 18 620 18 635 c 0
 18 649 28 650 34 650 c 0
 55 650 63 648 138 648 c 0xd0
 249 648 295 657 311 657 c 0
 327 657 334 652 334 645 c 0
 334 625 305 626 285 624 c 2
 263 622 l 2
 219 618 209 611 209 530 c 2
 208 357 l 2
 208 240 208 116 211 69 c 0xb0
EndSplineSet
EndChar

StartChar: M
Encoding: 77 77 38
Width: 944
VWidth: -2
Flags: W
HStem: 0 33<31.0712 121.504 190.471 308.155 606.298 704.562 811.292 917.607> 612 36<794.291 906.391> 619 34<44.3103 147.775>
VStem: 127 51<43.3986 293.828> 148 37<491 599> 710 79<333.347 520.996> 713 88<43.1695 323.25>
DStem2: 236 645 210 491 0.454907 -0.890539<93.2257 553.949> 513 196 483 27 0.396027 0.918239<-51.4957 373.574>
LayerCount: 3
Fore
SplineSet
446 29 m 2xc4
 210 491 l 2
 207 496 198 518 192 518 c 0
 188 518 186 510 185 491 c 0xcc
 180 405 178 183 178 110 c 0
 178 46 186 41 240 35 c 0
 276 31 309 33 309 11 c 0
 309 -1 301 -2 288 -2 c 0
 255 -2 206 2 160 2 c 0
 128 2 73 0 51 0 c 0
 42 0 31 0 31 15 c 0
 31 33 50 32 71 33 c 0
 124 36 125 44 127 85 c 0xd0
 132 222 148 586 148 599 c 0
 148 613 136 612 100 619 c 0
 71 625 44 624 44 638 c 0
 44 650 54 653 72 653 c 2
 214 653 l 2xa8
 220 653 232 652 236 645 c 0
 312 497 382 366 460 198 c 0
 474 167 480 151 487 151 c 0
 493 151 500 166 513 196 c 2
 680 583 l 2
 686 597 694 618 702 635 c 0
 708 647 709 649 718 649 c 0
 748 648 766 648 791 648 c 2
 825 648 l 2
 868 648 880 649 886 649 c 0
 899 649 908 643 908 636 c 0
 908 618 872 616 840 612 c 0
 819 609 800 605 794 597 c 0
 790 591 789 581 789 570 c 0xcc
 789 506 801 142 801 72 c 0
 801 42 829 40 873 33 c 0
 898 29 918 26 918 14 c 0
 918 2 910 0 885 0 c 0
 874 0 817 2 761 2 c 0
 705 2 651 -5 642 -5 c 0
 613 -5 606 1 606 14 c 0
 606 30 632 30 658 32 c 0
 692 34 713 42 713 80 c 2xc2
 713 80 712 384 710 498 c 0
 710 515 707 521 703 521 c 0
 698 521 692 512 687 500 c 2
 483 27 l 2
 477 13 472 7 466 7 c 0
 460 7 453 15 446 29 c 2xc4
EndSplineSet
EndChar

StartChar: N
Encoding: 78 78 39
Width: 758
VWidth: 0
Flags: W
HStem: -27 21G<611 622> -1 33<17.0145 112.808 166.819 279.802> 620 38<9.07822 101.363> 632 34<463.157 573.695 637.377 719.945>
VStem: 109 39<348.284 506.996> 118 44<37.3789 266.363> 582 48<364.801 620.712> 594 39<129.007 383.589>
DStem2: 171 629 176 486 0.636047 -0.771651<82.8481 651.568>
LayerCount: 3
Fore
SplineSet
171 629 m 0xe8
 301 480 418 340 536 188 c 2
 565 151 l 2
 577 136 585 129 589 129 c 0
 594 129 594 139 594 158 c 2
 594 179 l 2xe9
 594 378 588 473 582 574 c 0
 579 628 574 626 502 632 c 0
 481 634 463 636 463 651 c 0
 463 657 467 666 485 666 c 0
 492 666 550 663 591 663 c 0
 642 663 669 665 692 665 c 0
 701 665 720 664 720 648 c 0
 720 636 710 632 697 631 c 2
 667 629 l 2
 656 628 645 628 637 621 c 0
 630 615 630 600 630 572 c 0xd2
 630 499 629 429 629 358 c 0
 629 239 630 120 633 -3 c 0
 633 -27 624 -27 620 -27 c 0
 602 -27 597 -14 503 98 c 2
 176 486 l 2
 166 498 158 507 153 507 c 0
 149 507 148 502 148 489 c 2
 148 482 l 1xd9
 152 379 158 129 162 62 c 0
 164 34 198 34 221 33 c 0
 256 31 280 33 280 13 c 0
 280 0 269 -1 254 -1 c 0
 224 -1 183 1 140 1 c 0
 108 1 68 -1 46 -1 c 0
 37 -1 17 0 17 15 c 0
 17 33 35 31 56 32 c 0
 118 36 118 44 118 85 c 0xd4
 118 217 112 457 109 548 c 0
 107 610 102 613 61 620 c 0
 36 624 9 620 9 640 c 0
 9 657 24 658 34 658 c 2
 64 658 l 2
 82 658 101 660 119 660 c 0
 142 660 148 655 171 629 c 0xe8
EndSplineSet
EndChar

StartChar: O
Encoding: 79 79 40
Width: 786
VWidth: 0
Flags: W
HStem: -21 39<305.64 478.326> 620 44<280.945 460.087>
VStem: 36 105<201.957 449.119> 621 105<187.277 430.026>
LayerCount: 3
Fore
SplineSet
726 320 m 0
 726 92 570 -21 374 -21 c 0
 194 -21 36 80 36 324 c 0
 36 546 204 664 380 664 c 0
 570 664 726 535 726 320 c 0
141 340 m 0
 141 133 263 18 391 18 c 0
 523 18 621 127 621 296 c 0
 621 490 504 620 375 620 c 0
 221 620 141 487 141 340 c 0
EndSplineSet
EndChar

StartChar: P
Encoding: 80 80 41
Width: 557
VWidth: 0
Flags: W
HStem: -6 21G<36 56> 2 36<213.604 298.642> 266 47<245.593 379.278> 618 42<215.494 355.971>
VStem: 113 99<41.7617 291.097> 126 84<350.151 615.152> 437 93<380.363 541.997>
LayerCount: 3
Fore
SplineSet
214 558 m 0x36
 213 540 210 442 210 375 c 0
 210 341 212 330 223 324 c 0
 239 316 279 313 298 313 c 0
 387 313 437 367 437 463 c 0
 437 554 370 618 268 618 c 0
 208 618 216 612 214 558 c 0x36
22 10 m 0
 22 46 113 15 113 60 c 0xba
 113 89 126 563 126 596 c 0xb6
 126 638 26 606 26 641 c 0
 26 658 38 661 53 661 c 0
 75 661 137 657 169 657 c 0
 220 657 258 660 320 660 c 0
 400 660 530 638 530 484 c 0
 530 387 475 266 330 266 c 0
 296 266 265 279 245 288 c 0
 231 295 223 300 218 300 c 0
 213 300 212 293 212 277 c 2
 212 66 l 2
 212 40 235 42 260 38 c 0
 290 34 324 32 324 14 c 0
 324 -2 317 -7 299 -7 c 0
 292 -7 244 2 168 2 c 0x7a
 114 2 69 -6 43 -6 c 0xba
 29 -6 22 0 22 10 c 0
EndSplineSet
EndChar

StartChar: Q
Encoding: 81 81 42
Width: 767
VWidth: 0
Flags: W
HStem: -236 56<646.648 757.647> 629 40<278.025 467.119>
VStem: 46 91<211.303 449.182> 630 93<189.028 443.587>
LayerCount: 3
Fore
SplineSet
382 18 m 0
 515 18 630 124 630 296 c 0
 630 494 536 629 367 629 c 0
 211 629 137 483 137 335 c 0
 137 159 261 18 382 18 c 0
380 669 m 0
 601 669 723 534 723 321 c 0
 723 71 545 17 460 2 c 0
 437 -2 429 -7 429 -13 c 0
 429 -22 446 -33 465 -46 c 0
 544 -101 651 -180 728 -180 c 0
 767 -180 776 -171 788 -171 c 0
 796 -171 800 -177 800 -184 c 0
 800 -191 793 -199 784 -202 c 0
 754 -215 720 -236 668 -236 c 0
 528 -236 454 -120 314 -20 c 0
 302 -12 292 -1 276 4 c 0
 148 45 46 146 46 310 c 0
 46 546 193 669 380 669 c 0
EndSplineSet
AlternateSubs2: "'aalt' Access All Alternates in Latin lookup 0 subtable" Q.001 Q.002
AlternateSubs2: "'salt' Stylistic Alternatives in Latin lookup 0 subtable" Q.001 Q.002
EndChar

StartChar: R
Encoding: 82 82 43
Width: 671
VWidth: 0
Flags: W
HStem: -3 35<20.0145 113.768 258 317.948 608.857 655.971> 4 28<38.9407 112.396> 325 24<210.089 278.278> 621 35<36.2808 124.064 211.671 316.698>
VStem: 117 91<42.0524 310.268> 128 80<320.55 325 349.227 618.424> 401 90<408.709 556.561>
LayerCount: 3
Fore
SplineSet
208 292 m 2xba
 208 70 l 2
 208 43 228 42 258 36 c 2
 280 32 l 2
 300 28 318 24 318 14 c 0
 318 -2 308 -3 296 -3 c 0xba
 289 -3 219 4 168 4 c 0x7a
 82 4 58 -1 38 -1 c 0
 24 -1 20 6 20 15 c 0
 20 29 40 28 54 29 c 2
 88 32 l 2
 108 34 114 43 117 62 c 0xba
 120 87 128 450 128 564 c 0xb6
 128 612 125 621 76 621 c 2
 63 621 l 2
 48 621 35 622 35 633 c 0
 35 654 72 656 110 656 c 2
 164 656 l 2
 189 656 230 659 246 659 c 0
 379 659 491 626 491 496 c 0
 491 413 451 370 388 346 c 0
 366 338 358 337 358 333 c 0
 358 330 363 325 371 313 c 0
 418 246 465 168 508 96 c 0
 532 57 543 49 593 39 c 2
 630 32 l 2
 646 29 656 24 656 14 c 0
 656 -1 647 -2 631 -2 c 0
 585 -2 548 0 502 0 c 0
 453 0 440 21 430 41 c 2
 298 292 l 2
 290 306 275 325 252 325 c 2
 229 325 l 2
 211 325 208 315 208 292 c 2xba
211 594 m 0
 211 576 209 443 209 376 c 0
 209 351 212 349 242 349 c 0
 331 349 401 385 401 485 c 0
 401 574 328 619 230 619 c 0
 211 619 211 602 211 594 c 0
EndSplineSet
EndChar

StartChar: S
Encoding: 83 83 44
Width: 510
VWidth: 0
Flags: W
HStem: -19 45<173.19 349.087> 629 44<180.895 323.081>
VStem: 68 30<107.609 192.939> 77 59<463.331 581.81> 368 34<502.731 576.958> 404 54<86.0647 204.176>
LayerCount: 3
Fore
SplineSet
136 514 m 0xdc
 136 452 214 419 294 378 c 0
 376 336 458 284 458 174 c 0
 458 78 386 -19 256 -19 c 0
 199 -19 130 -4 99 6 c 0
 73 14 66 15 66 25 c 0
 66 51 68 74 68 96 c 2
 68 160 l 2
 68 172 70 193 82 193 c 0
 97 193 96 172 98 158 c 0xec
 103 123 111 106 129 83 c 0
 158 46 212 26 272 26 c 0
 357 26 404 86 404 142 c 0
 404 230 302 264 214 310 c 0
 139 349 77 409 77 500 c 0
 77 594 154 673 269 673 c 0
 318 673 354 663 392 648 c 0
 401 644 402 635 402 624 c 0
 402 613 401 601 401 590 c 0
 401 565 402 534 402 527 c 0
 402 509 400 501 392 501 c 0
 376 501 371 522 368 536 c 0
 352 604 302 629 253 629 c 0
 197 629 136 596 136 514 c 0xdc
EndSplineSet
EndChar

StartChar: T
Encoding: 84 84 45
Width: 633
VWidth: 0
Flags: W
HStem: -8 43<177.578 271.245> 0 38<365.137 484.861> 604 52<99.7942 280.374> 604 44<372.56 553.167> 664 20G<584.5 602>
VStem: 24 39<501.347 564.87> 276 89<39.826 325.292> 284 82<325.292 603.863>
LayerCount: 3
Fore
SplineSet
365 68 m 0x1e
 365 40 365 40 401 38 c 2x5e
 449 35 l 2x8e
 469 34 485 32 485 17 c 0
 485 3 473 -1 456 -1 c 0
 449 -1 371 0 320 0 c 0x4e
 268 0 222 -8 196 -8 c 0
 185 -8 176 -2 176 7 c 0
 176 27 210 30 234 35 c 0
 257 40 274 40 276 78 c 0x8e
 282 191 284 437 284 571 c 0
 284 604 278 604 267 604 c 0
 212 604 154 604 112 589 c 0
 89 580 73 555 63 534 c 0
 54 516 49 500 39 500 c 0
 25 500 24 509 24 516 c 0
 24 549 36 587 50 640 c 0
 52 647 58 686 76 686 c 0
 97 686 97 656 110 656 c 0xad
 260 655 558 648 558 648 c 2
 584 648 575 684 594 684 c 0
 610 684 614 663 614 647 c 0
 614 636 612 611 612 603 c 0
 612 586 618 539 618 527 c 0
 618 520 616 504 604 504 c 0
 572 504 594 566 547 585 c 0
 517 597 404 604 393 604 c 0
 367 604 366 597 366 565 c 0x1d
 366 421 365 182 365 68 c 0x1e
EndSplineSet
EndChar

StartChar: U
Encoding: 85 85 46
Width: 714
VWidth: 0
Flags: W
HStem: -25 52<260.528 484.98> 619 45<189.478 295.562 441.124 553.394 621.938 700.858>
VStem: 96 91<105.961 615.385> 569 44<123.151 604.607>
LayerCount: 3
Fore
SplineSet
476 664 m 0
 490 664 521 659 575 659 c 0
 605 659 672 666 676 666 c 0
 695 666 702 659 702 648 c 0
 702 628 682 622 658 619 c 0
 621 614 621 609 619 562 c 0
 616 486 617 387 613 313 c 0
 610 251 608 191 599 145 c 0
 575 24 493 -25 353 -25 c 0
 251 -25 96 -5 96 188 c 0
 96 322 97 455 98 589 c 0
 98 636 12 604 12 640 c 0
 12 650 23 660 42 660 c 0
 62 660 90 657 123 657 c 0
 169 657 242 663 260 663 c 0
 284 663 296 657 296 637 c 0
 296 617 272 616 228 616 c 0
 192 616 186 615 186 568 c 2
 187 243 l 2
 187 115 211 27 361 27 c 0
 458 27 521 43 550 130 c 0
 564 171 569 228 569 306 c 2
 569 420 l 2
 569 458 567 497 566 531 c 0
 564 602 555 613 497 619 c 2
 487 620 l 2
 460 622 441 622 441 643 c 0
 441 659 457 664 476 664 c 0
EndSplineSet
EndChar

StartChar: V
Encoding: 86 86 47
Width: 727
VWidth: 0
Flags: W
HStem: -12 21G<351.5 362.5> 622 41<20.2573 104.917 216.048 321.44 618.356 717.21>
DStem2: 232 545 114 584 0.364013 -0.931394<-58.5979 430>
LayerCount: 3
Fore
SplineSet
322 648 m 0
 322 637 317 630 302 628 c 0
 282 625 216 633 216 602 c 0
 216 595 221 575 232 545 c 0
 268 447 341 251 378 159 c 0
 382 150 386 145 390 145 c 0
 394 145 398 149 402 159 c 0
 437 241 565 572 565 604 c 0
 565 642 460 615 460 645 c 0
 460 664 476 669 495 669 c 0
 524 669 550 665 584 665 c 0
 662 665 676 666 689 666 c 0
 707 666 718 662 718 647 c 0
 718 631 696 628 678 626 c 0
 640 622 623 625 602 567 c 0
 569 473 409 92 381 13 c 0
 374 -7 366 -12 359 -12 c 0
 344 -12 337 12 327 39 c 0
 314 76 301 113 287 148 c 2
 114 584 l 2
 104 610 91 617 78 622 c 0
 60 629 20 624 20 645 c 0
 20 662 60 663 70 663 c 2
 165 663 l 2
 191 663 274 668 300 668 c 0
 313 668 322 661 322 648 c 0
EndSplineSet
EndChar

StartChar: W
Encoding: 87 87 48
Width: 931
VWidth: 0
Flags: W
HStem: -10 21G<308.5 319 590 601.5> 625 38<15.105 81.6094 482.067 555.254 846.687 905.503>
VStem: 785 121<592 654.5>
DStem2: 645 188 625 23 0.37052 0.928824<-32.9362 427.739>
LayerCount: 3
Fore
SplineSet
256 650 m 0
 256 613 184 646 184 606 c 0
 184 596 280 315 329 195 c 0
 337 177 343 165 350 165 c 0
 355 165 360 172 367 189 c 0
 381 222 411 292 439 366 c 0
 446 384 450 392 450 400 c 0
 450 407 447 416 440 434 c 2
 385 590 l 2
 366 645 303 618 303 650 c 0
 303 664 314 667 324 667 c 0
 354 667 388 662 438 662 c 0
 500 662 511 665 530 665 c 0
 543 665 556 662 556 649 c 0
 556 635 543 632 526 631 c 0
 505 630 482 627 482 604 c 0
 482 574 568 306 610 185 c 0
 616 168 621 160 626 160 c 0
 632 160 637 170 645 188 c 0
 670 241 718 377 751 482 c 0
 770 543 785 575 785 609 c 0
 785 639 692 619 692 649 c 0
 692 659 700 668 718 668 c 0
 747 668 768 666 802 666 c 2
 867 666 l 2
 894 666 906 661 906 648 c 0
 906 638 899 632 889 630 c 0
 850 622 849 616 836 580 c 0
 782 430 661 117 625 23 c 0
 614 -5 606 -10 597 -10 c 0
 583 -10 564 57 561 66 c 2
 490 284 l 2
 479 317 473 333 467 333 c 0
 461 333 455 317 442 286 c 0
 396 173 353 57 340 19 c 0
 331 -7 323 -7 315 -7 c 0
 302 -7 294 17 285 49 c 0
 275 83 263 113 259 124 c 2
 92 588 l 2
 81 619 57 622 39 625 c 0
 23 627 15 634 15 646 c 0
 15 655 24 663 40 663 c 2
 141 663 l 2
 167 663 205 666 231 666 c 0
 244 666 256 663 256 650 c 0
EndSplineSet
EndChar

StartChar: X
Encoding: 88 88 49
Width: 741
VWidth: 0
Flags: W
HStem: 1 36<8.07834 107.104 182.007 276.907 622.998 717.438> 623 39<40.0163 127.618 425.093 504.87 583.048 690.977>
DStem2: 146 100 200 89 0.592618 0.805484<-14.5685 77.6744 228.604 260.349 593.107 615.955> 346 447 297 354 0.566529 -0.824042<-184.947 42.8636 134.946 400.865>
LayerCount: 3
Fore
SplineSet
297 354 m 2
 128 606 l 2
 120 618 102 619 90 620 c 2
 76 621 l 2
 42 623 40 631 40 644 c 0
 40 659 57 664 74 664 c 0
 106 664 148 662 206 662 c 2
 298 662 l 2
 315 662 325 655 325 645 c 0
 325 609 250 635 250 606 c 0
 250 594 255 589 346 447 c 0
 360 425 367 414 374 414 c 0
 381 414 388 425 404 447 c 2
 494 573 l 2
 500 582 505 592 505 601 c 0
 505 612 498 621 481 622 c 0
 457 624 425 618 425 641 c 0
 425 654 438 659 459 659 c 2
 560 659 l 2
 595 659 646 662 660 662 c 0
 674 662 691 658 691 642 c 0
 691 620 659 625 636 623 c 0
 592 619 596 620 572 591 c 0
 528 537 437 422 407 388 c 0
 403 383 401 377 401 372 c 0
 401 363 406 354 412 345 c 2
 577 111 l 2
 613 60 626 42 670 38 c 0
 698 35 718 37 718 14 c 0
 718 -3 686 -4 673 -4 c 0
 645 -4 575 -1 531 -1 c 0
 513 -1 461 -3 431 -3 c 0
 410 -3 404 4 404 18 c 0
 404 53 486 16 486 56 c 0
 486 70 396 204 363 258 c 0
 354 273 347 280 341 280 c 0
 334 280 327 273 317 258 c 0
 284 210 226 122 200 89 c 0
 189 75 182 64 182 55 c 0
 182 43 191 38 221 37 c 0
 245 36 277 36 277 18 c 0
 277 4 246 1 220 1 c 0
 208 1 185 2 152 2 c 0
 117 2 78 0 45 0 c 0
 23 0 8 7 8 18 c 0
 8 38 35 38 64 41 c 0
 109 45 115 60 146 100 c 2
 304 303 l 2
 312 312 315 318 315 323 c 0
 315 330 309 337 297 354 c 2
EndSplineSet
EndChar

StartChar: Y
Encoding: 89 89 50
Width: 703
VWidth: 0
Flags: W
HStem: -2 45<178.556 305.434 397.083 513.964> 620 44<18.0109 103.969 222.02 316.939 414.035 511.988 583.887 687.936>
VStem: 306 89<46.3319 341.438>
LayerCount: 3
Fore
SplineSet
317 643 m 0
 317 625 296 623 273 621 c 0
 250 619 222 621 222 605 c 0
 222 589 307 470 346 398 c 0
 361 370 373 355 380 355 c 0
 386 355 392 368 405 393 c 0
 438 455 512 593 512 601 c 0
 512 614 496 619 481 620 c 0
 460 622 414 617 414 641 c 0
 414 654 426 664 447 664 c 0
 496 664 536 661 560 661 c 0
 582 661 634 665 652 665 c 0
 666 665 688 661 688 643 c 0
 688 621 664 621 642 618 c 0
 599 612 599 617 575 588 c 0
 539 544 435 371 400 317 c 0
 396 311 395 300 395 290 c 2
 395 87 l 2
 395 43 409 47 444 43 c 0
 473 40 514 45 514 21 c 0
 514 11 509 -2 473 -2 c 0
 448 -2 435 1 350 1 c 0
 272 1 212 -5 199 -5 c 0
 189 -5 177 -4 177 13 c 0
 177 30 192 38 218 40 c 2
 257 43 l 2
 284 45 306 43 306 72 c 2
 308 283 l 2
 308 311 302 317 291 333 c 2
 101 603 l 2
 92 615 74 619 62 620 c 0
 22 624 18 631 18 642 c 0
 18 658 33 664 50 664 c 0
 82 664 107 662 165 662 c 0
 200 662 240 663 275 663 c 0
 300 663 317 657 317 643 c 0
EndSplineSet
EndChar

StartChar: Z
Encoding: 90 90 51
Width: 702
VWidth: 0
Flags: W
HStem: 0 64<418.1 592.356> -0 44<183.005 317.9> 613 45<140.641 506.996> 663 20G<98.5 113.5>
DStem2: 43 32 188 66 0.638018 0.770022<107.913 732.533>
LayerCount: 3
Fore
SplineSet
43 32 m 2x70
 503 588 l 2
 506 591 507 596 507 599 c 0
 507 607 501 613 490 613 c 2
 279 610 l 2
 175 609 114 603 78 558 c 0
 65 542 59 530 49 530 c 0
 37 530 37 539 37 541 c 0
 38 571 56 596 75 642 c 0
 82 658 93 683 104 683 c 0
 123 683 109 651 140 651 c 0
 153 651 210 653 240 653 c 2
 628 658 l 2
 649 658 658 651 658 641 c 0
 658 636 656 631 652 626 c 2
 188 66 l 2
 185 63 183 59 183 56 c 0
 183 49 190 44 201 44 c 2x70
 535 64 l 2xb0
 586 67 609 93 630 147 c 0
 642 176 652 176 659 176 c 0
 664 176 670 170 670 159 c 0
 670 132 655 105 652 56 c 2
 650 24 l 2
 649 14 644 0 632 0 c 2
 65 -0 l 2
 43 0 33 4 33 12 c 0
 33 17 36 24 43 32 c 2x70
EndSplineSet
EndChar

StartChar: comma
Encoding: 44 44 53
Width: 266
VWidth: 0
Flags: HW
HStem: -166 21<53.026 79.794> 0 83<63.875 142.045>
VStem: 144 57<-89.1365 1.36545>
AnchorPoint: "l;o" 20 210 basechar 0
AnchorPoint: "l;bl" 0 10 basechar 0
AnchorPoint: "r;bl" 266 10 basechar 0
AnchorPoint: "r;o" 266 210 basechar 0
AnchorPoint: "l;lo" 0 -200 basechar 0
AnchorPoint: "r;lo" 266 -200 basechar 0
LayerCount: 3
Fore
SplineSet
90 0 m 0
 67 0 55 19 55 37 c 0
 55 59 77 83 112 83 c 0
 155 83 201 60 201 -20 c 0
 201 -106 109 -166 64 -166 c 0
 58 -166 53 -161 53 -156 c 0
 53 -151 57 -147 61 -145 c 0
 101 -128 144 -91 144 -33 c 0
 144 -24 137 2 119 2 c 0
 113 2 107 0 90 0 c 0
EndSplineSet
EndChar

StartChar: period
Encoding: 46 46 54
Width: 215
VWidth: 0
Flags: HW
HStem: -13 94<63.394 142.606>
VStem: 56 94<-5.60614 73.6061>
AnchorPoint: "l;bl" 0 10 basechar 0
AnchorPoint: "l;o" 20 210 basechar 0
AnchorPoint: "r;bl" 215 10 basechar 0
AnchorPoint: "r;o" 215 210 basechar 0
LayerCount: 3
Fore
SplineSet
56 34 m 0
 56 60 77 81 103 81 c 0
 129 81 150 60 150 34 c 0
 150 8 129 -13 103 -13 c 0
 77 -13 56 8 56 34 c 0
EndSplineSet
EndChar

StartChar: hyphen
Encoding: 45 45 55
Width: 334
VWidth: 250
Flags: HW
HStem: 187 54<36.1974 297.692>
VStem: 36 262<187 241>
AnchorPoint: "l;bl" 20 10 basechar 0
AnchorPoint: "l;x" 20 380 basechar 0
AnchorPoint: "l;o" 0 210 basechar 0
AnchorPoint: "r;bl" 314 10 basechar 0
AnchorPoint: "r;x" 314 380 basechar 0
AnchorPoint: "r;o" 334 210 basechar 0
LayerCount: 3
Fore
SplineSet
52 241 m 2
 282 241 l 2
 294 241 298 227 298 213 c 0
 298 199 294 187 282 187 c 2
 52 187 l 2
 39 187 36 200 36 215 c 0
 36 229 40 241 52 241 c 2
EndSplineSet
EndChar

StartChar: endash
Encoding: 8211 8211 56
Width: 470
VWidth: 250
Flags: HW
HStem: 233 92<88.347 165.653>
VStem: 81 92<240.347 317.653>
AnchorPoint: "r;o" 470 210 basechar 0
AnchorPoint: "r;x" 450 380 basechar 0
AnchorPoint: "r;bl" 450 10 basechar 0
AnchorPoint: "l;o" 0 210 basechar 0
AnchorPoint: "l;x" 20 380 basechar 0
AnchorPoint: "l;bl" 20 10 basechar 0
LayerCount: 3
Fore
SplineSet
19 239 m 2
 451 239 l 2
 463 239 465 227 465 213 c 0
 465 199 463 189 451 189 c 2
 19 189 l 2
 6 189 5 200 5 215 c 0
 5 229 7 239 19 239 c 2
EndSplineSet
EndChar

StartChar: emdash
Encoding: 8212 8212 57
Width: 770
VWidth: 250
Flags: HW
HStem: 189 50<5.04044 764.918>
AnchorPoint: "l;bl" 20 10 basechar 0
AnchorPoint: "l;x" 20 380 basechar 0
AnchorPoint: "l;o" 0 210 basechar 0
AnchorPoint: "r;bl" 750 10 basechar 0
AnchorPoint: "r;x" 750 380 basechar 0
AnchorPoint: "r;o" 770 210 basechar 0
LayerCount: 3
Fore
SplineSet
19 239 m 2
 751 239 l 2
 763 239 765 227 765 213 c 0
 765 199 763 189 751 189 c 2
 19 189 l 2
 6 189 5 200 5 215 c 0
 5 229 7 239 19 239 c 2
EndSplineSet
EndChar

StartChar: semicolon
Encoding: 59 59 58
Width: 266
VWidth: 250
Flags: HW
HStem: -166 21<53.026 79.7943> 0 83<63.875 142.045> 305 94<103.394 182.606>
VStem: 96 94<312.394 391.606> 144 57<-89.1365 1.36545>
AnchorPoint: "l;bl" 0 10 basechar 0
AnchorPoint: "l;x" 0 380 basechar 0
AnchorPoint: "l;o" 0 210 basechar 0
AnchorPoint: "l;lo" 0 -200 basechar 0
AnchorPoint: "r;bl" 266 10 basechar 0
AnchorPoint: "r;x" 266 380 basechar 0
AnchorPoint: "r;o" 266 210 basechar 0
AnchorPoint: "r;lo" 266 -200 basechar 0
LayerCount: 3
Fore
SplineSet
90 0 m 0xe8
 67 0 55 19 55 37 c 0
 55 59 77 83 112 83 c 0
 155 83 201 60 201 -20 c 0
 201 -106 109 -166 64 -166 c 0
 58 -166 53 -161 53 -156 c 0
 53 -151 57 -147 61 -145 c 0
 101 -128 144 -91 144 -33 c 0
 144 -24 137 2 119 2 c 0
 113 2 107 0 90 0 c 0xe8
96 352 m 0xf0
 96 378 117 399 143 399 c 0
 169 399 190 378 190 352 c 0
 190 326 169 305 143 305 c 0
 117 305 96 326 96 352 c 0xf0
EndSplineSet
EndChar

StartChar: colon
Encoding: 58 58 59
Width: 215
VWidth: 250
Flags: HW
HStem: -13 94<63.394 142.606> 305 94<63.394 142.606>
VStem: 56 94<-5.60614 73.6061 312.394 391.606>
AnchorPoint: "l;bl" 0 10 basechar 0
AnchorPoint: "l;x" 0 380 basechar 0
AnchorPoint: "l;o" 0 210 basechar 0
AnchorPoint: "r;bl" 215 10 basechar 0
AnchorPoint: "r;x" 215 380 basechar 0
AnchorPoint: "r;o" 215 210 basechar 0
LayerCount: 3
Fore
SplineSet
56 352 m 0
 56 378 77 399 103 399 c 0
 129 399 150 378 150 352 c 0
 150 326 129 305 103 305 c 0
 77 305 56 326 56 352 c 0
56 34 m 0
 56 60 77 81 103 81 c 0
 129 81 150 60 150 34 c 0
 150 8 129 -13 103 -13 c 0
 77 -13 56 8 56 34 c 0
EndSplineSet
EndChar

StartChar: question
Encoding: 63 63 60
Width: 383
VWidth: 250
Flags: HW
HStem: -13 94<147.394 226.606> 240 57<147.891 241.488> 564 38<125.5 222.643>
VStem: 103 43<154.582 274.5> 140 94<-5.60614 73.6061> 285 58<336.494 474.015>
AnchorPoint: "l;bl" 0 10 basechar 0
AnchorPoint: "l;x" 0 380 basechar 0
AnchorPoint: "l;hi" 0 660 basechar 0
AnchorPoint: "l;o" 0 210 basechar 0
AnchorPoint: "l;lo" 0 -200 basechar 0
AnchorPoint: "r;bl" 383 10 basechar 0
AnchorPoint: "r;x" 383 380 basechar 0
AnchorPoint: "r;hi" 383 660 basechar 0
AnchorPoint: "r;o" 383 210 basechar 0
AnchorPoint: "r;lo" 383 -200 basechar 0
LayerCount: 3
Fore
SplineSet
80 555 m 0xf4
 80 585 109 602 142 602 c 0
 268 602 343 485 343 366 c 0
 343 274 266 240 160 240 c 0
 150 240 146 221 146 211 c 0
 146 177 157 152 163 137 c 0
 167 128 166 120 155 120 c 0
 151 120 147 121 144 124 c 0
 111 159 103 226 103 258 c 0
 103 291 130 293 168 297 c 0
 267 308 285 350 285 410 c 0
 285 490 233 564 191 564 c 0
 155 564 139 521 113 521 c 0
 96 521 80 535 80 555 c 0xf4
140 34 m 0xec
 140 60 161 81 187 81 c 0
 213 81 234 60 234 34 c 0
 234 8 213 -13 187 -13 c 0
 161 -13 140 8 140 34 c 0xec
EndSplineSet
EndChar

StartChar: exclam
Encoding: 33 33 61
Width: 258
VWidth: 0
Flags: HW
HStem: -13 94<107.394 186.606> 629 20G<135.5 170>
VStem: 100 94<-5.60614 73.6061 378.341 613.375> 128 36<147.091 377.897>
AnchorPoint: "l;bl" 0 10 basechar 0
AnchorPoint: "l;x" 0 380 basechar 0
AnchorPoint: "l;hi" 0 660 basechar 0
AnchorPoint: "l;o" 0 210 basechar 0
AnchorPoint: "l;lo" 0 -200 basechar 0
AnchorPoint: "r;bl" 258 10 basechar 0
AnchorPoint: "r;x" 258 380 basechar 0
AnchorPoint: "r;hi" 258 660 basechar 0
AnchorPoint: "r;o" 258 210 basechar 0
AnchorPoint: "r;lo" 258 -200 basechar 0
LayerCount: 3
Fore
SplineSet
106 563 m 2xd0
 106 609 112 649 159 649 c 0
 181 649 198 634 198 614 c 0
 198 601 190 566 189 554 c 0
 174 429 169 363 164 177 c 0
 164 161 163 147 148 147 c 0
 132 147 129 160 128 177 c 0
 119 320 106 464 106 546 c 2
 106 563 l 2xd0
100 34 m 0xe0
 100 60 121 81 147 81 c 0
 173 81 194 60 194 34 c 0
 194 8 173 -13 147 -13 c 0
 121 -13 100 8 100 34 c 0xe0
EndSplineSet
EndChar

StartChar: parenleft
Encoding: 40 40 62
Width: 418
VWidth: 250
Flags: W
VStem: 37 47<124.317 387.117>
LayerCount: 3
Fore
SplineSet
84 266 m 0
 84 64 205 -91 392 -158 c 0
 399 -160 401 -167 401 -175 c 0
 401 -188 394 -205 383 -205 c 0
 373 -205 326 -180 307 -170 c 0
 126 -78 37 76 37 271 c 0
 37 487 195 646 341 708 c 0
 365 718 380 726 394 726 c 0
 403 726 408 710 408 696 c 0
 408 679 394 676 379 671 c 0
 258 629 84 480 84 266 c 0
EndSplineSet
EndChar

StartChar: parenright
Encoding: 41 41 63
Width: 418
VWidth: 250
Flags: W
VStem: 334 47<124.317 387.117>
LayerCount: 3
Fore
SplineSet
334 266 m 0
 334 480 160 629 39 671 c 0
 24 676 10 679 10 696 c 0
 10 710 15 726 24 726 c 0
 38 726 53 718 77 708 c 0
 223 646 381 487 381 271 c 0
 381 76 292 -78 111 -170 c 0
 92 -180 45 -205 35 -205 c 0
 24 -205 17 -188 17 -175 c 0
 17 -167 19 -160 26 -158 c 0
 213 -91 334 64 334 266 c 0
EndSplineSet
EndChar

StartChar: quotedbl
Encoding: 34 34 64
Width: 319
VWidth: 250
Flags: W
HStem: 497 191<75.7188 113.195 205.719 243.195>
VStem: 58 73<504.086 685.561> 75 39<497.009 642.421> 188 73<504.086 685.561> 205 39<497.009 642.421>
LayerCount: 3
Fore
SplineSet
261 643 m 0x90
 261 632 244 534 244 525 c 0
 244 509 239 497 225 497 c 0
 208 497 205 510 205 525 c 0x88
 205 534 188 636 188 643 c 0
 188 664 193 688 225 688 c 0
 257 688 261 663 261 643 c 0x90
131 643 m 0xc0
 131 632 114 534 114 525 c 0
 114 509 109 497 95 497 c 0
 78 497 75 510 75 525 c 0xa0
 75 534 58 636 58 643 c 0
 58 664 63 688 95 688 c 0
 127 688 131 663 131 643 c 0xc0
EndSplineSet
EndChar

StartChar: numbersign
Encoding: 35 35 65
Width: 476
VWidth: 488
Flags: HW
HStem: 121 42<30.0001 121.999 172.451 277.913 327.028 445.98> 305 42<30.0175 147.998 199.001 303 354.001 445.89>
VStem: 122 42<-35.5 120.692> 129 43<163 295.956> 148 42<168.29 305> 157 42<347 497.532> 278 42<-34.4978 121> 312 42<347 504.36>
AnchorPoint: "l;bl" 0 10 basechar 0
AnchorPoint: "l;x" 0 380 basechar 0
AnchorPoint: "l;hi" 0 660 basechar 0
AnchorPoint: "l;o" 0 210 basechar 0
AnchorPoint: "l;lo" 0 -200 basechar 0
AnchorPoint: "r;bl" 476 10 basechar 0
AnchorPoint: "r;x" 476 380 basechar 0
AnchorPoint: "r;hi" 476 660 basechar 0
AnchorPoint: "r;o" 476 210 basechar 0
AnchorPoint: "r;lo" 476 -200 basechar 0
LayerCount: 3
Fore
SplineSet
30 139 m 0xe2
 30 140 30 141 30 142 c 0
 30 156 30 163 44 163 c 2
 126 163 l 2
 128 163 129 163 129 165 c 0xd0
 135 210 148 295 148 300 c 0
 148 304 145 305 141 305 c 2
 46 305 l 2
 36 305 30 307 30 325 c 0
 30 339 33 347 46 347 c 2
 148 347 l 2xc8
 154 347 157 349 157 354 c 0
 183 540 180 538 183 543 c 0
 187 549 191 550 205 550 c 0
 212 550 225 549 225 538 c 0
 225 532 199 358 199 352 c 0
 199 348 200 347 205 347 c 2
 303 347 l 2
 307 347 311 348 312 354 c 0
 338 540 337 540 340 544 c 0
 344 550 351 550 363 550 c 0
 371 550 379 550 379 540 c 0
 379 531 354 361 354 352 c 0xc5
 354 349 355 347 359 347 c 2
 428 347 l 2
 442 347 446 339 446 322 c 0
 446 307 440 305 431 305 c 2
 350 305 l 2
 346 305 346 302 345 299 c 1
 339 256 327 173 327 169 c 0
 327 165 329 163 334 163 c 2
 429 163 l 2
 439 163 446 161 446 143 c 0
 446 128 442 121 429 121 c 2
 331 121 l 2
 322 121 321 117 320 111 c 0
 295 -66 302 -66 274 -66 c 0
 260 -66 255 -60 255 -53 c 0
 255 -47 278 110 278 115 c 0
 278 120 275 121 271 121 c 2
 205 121 l 2
 166 121 165 119 164 113 c 0
 141 -58 141 -55 140 -58 c 0
 136 -64 131 -66 117 -66 c 0
 108 -66 99 -63 99 -53 c 0
 99 -47 122 109 122 114 c 0
 122 119 120 121 114 121 c 2
 44 121 l 2
 31 121 30 129 30 139 c 0xe2
172 168 m 0
 172 164 175 163 180 163 c 2
 275 163 l 2
 279 163 284 163 285 170 c 0
 298 265 303 292 303 300 c 0
 303 303 303 305 297 305 c 2
 199 305 l 2xc4
 193 305 191 302 190 298 c 0xc8
 184 255 172 173 172 168 c 0
EndSplineSet
EndChar

StartChar: dollar
Encoding: 36 36 66
Width: 538
VWidth: 250
Flags: W
HStem: 3 33<186.327 254.922> 625 35<196.229 246.858 293.435 331.669>
VStem: 47 93<69.0447 171.679> 84 65<450.563 573.058> 250 43<666.111 702.985> 258 33<-144.982 2.04275 40.204 278.195 401.002 610> 258 33<-118 2.04275 40.204 278.195 401.002 627.998> 424 57<102.691 213.843>
LayerCount: 3
Fore
SplineSet
320 666 m 0xd9
 372 665 473 635 473 564 c 0
 473 543 451 527 430 527 c 0
 378 527 370 593 332 619 c 0
 325 624 314 627 305 629 c 0
 290 632 287 624 287 610 c 2
 289 397 l 2
 289 384 292 385 318 374 c 0
 372 351 481 322 481 188 c 0
 481 67 377 23 324 9 c 0
 296 2 290 7 290 -6 c 2
 294 -118 l 2
 294 -139 287 -145 275 -145 c 0
 263 -145 255 -137 255 -116 c 2
 255 -15 l 2
 255 8 253 0 214 3 c 0
 154 8 47 40 47 134 c 0
 47 160 67 180 92 180 c 0
 125 180 139 152 140 121 c 0
 140 112 141 100 144 93 c 0
 156 60 208 37 244 36 c 0
 255 36 258 40 258 49 c 2
 258 277 l 2xe5
 258 303 254 296 211 316 c 0
 158 341 84 384 84 481 c 0
 84 599 169 649 215 660 c 0
 236 665 248 664 250 684 c 0
 251 697 261 703 272 703 c 0
 283 703 293 698 293 686 c 0
 293 667 296 666 320 666 c 0xd9
291 268 m 2
 291 58 l 2
 291 45 293 40 302 40 c 0
 306 40 312 42 320 44 c 0
 359 56 424 82 424 164 c 0
 424 217 365 251 326 269 c 0
 310 277 301 279 297 279 c 0
 293 279 291 277 291 268 c 2
230 625 m 0
 200 616 149 587 149 510 c 0xd1
 149 454 193 427 223 411 c 0
 237 404 244 401 248 401 c 0
 251 401 253 404 253 410 c 2
 252 620 l 2
 252 626 250 628 247 628 c 0
 244 628 239 628 230 625 c 0
EndSplineSet
EndChar

StartChar: percent
Encoding: 37 37 67
Width: 888
VWidth: 250
Flags: HW
HStem: -165 24<562.82 628.299> 159 27<203.787 278.515> 209 28<607.134 684.818> 452 26<429.425 537.549> 524 30<247.913 329.8>
VStem: 97 72<218.849 396.036> 357 65<308.427 463.999> 450 74<-98.1559 75.8928> 714 66<-12.2791 185.513>
LayerCount: 3
Fore
SplineSet
649 209 m 0
 569 209 524 80 524 -23 c 0
 524 -74 545 -141 596 -141 c 0
 668 -141 714 15 714 121 c 0
 714 180 681 209 649 209 c 0
665 237 m 0
 738 237 780 181 780 92 c 0
 780 -30 687 -165 580 -165 c 0
 503 -165 450 -95 450 -14 c 0
 450 68 532 237 665 237 c 0
291 524 m 0
 211 524 169 398 169 295 c 0
 169 251 187 186 238 186 c 0
 324 186 357 333 357 439 c 0
 357 498 323 524 291 524 c 0
420 443 m 0
 422 433 422 421 422 410 c 0
 422 288 328 159 221 159 c 0
 144 159 97 223 97 304 c 0
 97 386 174 554 307 554 c 0
 339 554 364 540 385 523 c 0
 415 497 442 478 481 478 c 0
 561 478 645 565 695 613 c 0
 698 616 710 631 721 631 c 0
 731 631 735 626 735 619 c 0
 735 616 734 613 729 605 c 0
 719 589 693 559 664 513 c 2
 352 27 l 1
 266 -109 l 1
 239 -154 219 -182 205 -182 c 0
 185 -182 173 -170 173 -154 c 0
 173 -136 192 -115 219 -75 c 0
 312 63 520 346 600 478 c 0
 603 484 609 495 600 495 c 0
 593 495 532 452 484 452 c 0
 466 452 452 454 439 459 c 0
 429 462 426 464 422 464 c 0
 419 464 418 463 418 459 c 0
 418 455 419 452 420 443 c 0
EndSplineSet
EndChar

StartChar: ampersand
Encoding: 38 38 68
Width: 698
VWidth: 250
Flags: W
HStem: -9 48<153.942 281.892> -1 44<580.538 677.253> 122 90<394.859 428.847> 367 32<553.427 635.681> 549 30<212.568 299.947>
VStem: 30 72<90.7836 225.849> 125 62<418.736 528.484> 331 60<418.383 527.017>
DStem2: 251 369 220 291 0.739379 -0.673289<5.624 13.4146 33.2625 231.999 275.132 376.725> 366 125 375 99 0.532451 0.846461<-57.15 14.3457 103.562 253.522>
LayerCount: 3
Fore
SplineSet
263 579 m 0xbf
 338 579 391 541 391 478 c 0
 391 415 324 373 290 356 c 0
 279 350 274 348 274 345 c 0
 274 342 279 338 287 331 c 2
 404 225 l 2
 413 217 418 212 422 212 c 0
 426 212 430 217 437 227 c 0
 450 246 471 282 483 311 c 0
 489 326 493 337 493 345 c 0
 493 355 488 363 473 371 c 0
 468 374 464 378 464 385 c 0
 464 397 484 399 498 399 c 0
 508 399 524 398 537 398 c 0
 560 398 590 402 610 402 c 0
 626 402 636 398 636 387 c 0
 636 372 627 368 612 367 c 0
 590 365 571 362 557 354 c 0
 533 341 478 243 457 210 c 0
 451 200 448 194 448 189 c 0
 448 184 451 180 458 173 c 0
 487 146 556 81 609 43 c 0
 630 27 680 36 680 14 c 0
 680 6 672 -1 657 -1 c 0x7f
 625 -1 587 1 551 1 c 0
 503 1 464 0 437 0 c 0
 424 0 414 3 414 16 c 0
 414 37 468 30 468 47 c 0
 468 63 446 85 428 101 c 2
 415 112 l 2
 407 119 402 122 398 122 c 0
 392 122 388 115 375 99 c 0
 344 59 293 -9 192 -9 c 0
 88 -9 30 50 30 153 c 0
 30 243 118 294 162 314 c 0
 180 322 187 322 187 325 c 0
 187 328 179 333 168 349 c 0
 150 376 125 420 125 459 c 0
 125 545 196 579 263 579 c 0xbf
179 295 m 0
 149 275 102 233 102 163 c 0
 102 91 153 39 228 39 c 0xbf
 286 39 342 96 366 125 c 0
 374 135 377 139 377 142 c 0
 377 146 372 148 364 156 c 2
 220 291 l 2
 210 300 206 306 201 306 c 0
 197 306 191 303 179 295 c 0
257 549 m 0
 211 549 187 515 187 475 c 0
 187 435 231 388 251 369 c 0
 257 364 259 361 262 361 c 0
 265 361 268 364 275 369 c 0
 295 384 331 414 331 474 c 0
 331 515 299 549 257 549 c 0
EndSplineSet
EndChar

StartChar: quotesingle
Encoding: 39 39 69
Width: 189
VWidth: 250
Flags: W
HStem: 497 191<75.7188 113.195>
VStem: 58 73<504.086 685.561> 75 39<497.009 642.421>
LayerCount: 3
Fore
SplineSet
131 643 m 0xc0
 131 632 114 534 114 525 c 0
 114 509 109 497 95 497 c 0
 78 497 75 510 75 525 c 0xa0
 75 534 58 636 58 643 c 0
 58 664 63 688 95 688 c 0
 127 688 131 663 131 643 c 0xc0
EndSplineSet
Layer: 2
SplineSet
85 677 m 0
 122 677 145 649 145 609 c 0
 145 560 85 507 69 507 c 0
 64 507 58 510 58 518 c 0
 58 529 71 541 79 554 c 0
 82 560 85 566 85 572 c 0
 85 587 73 595 62 603 c 0
 49 612 44 626 44 639 c 0
 44 659 58 677 85 677 c 0
EndSplineSet
EndChar

StartChar: zero
Encoding: 48 48 70
Width: 488
VWidth: 250
Flags: W
HStem: -17 32<169.726 319.009> 364 32<161.061 303.694>
VStem: 25 42<104.316 275.015> 402 42<94.6229 273.905>
LayerCount: 3
Fore
SplineSet
25 185 m 0
 25 316 115 396 246 396 c 0
 364 396 444 311 444 199 c 0
 444 67 368 -17 233 -17 c 0
 111 -17 25 60 25 185 c 0
247 15 m 0
 346 15 402 87 402 182 c 0
 402 280 345 364 227 364 c 0
 146 364 67 297 67 187 c 0
 67 88 143 15 247 15 c 0
EndSplineSet
EndChar

StartChar: one
Encoding: 49 49 71
Width: 398
VWidth: 250
Flags: W
HStem: 0 30<55.0044 153.148 231.121 330.954> 370 32<63.026 153.657 234.903 326.992>
VStem: 154 74<32.1976 365.363>
LayerCount: 3
Fore
SplineSet
314 402 m 0
 321 402 327 394 327 386 c 0
 327 373 316 370 306 370 c 2
 294 370 l 2
 267 370 233 370 233 346 c 0
 233 222 228 106 228 59 c 0
 228 40 240 31 262 31 c 0
 281 31 300 30 314 30 c 0
 324 30 331 24 331 14 c 0
 331 4 326 -2 316 -2 c 0
 262 -2 245 0 188 0 c 2
 69 0 l 2
 59 0 55 7 55 15 c 0
 55 22 61 30 69 30 c 2
 117 30 l 2
 137 30 153 31 154 50 c 0
 158 168 160 223 160 340 c 0
 160 370 103 370 74 374 c 0
 66 375 63 377 63 387 c 0
 63 397 72 400 78 400 c 0
 88 400 163 398 192 398 c 0
 223 398 306 402 314 402 c 0
EndSplineSet
EndChar

StartChar: two
Encoding: 50 50 72
Width: 500
VWidth: 250
Flags: W
HStem: 0 60<177.004 470.975> 357 59<115.483 218.587>
VStem: 244 64<220.612 331.638>
LayerCount: 3
Fore
SplineSet
244 267 m 0
 244 328 207 357 165 357 c 0
 136 357 110 343 94 325 c 0
 88 318 81 305 72 305 c 0
 65 305 60 309 60 318 c 0
 60 369 130 416 192 416 c 0
 248 416 308 394 308 309 c 0
 308 208 216 113 187 83 c 0
 182 77 177 71 177 67 c 0
 177 62 183 60 194 60 c 0
 205 60 361 63 454 63 c 0
 470 63 471 54 471 39 c 2
 471 24 l 2
 471 9 468 1 456 1 c 0
 410 0 369 0 329 0 c 2
 94 0 l 2
 83 0 76 1 76 9 c 0
 76 17 80 22 87 28 c 0
 126 61 145 70 179 116 c 0
 214 164 244 216 244 267 c 0
EndSplineSet
EndChar

StartChar: three
Encoding: 51 51 73
Width: 414
VWidth: 250
Flags: W
HStem: -251 33<36.1138 155.938> 361 55<81.4099 192.499>
VStem: 222 69<232.745 332.125> 269 74<-101.557 48.0234>
LayerCount: 3
Fore
SplineSet
36 -233 m 0xd0
 36 -221 46 -218 52 -218 c 0
 61 -218 72 -219 87 -219 c 0
 183 -219 269 -126 269 -21 c 0xd0
 269 78 198 80 122 80 c 0
 113 80 109 85 109 91 c 0
 109 96 112 102 118 106 c 0
 179 144 222 206 222 284 c 0
 222 329 177 361 130 361 c 0
 112 361 93 356 77 347 c 0
 72 344 63 337 55 337 c 0
 48 337 42 342 42 348 c 0
 42 370 68 386 79 393 c 0
 111 413 149 416 168 416 c 0
 231 416 291 382 291 317 c 0xe0
 291 232 235 185 206 156 c 0
 199 149 195 145 195 142 c 0
 195 138 201 136 216 133 c 0
 296 119 343 66 343 -12 c 0
 343 -138 223 -251 80 -251 c 0
 62 -251 36 -250 36 -233 c 0xd0
EndSplineSet
EndChar

StartChar: four
Encoding: 52 52 74
Width: 516
VWidth: 250
Flags: W
HStem: -240 21G<312.5 320.5> 9 49<113.004 307.871 364.003 459>
VStem: 50 63<14.5 71.5> 308 64<194.537 321.996> 308 56<-236.51 8.9375 60.1094 294.395>
LayerCount: 3
Fore
SplineSet
285 309 m 0xf0
 224 233 174 161 120 85 c 0
 116 79 113 74 113 69 c 0
 113 62 119 58 133 58 c 2
 280 58 l 2
 306 58 308 61 308 83 c 2xe8
 308 304 l 2
 308 317 305 322 301 322 c 0
 297 322 291 317 285 309 c 0xf0
364 75 m 0
 364 61 368 60 384 60 c 2
 445 60 l 2
 457 60 459 55 459 44 c 2
 459 27 l 2
 459 15 457 9 440 9 c 2
 384 9 l 2
 367 9 364 9 364 -6 c 2xe8
 363 -214 l 2
 363 -230 357 -234 346 -236 c 0
 334 -238 324 -240 317 -240 c 0
 308 -240 304 -237 304 -223 c 2
 310 -8 l 2
 310 8 306 9 293 9 c 2
 74 7 l 2
 56 7 50 11 50 18 c 0
 50 28 62 44 72 59 c 0
 170 210 250 320 350 438 c 0
 355 443 357 444 361 444 c 0
 367 444 372 441 372 425 c 0xf0
 372 312 367 188 364 75 c 0
EndSplineSet
EndChar

StartChar: five
Encoding: 53 53 75
Width: 418
VWidth: 250
Flags: W
HStem: -251 21<71.0346 133.215> 330 65<157.094 304.25> 347 64<137.281 289.631>
VStem: 58 49<262.712 291.71> 268 66<-104.671 50.2402>
DStem2: 66 266 107 287 0.45253 0.891749<25.7409 113.372>
LayerCount: 3
Fore
SplineSet
90 -251 m 0xb8
 83 -251 71 -250 71 -240 c 0
 71 -235 74 -230 80 -230 c 0
 180 -230 268 -132 268 -33 c 0
 268 65 171 175 70 229 c 0
 62 233 58 237 58 246 c 0
 58 252 63 261 66 266 c 0
 80 290 96 326 114 364 c 0
 122 380 128 390 134 400 c 0
 139 409 149 411 157 411 c 0xb8
 159 411 162 410 164 410 c 0
 203 404 262 396 274 395 c 0
 282 394 282 394 290 394 c 0
 295 394 306 395 310 395 c 0
 321 395 323 386 318 377 c 2
 296 336 l 2
 293 331 288 329 282 330 c 0xd8
 245 333 185 344 162 347 c 0
 149 349 143 350 137 342 c 0
 121 318 117 309 107 287 c 0
 104 280 109 273 115 270 c 0
 203 221 334 111 334 -13 c 0
 334 -153 204 -251 90 -251 c 0xb8
EndSplineSet
EndChar

StartChar: six
Encoding: 54 54 76
Width: 505
VWidth: 250
Flags: W
HStem: -23 33<236.939 350.72> 272 54<210.169 341.176> 589 36<386.658 462.749>
VStem: 80 62<120.086 348.002> 412 43<72.3302 200.838>
LayerCount: 3
Fore
SplineSet
271 -23 m 0
 147 -23 80 86 80 235 c 0
 80 424 237 592 411 622 c 0
 418 623 428 625 438 625 c 0
 451 625 463 622 463 609 c 0
 463 598 449 593 433 589 c 0
 284 551 142 395 142 244 c 0
 142 130 188 10 301 10 c 0
 356 10 412 62 412 129 c 0
 412 213 340 272 262 272 c 0
 215 272 201 260 176 248 c 0
 171 246 168 255 171 263 c 0
 185 302 246 326 287 326 c 0
 372 326 455 280 455 170 c 0
 455 52 381 -23 271 -23 c 0
EndSplineSet
EndChar

StartChar: seven
Encoding: 55 55 77
Width: 463
VWidth: 250
Flags: W
HStem: 326 64<41.3984 364.995>
LayerCount: 3
Fore
SplineSet
64 390 m 2
 398 392 l 2
 417 392 419 385 419 376 c 0
 419 371 411 356 407 348 c 0
 299 136 212 -44 138 -204 c 0
 133 -215 121 -220 109 -220 c 0
 96 -220 83 -214 83 -204 c 0
 83 -202 83 -199 85 -196 c 2
 359 309 l 2
 363 316 365 321 365 324 c 0
 365 330 358 331 345 331 c 2
 63 326 l 2
 52 326 50 307 37 307 c 0
 29 307 27 313 27 320 c 0
 27 325 33 344 35 351 c 2
 43 373 l 2
 47 386 58 390 64 390 c 2
EndSplineSet
EndChar

StartChar: eight
Encoding: 56 56 78
Width: 448
VWidth: 250
Flags: W
HStem: -19 33<165.789 282.871> 592 36<146.225 262.316>
VStem: 48 45<80.7684 219.187> 50 54<431.445 547.973> 315 51<413.09 544.57> 338 48<67.3321 187.839>
LayerCount: 3
Fore
SplineSet
386 154 m 0xc4
 386 57 318 -19 210 -19 c 0
 120 -19 48 51 48 142 c 0xe4
 48 222 111 271 141 293 c 0
 151 300 156 302 156 303 c 0
 156 304 152 306 143 312 c 0
 114 333 50 386 50 468 c 0
 50 558 124 628 214 628 c 0
 296 628 366 576 366 490 c 0xd8
 366 414 308 364 277 344 c 0
 266 337 261 333 261 331 c 0
 261 328 268 325 281 317 c 0
 318 296 386 252 386 154 c 0xc4
153 280 m 0
 130 261 93 212 93 156 c 0
 93 84 150 14 223 14 c 0
 292 14 338 67 338 128 c 0
 338 202 246 250 187 286 c 0
 179 291 175 293 172 293 c 0
 168 293 164 289 153 280 c 0
315 478 m 0xd8
 315 537 269 592 202 592 c 0
 140 592 104 544 104 488 c 0
 104 426 184 375 222 354 c 0
 234 347 238 343 242 343 c 0
 245 343 248 347 257 354 c 0
 277 370 315 410 315 478 c 0xd8
EndSplineSet
EndChar

StartChar: nine
Encoding: 57 57 79
Width: 462
VWidth: 250
Flags: W
HStem: -251 26<68.2285 116.881> 61 48<191.734 305.189> 389 26<178.051 274.637>
VStem: 66 48<188.181 324.198> 380 54<49.5173 275.954>
LayerCount: 3
Fore
SplineSet
236 415 m 0
 375 415 434 293 434 135 c 0
 434 6 365 -124 259 -195 c 0
 210 -229 131 -249 80 -251 c 0
 73 -251 68 -245 68 -240 c 0
 68 -231 78 -228 86 -225 c 0
 141 -207 206 -167 259 -112 c 0
 329 -40 380 67 380 163 c 0
 380 268 326 389 224 389 c 0
 161 389 114 328 114 265 c 0
 114 182 186 109 261 109 c 0
 300 109 325 122 339 139 c 0
 343 144 353 149 353 136 c 0
 353 128 347 115 337 106 c 0
 300 71 258 61 216 61 c 0
 132 61 66 129 66 234 c 0
 66 334 134 415 236 415 c 0
EndSplineSet
EndChar

StartChar: ae
Encoding: 230 230 80
Width: 648
VWidth: 0
Flags: HW
HStem: -16 67<371.977 518.903> -11 54<74 176.77> 280 29<349.007 503.47> 290 28<418.5 529.044> 387 41<148.792 241.858 393.401 521.461>
VStem: 26 79<19 97.3829 269.303 323.174> 257 92<309.001 353.689> 257 71<92.2598 188.994 211.845 280.156> 534 82<305 353.724>
AnchorPoint: "r;o" 648 210 basechar 0
AnchorPoint: "r;x" 638 380 basechar 0
AnchorPoint: "r;bl" 638 10 basechar 0
AnchorPoint: "l;o" 0 210 basechar 0
AnchorPoint: "l;x" 10 380 basechar 0
AnchorPoint: "l;bl" 0 10 basechar 0
LayerCount: 3
Fore
SplineSet
238 189 m 0x4c80
 224 189 105 142 105 76 c 0
 105 53 125 43 147 43 c 0
 172 43 186 53 204 64 c 0
 230 79 254 101 254 132 c 2
 254 170 l 2
 254 181 246 189 238 189 c 0x4c80
31 278 m 0
 31 337 132 428 233 428 c 0
 270 428 312 404 325 359 c 1
 368 404 419 423 462 423 c 0
 506 423 541 411 570 382 c 0
 597 355 616 323 616 310 c 0
 616 300 608 291 590 290 c 2x5e80
 345 280 l 2
 334 280 328 262 328 244 c 2
 328 148 l 2
 328 91 382 51 453 51 c 0
 520 51 571 90 590 99 c 0
 599 103 611 99 606 83 c 0
 598 59 530 -16 426 -16 c 0xad80
 344 -16 300 10 272 57 c 0
 264 70 260 76 255 76 c 0
 250 76 244 70 234 59 c 0
 202 22 161 -11 87 -11 c 0
 61 -11 26 1 26 37 c 0
 26 124 154 189 240 213 c 0
 253 217 257 216 257 235 c 2x4d80
 257 319 l 2x4e80
 257 359 235 387 195 387 c 0
 149 387 120 357 111 328 c 0
 101 297 100 265 64 265 c 0
 48 265 31 267 31 278 c 0
361 342 m 0
 354 332 349 322 349 317 c 0
 349 310 359 309 366 309 c 0x2e80
 370 309 415 313 457 318 c 0
 497 323 534 323 534 341 c 0
 534 370 488 393 457 393 c 0
 419 393 378 367 361 342 c 0
EndSplineSet
EndChar

StartChar: oe
Encoding: 339 339 81
Width: 768
VWidth: 0
Flags: HW
HStem: -21 30<195.575 311.484> 400 28<191.666 296.92>
VStem: 35 75<101.641 307.85> 388 82<104.009 303.043>
AnchorPoint: "l;bl" 20 10 basechar 0
AnchorPoint: "l;x" 20 380 basechar 0
AnchorPoint: "l;o" 0 210 basechar 0
AnchorPoint: "r;bl" 758 10 basechar 0
AnchorPoint: "r;x" 758 380 basechar 0
AnchorPoint: "r;o" 768 210 basechar 0
LayerCount: 3
Fore
SplineSet
736 310 m 0,21,22
481 342 m 0,0,1
 474 332 469 322 469 317 c 0,2,3
 469 310 479 309 486 309 c 0,4,5
 507 309 654 322 654 341 c 0,6,7
 654 370 608 394 577 394 c 0,8,9
 539 394 498 367 481 342 c 0,0,1
243 13 m 0,10,11
 355 13 380 132 380 203 c 0,12,13
 380 309 312 398 238 398 c 0,14,15
 162 398 109 337 109 232 c 0,16,17
 109 112 153 13 243 13 c 0,10,11
238 -21 m 0,18,19
 135 -21 28 46 28 201 c 0,20,21
 28 334 121 428 250 428 c 0,22,23
 322 428 387 400 426 341 c 1,24,25
 461 391 513 426 582 426 c 0,26,27
 630 426 664 410 693 382 c 0,28,29
 719 357 736 326 736 313 c 0,30,31
 736 303 728 293 710 292 c 2,32,-1
 465 282 l 2,33,34
 454 282 452 262 452 244 c 0,35,36
 452 148 481 49 599 49 c 0,37,38
 664 49 691 88 710 97 c 0,39,40
 719 101 726 90 724 83 c 0,41,42
 714 55 666 -19 562 -19 c 0,43,44
 493 -19 446 13 416 59 c 1,45,46
 372 3 304 -21 238 -21 c 0,18,19
EndSplineSet
EndChar

StartChar: OE
Encoding: 338 338 82
Width: 968
VWidth: 0
Flags: W
HStem: -13 41<277.846 465.402> 0 45<567.523 830.049> 330 32<563.134 762.601> 618 38<272.518 454.388 558.823 830.943>
VStem: 44 83<199.081 461.734> 478 85<45.3674 330> 478 80<362.005 606.525> 784 29<244.812 319.351 384.121 469.991> 851 38<516.285 597.979> 896 38<130 161.716>
LayerCount: 3
Fore
SplineSet
814 354 m 0xbbc0
 814 320 816 261 816 261 c 2
 816 253 814 244 806 244 c 0
 794 244 788 247 786 269 c 0
 783 298 782 329 739 329 c 2
 584 330 l 2
 564 330 563 322 563 311 c 0
 563 231 567 211 567 80 c 0
 567 60 569 45 588 45 c 2
 700 47 l 2
 779 48 863 59 890 117 c 2
 896 130 l 2
 902 143 905 162 917 162 c 0
 932 162 934 146 934 133 c 0
 934 110 925 80 922 62 c 0
 918 39 917 27 916 18 c 0
 915 9 905 2 897 2 c 0
 853 2 805 4 762 4 c 2
 508 0 l 2x7dc0
 464 -1 389 -13 368 -13 c 0
 188 -13 44 80 44 324 c 0
 44 546 175 656 401 656 c 0
 426 656 461 654 493 654 c 0
 567 654 743 662 846 662 c 0
 862 662 876 655 877 643 c 2
 889 540 l 2
 891 523 882 516 873 516 c 0
 854 516 855 541 851 557 c 0
 838 607 817 621 749 621 c 2
 601 619 l 2
 582 619 558 616 558 593 c 2
 558 405 l 2
 558 369 561 362 578 362 c 0
 620 362 662 365 704 367 c 0
 767 370 777 378 782 422 c 2
 784 441 l 2
 786 457 787 470 798 470 c 0
 806 470 813 468 813 455 c 0
 813 437 814 384 814 354 c 0xbbc0
375 28 m 0xbdc0
 398 28 474 38 476 61 c 0
 478 80 478 149 478 231 c 0
 478 362 476 525 476 571 c 0
 476 618 423 618 376 618 c 0
 352 618 329 617 310 613 c 0
 197 590 127 471 127 339 c 0
 127 132 234 28 375 28 c 0xbdc0
EndSplineSet
EndChar

StartChar: AE
Encoding: 198 198 83
Width: 957
VWidth: 0
Flags: W
HStem: 0 45<553.801 702.234> 0 34<17.2884 85.5042 154.655 241.979 378.106 460.016> 266 40<313.991 463.958> 329 33<547.105 759.346> 617 43<370.073 443.992 546.149 826.305>
VStem: 17 137<6.5 65> 462 91<45.4098 271.438 306 308.654> 466 80<85.9908 271.625 306 328.873 362.005 552.995> 775 31<218.508 315.843 418 455.719> 848 40<500.307 593.032> 890 42<126 165.238>
LayerCount: 3
Fore
SplineSet
314 326 m 0x3de0
 314 324 301 306 316 306 c 2
 452 306 l 2
 460 306 464 318 464 319 c 0
 464 325 466 463 466 527 c 0
 466 546 464 553 461 553 c 0
 457 553 451 544 443 532 c 0
 402 470 314 331 314 326 c 0x3de0
462 58 m 0x7ee0
 464 74 466 175 466 248 c 0
 466 259 465 272 456 272 c 2
 289 266 l 2
 275 266 263 252 251 229 c 0
 218 168 154 74 154 56 c 0
 154 44 163 35 180 34 c 2
 206 32 l 2
 225 31 243 26 243 12 c 0
 243 2 236 -6 218 -6 c 0
 197 -6 166 0 136 0 c 0
 118 0 60 -5 46 -5 c 0
 28 -5 17 -1 17 14 c 0
 17 27 28 29 48 35 c 0
 87 46 91 49 125 103 c 2
 442 599 l 2
 443 601 444 602 444 604 c 0
 444 612 433 620 417 620 c 2
 398 620 l 2
 380 620 370 626 370 640 c 0
 370 655 381 660 406 660 c 0
 422 660 446 658 506 658 c 0
 580 658 750 660 853 660 c 0
 869 660 883 653 883 641 c 0
 885 603 888 566 888 528 c 0
 888 511 880 500 871 500 c 0
 850 500 852 527 848 543 c 0
 836 591 832 617 738 617 c 0
 683 617 627 617 573 615 c 0
 559 614 546 610 546 593 c 2
 546 405 l 2
 546 369 548 362 565 362 c 0
 607 362 662 365 704 367 c 0
 767 370 764 375 774 418 c 2
 779 440 l 2
 781 451 786 456 793 456 c 0
 801 456 808 450 808 438 c 0
 808 420 806 380 806 350 c 2
 806 235 l 2
 806 227 804 218 796 218 c 0
 785 218 776 222 775 243 c 2
 773 273 l 2
 771 300 765 329 727 329 c 2
 572 329 l 2
 552 329 546 322 546 311 c 0x7de0
 546 261 553 209 553 80 c 0
 553 60 557 45 576 45 c 2xbee0
 688 47 l 2
 767 48 854 48 884 113 c 2
 890 126 l 2
 896 139 904 168 918 168 c 0
 928 168 932 159 932 148 c 0
 932 134 924 83 921 62 c 0
 917 39 916 27 915 18 c 0
 914 9 904 2 896 2 c 0
 762 0 630 0 496 0 c 2
 390 0 l 2
 382 0 378 7 378 15 c 0
 378 23 382 31 391 32 c 0
 431 36 460 35 462 58 c 0x7ee0
EndSplineSet
EndChar

StartChar: quoteright
Encoding: 8217 8217 84
Width: 221
VWidth: 0
Flags: HW
HStem: 507 170<80 117.693>
VStem: 101 60<552.662 629>
AnchorPoint: "l;o" 0 210 basechar 0
AnchorPoint: "l;hi" 0 660 basechar 0
AnchorPoint: "l;x" 0 380 basechar 0
AnchorPoint: "r;o" 221 210 basechar 0
AnchorPoint: "r;hi" 221 660 basechar 0
AnchorPoint: "r;x" 221 380 basechar 0
LayerCount: 3
Fore
SplineSet
91 677 m 0
 128 677 151 649 151 609 c 0
 151 560 91 507 75 507 c 0
 70 507 64 510 64 518 c 0
 64 529 77 541 85 554 c 0
 88 560 91 566 91 572 c 0
 91 587 79 595 68 603 c 0
 55 612 50 626 50 639 c 0
 50 659 64 677 91 677 c 0
EndSplineSet
EndChar

StartChar: quoteleft
Encoding: 8216 8216 85
Width: 221
VWidth: 0
Flags: HW
HStem: 507 170<83.3073 121>
VStem: 40 60<555 631.338>
AnchorPoint: "l;x" 0 380 basechar 0
AnchorPoint: "l;hi" 0 660 basechar 0
AnchorPoint: "l;o" 0 210 basechar 0
AnchorPoint: "r;x" 221 380 basechar 0
AnchorPoint: "r;hi" 221 660 basechar 0
AnchorPoint: "r;o" 221 210 basechar 0
LayerCount: 3
Fore
SplineSet
100 507 m 0
 63 507 40 535 40 575 c 0
 40 624 100 677 116 677 c 0
 121 677 127 674 127 666 c 0
 127 655 114 643 106 630 c 0
 103 624 100 618 100 612 c 0
 100 597 112 589 123 581 c 0
 136 572 141 558 141 545 c 0
 141 525 127 507 100 507 c 0
EndSplineSet
EndChar

StartChar: quotedblleft
Encoding: 8220 8220 86
Width: 371
VWidth: 0
Flags: HW
HStem: 507 170<83.3073 121 233.307 271>
VStem: 40 60<555 631.338> 190 60<555 631.338>
AnchorPoint: "l;x" 0 380 basechar 0
AnchorPoint: "l;hi" 0 660 basechar 0
AnchorPoint: "l;o" 0 210 basechar 0
AnchorPoint: "r;x" 371 380 basechar 0
AnchorPoint: "r;hi" 371 660 basechar 0
AnchorPoint: "r;o" 371 210 basechar 0
LayerCount: 3
Fore
SplineSet
250 507 m 0
 213 507 190 535 190 575 c 0
 190 624 250 677 266 677 c 0
 271 677 277 674 277 666 c 0
 277 655 264 643 256 630 c 0
 253 624 250 618 250 612 c 0
 250 597 262 589 273 581 c 0
 286 572 291 558 291 545 c 0
 291 525 277 507 250 507 c 0
100 507 m 0
 63 507 40 535 40 575 c 0
 40 624 100 677 116 677 c 0
 121 677 127 674 127 666 c 0
 127 655 114 643 106 630 c 0
 103 624 100 618 100 612 c 0
 100 597 112 589 123 581 c 0
 136 572 141 558 141 545 c 0
 141 525 127 507 100 507 c 0
EndSplineSet
EndChar

StartChar: quotedblright
Encoding: 8221 8221 87
Width: 371
VWidth: 0
Flags: HW
HStem: 507 170<70 107.693 220 257.693>
VStem: 91 60<552.662 629> 241 60<552.662 629>
AnchorPoint: "l;x" 0 380 basechar 0
AnchorPoint: "l;hi" 0 660 basechar 0
AnchorPoint: "l;o" 0 210 basechar 0
AnchorPoint: "r;x" 371 380 basechar 0
AnchorPoint: "r;hi" 371 660 basechar 0
AnchorPoint: "r;o" 371 210 basechar 0
LayerCount: 3
Fore
SplineSet
91 677 m 0
 128 677 151 649 151 609 c 0
 151 560 91 507 75 507 c 0
 70 507 64 510 64 518 c 0
 64 529 77 541 85 554 c 0
 88 560 91 566 91 572 c 0
 91 587 79 595 68 603 c 0
 55 612 50 626 50 639 c 0
 50 659 64 677 91 677 c 0
241 677 m 0
 278 677 301 649 301 609 c 0
 301 560 241 507 225 507 c 0
 220 507 214 510 214 518 c 0
 214 529 227 541 235 554 c 0
 238 560 241 566 241 572 c 0
 241 587 229 595 218 603 c 0
 205 612 200 626 200 639 c 0
 200 659 214 677 241 677 c 0
EndSplineSet
EndChar

StartChar: bracketleft
Encoding: 91 91 88
Width: 314
VWidth: 0
Flags: W
LayerCount: 3
Fore
SplineSet
54 688 m 2xd0
 54 698 56 702 73 702 c 2
 264 700 l 2
 275 700 277 699 277 683 c 0
 277 666 272 666 260 666 c 2
 108 668 l 2
 94 668 94 666 94 647 c 0xd0
 92 494 91 332 88 185 c 0
 85 77 86 0 83 -140 c 0
 83 -150 85 -155 109 -155 c 2
 246 -155 l 2
 262 -155 265 -156 265 -170 c 0
 265 -186 262 -189 249 -189 c 2
 80 -187 l 2
 52 -187 44 -186 44 -167 c 0xe0
 44 -158 48 10 50 100 c 0
 53 272 54 442 54 614 c 2
 54 688 l 2xd0
EndSplineSet
EndChar

StartChar: bracketright
Encoding: 93 93 89
Width: 278
VWidth: 0
Flags: W
HStem: -188 34<11.0073 193.997> 668 32<21.0061 202.998>
VStem: 194 40<-154.953 71.8013> 203 38<452.186 667.768>
LayerCount: 3
Fore
SplineSet
234 -175 m 2xe0
 234 -185 232 -189 215 -189 c 2
 32 -188 l 2
 21 -188 11 -187 11 -171 c 0
 11 -154 19 -154 31 -154 c 2
 180 -155 l 2
 194 -155 194 -153 194 -134 c 0xe0
 197 100 200 448 203 654 c 0
 203 663 200 668 177 668 c 2
 42 668 l 2
 26 668 21 669 21 683 c 0
 21 699 23 702 36 702 c 2
 206 700 l 2
 234 700 241 699 241 680 c 0xd0
 241 671 238 503 236 413 c 0
 234 284 234 154 234 25 c 2
 234 -175 l 2xe0
EndSplineSet
EndChar

StartChar: sterling
Encoding: 163 163 90
Width: 632
VWidth: 0
Flags: W
HStem: -262 54<467.677 550.372> -251 21G<35.5 62.5> 221 32<121.035 202.936 289.399 384.75> 643 34<412.734 489.586>
VStem: 214 75<254.141 356.845> 501 94<548.51 634.228> 568 24<-200.694 -133.141>
DStem2: 214 275 293 285 0.249232 0.968444<8.31365 321.691>
LayerCount: 3
Fore
SplineSet
468 677 m 0x7a
 531 677 595 649 595 577 c 0
 595 553 586 531 556 531 c 0
 516 531 514 573 501 608 c 0x7c
 494 628 478 643 452 643 c 0
 444 643 436 641 429 638 c 0
 407 628 388 603 371 569 c 0
 350 527 336 470 324 415 c 0
 313 364 304 329 293 285 c 0
 291 278 289 270 289 264 c 0
 289 257 291 254 302 254 c 2
 365 255 l 2
 378 255 385 254 385 242 c 0
 385 228 381 224 369 224 c 2
 297 223 l 2
 280 223 277 221 273 202 c 0
 262 141 240 72 219 7 c 0
 206 -31 179 -91 179 -98 c 0
 179 -106 187 -105 210 -109 c 0
 223 -111 232 -112 255 -118 c 0
 350 -142 519 -208 534 -208 c 0
 567 -208 568 -179 568 -160 c 0
 568 -115 494 -114 494 -70 c 0
 494 -47 513 -35 533 -35 c 0
 547 -35 562 -41 571 -51 c 0
 583 -64 592 -86 592 -116 c 2
 592 -150 l 2
 592 -182 590 -207 570 -226 c 0
 545 -249 505 -262 480 -262 c 0xba
 335 -262 261 -127 186 -127 c 0
 151 -127 150 -151 134 -176 c 0
 113 -210 79 -251 46 -251 c 0
 25 -251 17 -240 17 -228 c 0
 17 -220 20 -210 26 -202 c 0
 43 -177 77 -147 99 -134 c 0
 121 -121 142 -110 146 -98 c 0
 162 -50 172 14 181 72 c 0
 190 127 199 177 202 202 c 0
 202 206 203 209 203 212 c 0
 203 220 200 221 186 221 c 2
 150 221 l 2
 133 221 121 222 121 238 c 0
 121 251 132 253 146 253 c 2
 197 252 l 2
 212 252 211 256 214 275 c 0
 217 298 224 336 232 375 c 0
 256 501 313 677 468 677 c 0x7a
EndSplineSet
EndChar

StartChar: c_t
Encoding: 65536 -1 91
Width: 689
VWidth: 250
Flags: HW
HStem: -17 61<175.333 304.592 536.999 618.35> 341 87<280.678 340.379> 350 34<404.402 458.605> 355 48<538.285 674.223> 596 39<310.7 468.751>
VStem: 31 71<123.475 294.604> 213 36<438.266 539.604> 453 72<52.8065 333.002> 463 64<133.101 351.957> 514 36<438.366 553.988>
AnchorPoint: "r;o" 689 210 basechar 0
AnchorPoint: "r;x" 684 380 basechar 0
AnchorPoint: "r;bl" 689 10 basechar 0
AnchorPoint: "l;o" 0 210 basechar 0
AnchorPoint: "l;x" 20 380 basechar 0
AnchorPoint: "l;bl" 20 10 basechar 0
LayerCount: 3
Fore
SplineSet
448 352 m 0xce80
 439 352 425 350 420 350 c 0
 409 350 403 354 403 361 c 0
 403 374 419 379 429 384 c 0xae80
 482 410 514 442 514 507 c 0
 514 558 459 596 403 596 c 0
 294 596 249 540 249 485 c 0
 249 450 259 436 292 428 c 0
 333 418 356 400 356 374 c 0
 356 357 334 341 324 341 c 0xce40
 272 341 283 392 233 392 c 0
 145 392 102 307 102 217 c 0
 102 122 160 44 249 44 c 0
 268 44 288 48 308 55 c 0
 338 67 356 86 364 99 c 0
 366 101 369 102 372 102 c 0
 379 102 382 98 382 89 c 0
 382 56 305 -17 227 -17 c 0
 124 -17 31 58 31 192 c 0
 31 301 102 407 213 429 c 0
 227 432 229 434 229 438 c 0
 229 442 224 448 220 459 c 0
 215 471 213 485 213 501 c 0
 213 580 291 635 399 635 c 0
 491 635 550 597 550 504 c 0
 550 479 547 453 542 431 c 0
 540 421 538 414 538 409 c 0
 538 402 551 403 561 403 c 0
 592 405 644 409 655 409 c 0
 670 409 675 398 675 389 c 0
 675 362 666 355 652 355 c 2
 548 355 l 2x9e40
 535 355 527 351 527 341 c 0xce80
 526 272 525 196 525 130 c 0
 525 72 536 42 582 42 c 0
 627 42 656 75 667 75 c 0
 673 75 675 71 675 65 c 0
 675 35 617 -11 553 -11 c 0
 472 -11 453 33 453 103 c 0xcf
 453 227 463 293 463 330 c 0
 463 348 460 352 448 352 c 0xce80
EndSplineSet
Ligature2: "'dlig' Discretionary Ligatures in Latin lookup 2 subtable" c t
LCarets2: 1 0 
EndChar

StartChar: s_t
Encoding: 65537 -1 92
Width: 643
VWidth: 250
Flags: HW
HStem: -12 35<108.255 213.551> -11 53<491.796 583.73> 350 34<358.402 410.987> 355 48<492.285 628.223> 391 32<112.562 183.763> 596 39<261.586 424.798>
VStem: 26 32<75.8526 132.872> 40 53<288.278 378.081> 165 32<440.794 535.636> 241 60<47.233 135.847> 253 24<308.892 348.39> 407 72<52.8065 333.002> 417 64<133.101 351.957> 473 36<445.303 551.372>
AnchorPoint: "r;bl" 643 10 basechar 0
AnchorPoint: "r;x" 638 380 basechar 0
AnchorPoint: "r;o" 643 210 basechar 0
AnchorPoint: "l;o" 0 210 basechar 0
AnchorPoint: "l;x" 5 380 basechar 0
AnchorPoint: "l;bl" 0 10 basechar 0
LayerCount: 3
Fore
SplineSet
165 501 m 0xadc0
 165 580 245 635 353 635 c 0
 440 635 509 597 509 504 c 0xadc4
 509 479 501 453 496 431 c 0
 494 421 492 414 492 409 c 0
 492 402 505 403 515 403 c 0
 546 405 598 409 609 409 c 0
 624 409 629 398 629 389 c 0
 629 362 620 355 606 355 c 2
 502 355 l 2
 489 355 481 351 481 341 c 0x1488
 480 272 479 196 479 130 c 0
 479 72 490 42 536 42 c 0
 581 42 610 75 621 75 c 0
 627 75 629 71 629 65 c 0
 629 35 571 -11 507 -11 c 0
 426 -11 407 33 407 103 c 0x5490
 407 227 417 293 417 330 c 0x5488
 417 348 414 352 402 352 c 0
 393 352 379 350 374 350 c 0
 363 350 357 354 357 361 c 0
 357 374 373 379 383 384 c 0
 436 410 473 450 473 507 c 0
 473 558 413 596 357 596 c 0
 248 596 197 540 197 485 c 0
 197 450 220 417 253 408 c 0
 273 403 278 398 278 383 c 0
 278 369 277 346 277 332 c 0
 277 315 273 308 268 308 c 0
 263 308 258 315 253 326 c 0
 239 362 207 391 158 391 c 0
 117 391 93 367 93 335 c 0x6da4
 93 293 133 269 182 244 c 0
 240 214 301 187 301 118 c 0
 301 51 252 -12 150 -12 c 0
 135 -12 91 -6 72 1 c 0
 50 9 34 23 33 35 c 0
 31 62 26 104 26 112 c 0xaec0
 26 126 32 133 40 133 c 0xad80
 48 133 53 129 58 112 c 0xae80
 75 49 123 23 169 23 c 0
 207 23 241 56 241 96 c 0
 241 136 185 160 131 189 c 0
 82 215 40 251 40 307 c 0
 40 379 82 423 170 423 c 0
 180 423 185 423 185 428 c 0
 185 432 182 439 177 449 c 0
 172 460 165 476 165 501 c 0xadc0
EndSplineSet
Ligature2: "'dlig' Discretionary Ligatures in Latin lookup 2 subtable" s t
LCarets2: 1 0 
EndChar

StartChar: Q.001
Encoding: 65538 -1 93
Width: 759
VWidth: 0
Flags: W
HStem: -229 67<1081.31 1284.28> 22 26<297.214 417.457> 650 34<272.338 424.182>
VStem: 43 88<248.91 475.693> 600 92<227.322 445.521>
DStem2: 595 26 518 -33 0.934353 -0.35635<-79.5256 535.215> 1354 -128 1406 -135 0.866694 0.49884<-74.6753 61.6035>
LayerCount: 3
Fore
SplineSet
518 -33 m 0
 479 -16 441 2 390 21 c 0
 388 22 386 22 384 22 c 0
 379 22 373 20 347 20 c 0
 148 20 43 180 43 345 c 0
 43 567 197 684 384 684 c 0
 591 684 692 522 692 351 c 0
 692 185 603 120 557 86 c 0
 534 69 522 64 522 58 c 0
 522 54 546 42 595 26 c 0
 704 -10 803 -46 914 -86 c 0
 985 -111 1128 -162 1203 -162 c 0
 1258 -162 1328 -141 1354 -128 c 0
 1369 -120 1386 -109 1397 -102 c 0
 1400 -100 1404 -98 1408 -98 c 0
 1414 -98 1422 -102 1422 -111 c 0
 1422 -119 1412 -130 1406 -135 c 0
 1368 -167 1318 -195 1274 -211 c 0
 1245 -222 1205 -229 1184 -229 c 0
 1070 -229 999 -211 938 -188 c 0
 779 -129 655 -93 518 -33 c 0
356 650 m 0
 209 650 131 527 131 400 c 0
 131 249 198 48 360 48 c 0
 503 48 600 126 600 327 c 0
 600 489 486 650 356 650 c 0
EndSplineSet
EndChar

StartChar: Q.002
Encoding: 65539 -1 94
Width: 759
VWidth: 0
Flags: W
HStem: -232 40<1167.4 1326.05> 22 26<297.214 417.457> 650 34<272.338 424.182>
VStem: 43 88<248.91 475.693> 600 92<227.322 445.521>
DStem2: 595 26 518 -33 0.945236 -0.326389<-79.3669 589.641>
LayerCount: 3
Fore
SplineSet
518 -33 m 0
 479 -16 441 2 390 21 c 0
 388 22 386 22 384 22 c 0
 379 22 373 20 347 20 c 0
 148 20 43 180 43 345 c 0
 43 567 197 684 384 684 c 0
 591 684 692 522 692 351 c 0
 692 185 603 120 557 86 c 0
 534 69 522 64 522 58 c 0
 522 54 546 42 595 26 c 0
 704 -10 803 -46 914 -86 c 0
 968 -105 1092 -154 1180 -176 c 0
 1221 -186 1245 -191 1282 -192 c 0
 1324 -193 1328 -195 1328 -207 c 0
 1328 -220 1295 -226 1264 -232 c 0
 1222 -239 1170 -242 1128 -242 c 0
 1092 -242 999 -211 938 -188 c 0
 779 -129 655 -93 518 -33 c 0
356 650 m 0
 209 650 131 527 131 400 c 0
 131 249 198 48 360 48 c 0
 503 48 600 126 600 327 c 0
 600 489 486 650 356 650 c 0
EndSplineSet
EndChar

StartChar: section
Encoding: 167 167 95
Width: 449
VWidth: 0
Flags: HW
AnchorPoint: "l;bl" 40 10 basechar 0
AnchorPoint: "l;x" 0 380 basechar 0
AnchorPoint: "l;o" 0 210 basechar 0
AnchorPoint: "l;lo" 0 -200 basechar 0
AnchorPoint: "r;bl" 449 10 basechar 0
AnchorPoint: "r;x" 409 380 basechar 0
AnchorPoint: "r;hi" 409 660 basechar 0
AnchorPoint: "r;o" 449 210 basechar 0
AnchorPoint: "r;lo" 409 -200 basechar 0
LayerCount: 3
Fore
SplineSet
130 480 m 0
 115 455 95 422 95 389 c 0
 95 313 245 74 293 -2 c 0
 301 -14 307 -23 310 -23 c 0
 314 -23 318 -17 328 -2 c 0
 340 16 355 45 355 87 c 0
 355 116 325 173 293 232 c 0
 256 300 215 373 191 413 c 0
 180 431 167 458 158 478 c 0
 152 490 149 494 145 494 c 0
 141 494 136 490 130 480 c 0
301 663 m 0
 333 663 378 654 378 628 c 0
 378 602 373 591 354 591 c 0
 345 591 307 600 293 604 c 0
 281 607 273 610 257 610 c 0
 249 610 238 603 222 587 c 0
 209 574 207 565 207 556 c 2
 207 546 l 2
 207 513 291 389 350 279 c 0
 381 222 409 176 409 111 c 0
 409 68 385 8 341 -43 c 0
 319 -68 294 -96 267 -123 c 0
 221 -167 193 -205 108 -205 c 0
 77 -205 40 -195 40 -164 c 0
 40 -146 45 -132 64 -132 c 0
 75 -132 138 -142 168 -142 c 0
 188 -142 200 -140 218 -125 c 0
 240 -105 244 -96 244 -80 c 0
 244 -18 42 216 42 341 c 0
 42 429 141 555 225 631 c 0
 246 650 264 663 301 663 c 0
EndSplineSet
EndChar

StartChar: paragraph
Encoding: 182 182 96
Width: 713
VWidth: 0
Flags: HW
HStem: -181 49<235.273 427.212> -152 45<85.8535 290.705> 98 14<432 487> 583 51<575.733 702.677> 603 28<390.93 502.952 552.268 645.783>
VStem: 38 236<218.745 444.65> 494 47<-58.6562 97.9956 122.759 228.208> 505 45<368.273 601.471>
AnchorPoint: "l;bl" 0 10 basechar 0
AnchorPoint: "l;x" 0 380 basechar 0
AnchorPoint: "l;o" 0 210 basechar 0
AnchorPoint: "l;lo" 0 -200 basechar 0
AnchorPoint: "r;bl" 633 10 basechar 0
AnchorPoint: "r;x" 633 380 basechar 0
AnchorPoint: "r;hi" 713 660 basechar 0
AnchorPoint: "r;o" 633 210 basechar 0
LayerCount: 3
Fore
SplineSet
372 -181 m 0xb6
 296 -181 256 -152 147 -152 c 0
 107 -152 99 -177 66 -178 c 24
 49 -178 30 -170 30 -154 c 0
 30 -116 79 -107 123 -107 c 0x66
 205 -107 257 -132 344 -132 c 0
 454 -132 494 -59 494 54 c 2
 494 79 l 2
 494 92 493 98 487 98 c 0
 486 98 462 87 454 83 c 0
 427 72 383 52 315 52 c 0
 159 52 38 164 38 337 c 0
 38 515 191 630 379 631 c 0xae
 466 631 545 634 633 634 c 2
 660 634 l 2
 670 634 673 633 683 632 c 0
 698 630 703 620 703 609 c 0
 703 596 694 583 676 583 c 0
 646 583 632 602 573 602 c 0
 554 602 550 589 550 574 c 0x35
 546 351 547 213 541 15 c 0
 537 -87 504 -181 372 -181 c 0xb6
447 603 m 2x2d
 339 603 274 463 274 342 c 0
 274 236 313 112 432 112 c 0
 460 112 495 131 495 146 c 2
 505 579 l 2
 505 602 480 603 463 603 c 2
 447 603 l 2x2d
EndSplineSet
EndChar

StartChar: dagger
Encoding: 8224 8224 97
Width: 409
VWidth: 0
Flags: HW
HStem: 448 53<242.48 367.148> 458 38<232.625 319.951> 468 49<43.4761 180.969> 638 20G<202 215.5>
VStem: 169 67<-124.544 174.75> 181 50<234.347 457.788 511.457 657.364>
AnchorPoint: "l;bl" 0 10 basechar 0
AnchorPoint: "l;x" 0 380 basechar 0
AnchorPoint: "l;hi" 0 660 basechar 0
AnchorPoint: "l;o" 0 210 basechar 0
AnchorPoint: "l;lo" 0 -200 basechar 0
AnchorPoint: "r;bl" 409 10 basechar 0
AnchorPoint: "r;x" 409 380 basechar 0
AnchorPoint: "r;hi" 409 660 basechar 0
AnchorPoint: "r;o" 409 210 basechar 0
AnchorPoint: "r;lo" 409 -200 basechar 0
LayerCount: 3
Fore
SplineSet
187 -130 m 0x58
 172 -130 169 -116 169 -99 c 0x58
 169 -96 171 -67 171 -55 c 0
 174 61 177 274 181 448 c 0x94
 181 465 139 468 109 468 c 0
 73 468 53 453 43 453 c 0
 32 453 26 464 26 475 c 0
 26 502 58 517 83 517 c 0x34
 119 517 136 511 167 511 c 0
 177 511 181 520 181 530 c 0
 181 572 184 593 184 634 c 0
 184 647 196 658 208 658 c 0
 223 658 231 649 231 637 c 0
 231 601 230 573 230 537 c 0
 230 512 235 496 266 496 c 0x54
 324 496 336 501 358 501 c 0
 365 501 369 494 369 484 c 0
 369 453 351 448 322 448 c 0x94
 278 448 252 458 242 458 c 0
 232 458 231 448 231 439 c 2
 231 305 l 2x54
 231 189 236 95 236 -28 c 2
 236 -80 l 2
 236 -113 222 -130 187 -130 c 0x58
EndSplineSet
EndChar

StartChar: daggerdbl
Encoding: 8225 8225 98
Width: 461
VWidth: 0
Flags: HW
AnchorPoint: "l;bl" 0 10 basechar 0
AnchorPoint: "l;x" 0 380 basechar 0
AnchorPoint: "l;hi" 0 660 basechar 0
AnchorPoint: "l;o" 0 210 basechar 0
AnchorPoint: "l;lo" 0 -200 basechar 0
AnchorPoint: "r;bl" 461 10 basechar 0
AnchorPoint: "r;x" 461 380 basechar 0
AnchorPoint: "r;hi" 461 660 basechar 0
AnchorPoint: "r;o" 461 210 basechar 0
AnchorPoint: "r;lo" 461 -200 basechar 0
LayerCount: 3
Fore
SplineSet
227 530 m 2xd8
 231 521 232 518 234 518 c 0
 238 518 242 528 247 544 c 0
 257 572 269 604 287 641 c 1
 287 642 l 1
 290 647 297 651 303 651 c 0
 309 651 317 647 317 636 c 0
 317 613 274 536 262 501 c 0
 258 490 256 480 256 472 c 0xd8
 256 447 260 444 268 444 c 0
 274 444 281 447 291 451 c 0
 312 460 368 488 399 501 c 0
 406 504 412 505 417 505 c 0
 428 505 432 498 432 491 c 0
 432 481 423 475 410 469 c 0
 376 453 338 442 321 437 c 0
 302 431 302 431 302 428 c 0
 302 425 308 422 329 415 c 0
 346 409 384 399 409 388 c 0
 421 383 427 378 427 365 c 0
 427 355 419 351 410 351 c 0
 402 351 393 354 387 357 c 0
 371 365 342 380 318 390 c 0
 302 397 286 401 270 405 c 0
 268 406 265 406 263 406 c 0
 258 406 255 404 255 389 c 2
 255 305 l 2
 255 189 260 95 260 -28 c 2
 260 -80 l 2xe8
 260 -113 247 -125 212 -125 c 0xd8
 196 -125 193 -116 193 -99 c 0xe8
 193 -53 203 -9 208 398 c 0
 208 403 205 404 199 404 c 0
 191 404 181 401 177 400 c 0
 126 386 71 356 46 356 c 0
 36 356 26 362 26 373 c 0
 26 386 41 393 59 397 c 0
 85 403 142 422 146 426 c 1
 146 432 130 438 119 443 c 0
 95 453 62 469 37 480 c 0
 30 482 28 490 28 495 c 0
 28 504 35 511 45 511 c 0
 47 511 50 511 52 510 c 0
 92 493 135 471 170 456 c 0
 178 452 191 445 201 445 c 0
 208 445 212 448 212 458 c 0
 212 467 210 480 204 495 c 0
 189 532 149 613 149 634 c 0
 149 642 152 652 166 652 c 0
 175 652 182 646 184 642 c 2
 227 530 l 2xd8
EndSplineSet
EndChar

StartChar: bullet
Encoding: 8226 8226 99
Width: 306
VWidth: 0
Flags: HW
HStem: 152 146<101.5 204.5>
VStem: 80 146<173.5 276.5>
AnchorPoint: "l;bl" 0 10 basechar 0
AnchorPoint: "l;x" 0 380 basechar 0
AnchorPoint: "l;hi" 0 660 basechar 0
AnchorPoint: "l;o" 0 210 basechar 0
AnchorPoint: "l;lo" 0 -200 basechar 0
AnchorPoint: "r;bl" 306 10 basechar 0
AnchorPoint: "r;x" 306 380 basechar 0
AnchorPoint: "r;hi" 306 660 basechar 0
AnchorPoint: "r;o" 306 210 basechar 0
AnchorPoint: "r;lo" 306 -200 basechar 0
LayerCount: 3
Fore
SplineSet
80 225 m 0
 80 265 113 298 153 298 c 0
 193 298 226 265 226 225 c 0
 226 185 193 152 153 152 c 0
 113 152 80 185 80 225 c 0
EndSplineSet
EndChar

StartChar: asterisk
Encoding: 42 42 100
Width: 563
VWidth: 0
Flags: W
HStem: 386.5 19.7998<310.94 314> 420.6 73.7002<146.347 232.774> 496.5 22<288.7 325>
VStem: 231.5 40.7002<561.73 617.478> 235.9 73.6992<297.925 385.896> 244.7 39.5996<276.536 348.576> 332.7 31.8994<430.577 474.424>
LayerCount: 3
Fore
SplineSet
284.299804688 288.599609375 m 0xe6
 281 278.700195312 270 276.5 263.400390625 276.5 c 0
 255.700195312 276.5 245.799804688 282 244.700195312 293 c 0xe6
 241.400390625 319.400390625 239.200195312 343.599609375 235.900390625 370 c 0xea
 231.5 408.5 235.900390625 416.200195312 202.900390625 420.599609375 c 0
 177.599609375 423.900390625 156.700195312 426.099609375 131.400390625 431.599609375 c 0
 123.700195312 433.799804688 119.299804688 441.5 119.299804688 449.200195312 c 0
 119.299804688 455.799804688 121.5 463.5 128.099609375 465.700195312 c 0
 161.099609375 478.900390625 190.799804688 487.700195312 216.099609375 494.299804688 c 1
 217.200195312 494.299804688 l 1
 232.599609375 497.599609375 233.700195312 503.099609375 233.700195312 514.099609375 c 2
 233.700195312 528.400390625 l 2
 233.700195312 544.900390625 231.5 563.599609375 231.5 581.200195312 c 0
 231.5 594.400390625 233.700195312 617.5 251.299804688 617.5 c 0
 260.099609375 617.5 268.900390625 609.799804688 272.200195312 602.099609375 c 0xf2
 279.900390625 585.599609375 295.299804688 554.799804688 307.400390625 535 c 0
 315.099609375 522.900390625 320.599609375 518.5 325 518.5 c 0
 329.400390625 518.5 337.099609375 521.799804688 349.200195312 528.400390625 c 0
 370.099609375 538.299804688 391 551.5 417.400390625 551.5 c 0
 430.599609375 551.5 431.700195312 539.400390625 431.700195312 533.900390625 c 0
 431.700195312 519.599609375 386.599609375 481.099609375 375.599609375 470.099609375 c 0
 369 463.5 364.599609375 458 364.599609375 452.5 c 0
 364.599609375 449.200195312 367.068359375 445.047851562 371.200195312 440.400390625 c 0
 384.66796875 425.248046875 442.700195312 364.5 442.700195312 348 c 0
 442.700195312 334.799804688 432.799804688 329.299804688 420.700195312 329.299804688 c 0
 402 329.299804688 365.700195312 357.900390625 347 370 c 0
 330.5 381 321.700195312 386.5 316.200195312 386.5 c 0
 314 386.5 311.799804688 383.200195312 309.599609375 370 c 1
 309.599609375 368.900390625 l 1xea
 303 345.799804688 293.099609375 311.700195312 284.299804688 288.599609375 c 0xe6
244.700195312 450.299804688 m 0
 244.700195312 427.200195312 267.799804688 406.299804688 293.099609375 406.299804688 c 0
 314 406.299804688 332.700195312 429.400390625 332.700195312 452.5 c 0
 332.700195312 481.099609375 310.700195312 496.5 288.700195312 496.5 c 0
 266.700195312 496.5 244.700195312 481.099609375 244.700195312 450.299804688 c 0
EndSplineSet
EndChar

StartChar: at
Encoding: 64 64 101
Width: 989
VWidth: 20
Flags: HW
HStem: -201 36<330.627 580.456> -14 20G<845 852.5> 8 59<311.907 431.325> 8 38<497.5 636.238> 408 26<497.949 584.867> 640 36<459.748 709.898>
VStem: 60 43<50.4651 301.702> 253 84<77.4052 193.54> 465 82<25 125.936> 573 115<361 455.5> 892 37<266.641 473.684>
AnchorPoint: "l;bl" 0 10 basechar 0
AnchorPoint: "l;x" 0 380 basechar 0
AnchorPoint: "l;hi" 0 660 basechar 0
AnchorPoint: "l;o" 0 210 basechar 0
AnchorPoint: "l;lo" 0 -200 basechar 0
AnchorPoint: "r;bl" 989 10 basechar 0
AnchorPoint: "r;x" 989 380 basechar 0
AnchorPoint: "r;hi" 989 660 basechar 0
AnchorPoint: "r;o" 989 210 basechar 0
AnchorPoint: "r;lo" 989 -200 basechar 0
LayerCount: 3
Fore
SplineSet
892 362 m 0xdfe0
 892 556 761 640 586 640 c 0
 330 640 103 442 103 167 c 0
 103 -38 265 -165 443 -165 c 0
 614 -165 725 -102 830 -5 c 0
 831 -4 843 6 847 6 c 0
 858 6 864 -8 864 -12 c 0
 864 -17 863 -22 859 -26 c 0
 755 -138 601 -201 439 -201 c 0
 243 -201 60 -70 60 174 c 0
 60 459 323 676 583 676 c 0
 761 676 929 595 929 370 c 0
 929 130 693 8 509 8 c 0
 486 8 465 15 465 35 c 0
 465 53 473 94 473 94 c 1
 473 94 396 11 325 11 c 0
 276 11 253 60 253 114 c 0
 253 197 386 434 565 434 c 0
 582 434 600 427 604 427 c 0
 607 427 610 430 622 445 c 0
 634 460 639 465 656 465 c 0
 672 465 688 462 688 449 c 0
 688 444 686 437 684 432 c 0
 651 362 547 127 547 84 c 0
 547 64 547 46 572 46 c 0
 641 46 732 88 807 163 c 0
 859 215 892 288 892 362 c 0xdfe0
337 124 m 0
 337 95 357 67 389 67 c 0xefe0
 475 67 573 344 573 378 c 0
 573 397 552 408 533 408 c 0
 471 408 337 260 337 124 c 0
EndSplineSet
EndChar

StartChar: guillemotleft
Encoding: 171 171 102
Width: 407
VWidth: 488
Flags: HW
HStem: 84 258<181 191 331 341>
VStem: 50 84<185.699 240.301> 200 84<185.699 240.301>
AnchorPoint: "l;bl" 0 10 basechar 0
AnchorPoint: "l;x" 0 380 basechar 0
AnchorPoint: "l;o" 0 210 basechar 0
AnchorPoint: "r;bl" 407 10 basechar 0
AnchorPoint: "r;x" 407 380 basechar 0
AnchorPoint: "r;o" 407 210 basechar 0
LayerCount: 3
Fore
SplineSet
223 242 m 2
 323 336 l 2
 326 339 331 342 336 342 c 0
 341 342 347 339 347 332 c 0
 347 329 345 325 343 321 c 2
 294 236 l 2
 288 226 284 219 284 213 c 0
 284 207 288 200 294 190 c 2
 343 105 l 2
 345 101 347 97 347 94 c 0
 347 87 341 84 336 84 c 0
 331 84 326 87 323 90 c 2
 223 184 l 2
 207 199 200 206 200 213 c 0
 200 220 207 227 223 242 c 2
73 242 m 2
 173 336 l 2
 176 339 181 342 186 342 c 0
 191 342 197 339 197 332 c 0
 197 329 195 325 193 321 c 2
 144 236 l 2
 138 226 134 219 134 213 c 0
 134 207 138 200 144 190 c 2
 193 105 l 2
 195 101 197 97 197 94 c 0
 197 87 191 84 186 84 c 0
 181 84 176 87 173 90 c 2
 73 184 l 2
 57 199 50 206 50 213 c 0
 50 220 57 227 73 242 c 2
EndSplineSet
EndChar

StartChar: guillemotright
Encoding: 187 187 103
Width: 407
VWidth: 488
Flags: HW
HStem: 84 258<66 76 216 226>
VStem: 123 84<185.699 240.301> 273 84<185.699 240.301>
AnchorPoint: "l;bl" 0 10 basechar 0
AnchorPoint: "l;x" 0 380 basechar 0
AnchorPoint: "l;o" 0 210 basechar 0
AnchorPoint: "r;bl" 407 10 basechar 0
AnchorPoint: "r;x" 407 380 basechar 0
AnchorPoint: "r;o" 407 210 basechar 0
LayerCount: 3
Fore
SplineSet
184 184 m 2
 84 90 l 2
 81 87 76 84 71 84 c 0
 66 84 60 87 60 94 c 0
 60 97 62 101 64 105 c 2
 113 190 l 2
 119 200 123 207 123 213 c 0
 123 219 119 226 113 236 c 2
 64 321 l 2
 62 325 60 329 60 332 c 0
 60 339 66 342 71 342 c 0
 76 342 81 339 84 336 c 2
 184 242 l 2
 200 227 207 220 207 213 c 0
 207 206 200 199 184 184 c 2
334 184 m 2
 234 90 l 2
 231 87 226 84 221 84 c 0
 216 84 210 87 210 94 c 0
 210 97 212 101 214 105 c 2
 263 190 l 2
 269 200 273 207 273 213 c 0
 273 219 269 226 263 236 c 2
 214 321 l 2
 212 325 210 329 210 332 c 0
 210 339 216 342 221 342 c 0
 226 342 231 339 234 336 c 2
 334 242 l 2
 350 227 357 220 357 213 c 0
 357 206 350 199 334 184 c 2
EndSplineSet
EndChar

StartChar: guilsinglleft
Encoding: 8249 8249 104
Width: 257
VWidth: 488
Flags: HW
HStem: 84 258<181 191>
VStem: 50 84<185.699 240.301>
AnchorPoint: "l;bl" 0 10 basechar 0
AnchorPoint: "l;x" 0 380 basechar 0
AnchorPoint: "l;o" 0 210 basechar 0
AnchorPoint: "r;bl" 257 10 basechar 0
AnchorPoint: "r;x" 257 380 basechar 0
AnchorPoint: "r;o" 257 210 basechar 0
LayerCount: 3
Fore
SplineSet
73 242 m 2
 173 336 l 2
 176 339 181 342 186 342 c 0
 191 342 197 339 197 332 c 0
 197 329 195 325 193 321 c 2
 144 236 l 2
 138 226 134 219 134 213 c 0
 134 207 138 200 144 190 c 2
 193 105 l 2
 195 101 197 97 197 94 c 0
 197 87 191 84 186 84 c 0
 181 84 176 87 173 90 c 2
 73 184 l 2
 57 199 50 206 50 213 c 0
 50 220 57 227 73 242 c 2
EndSplineSet
EndChar

StartChar: guilsinglright
Encoding: 8250 8250 105
Width: 243
VWidth: 488
Flags: HW
HStem: 84 258<46 56>
VStem: 103 84<185.699 240.301>
AnchorPoint: "l;bl" 0 10 basechar 0
AnchorPoint: "l;x" 0 380 basechar 0
AnchorPoint: "l;o" 0 210 basechar 0
AnchorPoint: "r;bl" 243 10 basechar 0
AnchorPoint: "r;x" 243 380 basechar 0
AnchorPoint: "r;o" 243 210 basechar 0
LayerCount: 3
Fore
SplineSet
164 184 m 2
 64 90 l 2
 61 87 56 84 51 84 c 0
 46 84 40 87 40 94 c 0
 40 97 42 101 44 105 c 2
 93 190 l 2
 99 200 103 207 103 213 c 0
 103 219 99 226 93 236 c 2
 44 321 l 2
 42 325 40 329 40 332 c 0
 40 339 46 342 51 342 c 0
 56 342 61 339 64 336 c 2
 164 242 l 2
 180 227 187 220 187 213 c 0
 187 206 180 199 164 184 c 2
EndSplineSet
EndChar

StartChar: slash
Encoding: 47 47 106
Width: 416
VWidth: 488
Flags: W
DStem2: 34 -163 73 -202 0.346165 0.938174<-59.6435 929.712>
LayerCount: 3
Fore
SplineSet
15 -220 m 0
 15 -211 26 -186 34 -163 c 2
 34 -163 349 680 351 687 c 0
 356 702 362 705 380 705 c 0
 389 705 401 703 401 693 c 0
 401 684 392 662 387 649 c 2
 73 -202 l 2
 62 -233 56 -233 41 -233 c 0
 29 -233 15 -233 15 -220 c 0
EndSplineSet
EndChar

StartChar: backslash
Encoding: 92 92 107
Width: 416
VWidth: 488
Flags: W
DStem2: 65 687 29 649 0.346165 -0.938174<-22.5304 966.825>
LayerCount: 3
Fore
SplineSet
401 -220 m 0
 401 -233 387 -233 375 -233 c 0
 360 -233 354 -233 343 -202 c 2
 29 649 l 2
 24 662 15 684 15 693 c 0
 15 703 27 705 36 705 c 0
 54 705 60 702 65 687 c 0
 67 680 382 -163 382 -163 c 2
 390 -186 401 -211 401 -220 c 0
EndSplineSet
EndChar

StartChar: plus
Encoding: 43 43 108
Width: 527
VWidth: 488
Flags: W
HStem: -22 21G<256 271.5> 188 44<31.0031 241 286.086 495.999>
VStem: 241 45<-21.9956 187.996 232 441.995>
LayerCount: 3
Fore
SplineSet
31 212 m 0
 31 225 31 232 49 232 c 2
 219 232 l 2
 238 232 241 240 241 251 c 2
 241 427 l 2
 241 442 248 442 262 442 c 0
 276 442 286 442 286 422 c 2
 286 259 l 2
 286 245 287 232 303 232 c 2
 480 232 l 2
 496 232 496 225 496 211 c 0
 496 194 496 188 475 188 c 2
 303 188 l 2
 286 188 286 182 286 170 c 2
 286 -5 l 2
 286 -22 277 -22 266 -22 c 0
 246 -22 241 -22 241 -4 c 2
 241 170 l 2
 241 188 234 188 217 188 c 2
 48 188 l 2
 30 188 31 195 31 212 c 0
EndSplineSet
EndChar

StartChar: less
Encoding: 60 60 109
Width: 527
VWidth: 488
Flags: W
LayerCount: 3
Fore
SplineSet
41 211 m 0
 41 221 41 225 56 231 c 0
 463 379 462 381 468 381 c 0
 477 381 487 377 487 356 c 0
 487 347 479 342 471 340 c 2
 166 229 l 2
 147 222 124 213 124 208 c 0
 124 203 146 197 166 190 c 2
 476 78 l 2
 482 76 487 72 487 65 c 0
 487 57 481 41 463 41 c 0
 457 41 460 41 55 188 c 0
 41 193 41 197 41 211 c 0
EndSplineSet
EndChar

StartChar: equal
Encoding: 61 61 110
Width: 527
VWidth: 488
Flags: W
HStem: 110 45<31.0031 495.998> 266 44<31.0031 495.999>
LayerCount: 3
Fore
SplineSet
31 134 m 0
 31 147 31 155 49 155 c 2
 480 155 l 2
 496 155 496 148 496 134 c 0
 496 117 496 110 475 110 c 2
 48 110 l 2
 30 110 31 117 31 134 c 0
31 290 m 0
 31 303 31 310 49 310 c 2
 480 310 l 2
 496 310 496 303 496 289 c 0
 496 272 496 266 475 266 c 2
 48 266 l 2
 30 266 31 273 31 290 c 0
EndSplineSet
EndChar

StartChar: greater
Encoding: 62 62 111
Width: 527
VWidth: 488
Flags: W
LayerCount: 3
Fore
SplineSet
41 65 m 0
 41 72 45 76 51 78 c 2
 362 190 l 2
 382 197 404 203 404 208 c 0
 404 213 381 222 362 229 c 2
 56 340 l 2
 48 342 41 347 41 356 c 0
 41 377 50 381 59 381 c 0
 65 381 64 379 471 231 c 0
 486 225 487 221 487 211 c 0
 487 197 486 193 472 188 c 0
 67 41 70 41 64 41 c 0
 46 41 41 57 41 65 c 0
EndSplineSet
EndChar

StartChar: multiply
Encoding: 215 215 112
Width: 527
VWidth: 488
Flags: W
HStem: 173 76<237.625 289.453>
VStem: 226 74<185.547 236.234>
DStem2: 130 376 95 347 0.705945 -0.708267<-15.4149 185.018 237.802 439.726> 97 74 127 42 0.705945 0.708267<-14.7207 187.138 242.646 442.448>
LayerCount: 3
Fore
SplineSet
88 358 m 0
 88 365 107 384 116 384 c 0
 120 384 125 381 130 376 c 2
 246 261 l 2
 252 255 258 249 265 249 c 0
 268 249 272 250 276 254 c 2
 401 379 l 2
 405 383 410 385 413 385 c 0
 420 385 438 367 438 359 c 0
 438 355 435 350 429 344 c 2
 308 223 l 2
 303 218 300 213 300 210 c 0
 300 206 304 202 308 198 c 2
 432 74 l 2
 437 69 438 65 438 62 c 0
 438 54 419 35 412 35 c 0
 409 35 404 37 399 42 c 2
 276 166 l 2
 271 171 267 173 263 173 c 0
 258 173 254 169 247 162 c 2
 127 42 l 2
 122 37 118 35 115 35 c 0
 108 35 89 53 89 61 c 0
 89 65 92 69 97 74 c 2
 217 195 l 2
 223 201 226 206 226 210 c 0
 226 215 223 219 219 223 c 2
 95 347 l 2
 91 351 88 355 88 358 c 0
EndSplineSet
EndChar

StartChar: divide
Encoding: 247 247 113
Width: 527
VWidth: 488
Flags: W
HStem: 60 81<222.31 293.681> 188 44<31.0031 495.999> 280 81<217.572 288.681>
VStem: 217 82<65.3547 135.681 288.56 353.256>
LayerCount: 3
Fore
SplineSet
31 212 m 0
 31 225 31 232 49 232 c 2
 480 232 l 2
 496 232 496 225 496 211 c 0
 496 194 496 188 475 188 c 2
 48 188 l 2
 30 188 31 195 31 212 c 0
212 320 m 0
 212 342 232 361 254 361 c 0
 276 361 294 343 294 321 c 0
 294 299 275 280 253 280 c 0
 231 280 212 298 212 320 c 0
217 101 m 0
 217 123 236 141 258 141 c 0
 280 141 299 122 299 100 c 0
 299 78 281 60 259 60 c 0
 237 60 217 78 217 101 c 0
EndSplineSet
EndChar

StartChar: minus
Encoding: 8722 8722 114
Width: 527
VWidth: 488
Flags: W
HStem: 188 44<31.0031 495.999>
LayerCount: 3
Fore
SplineSet
31 212 m 0
 31 225 31 232 49 232 c 2
 480 232 l 2
 496 232 496 225 496 211 c 0
 496 194 496 188 475 188 c 2
 48 188 l 2
 30 188 31 195 31 212 c 0
EndSplineSet
EndChar

StartChar: f_f
Encoding: 65542 -1 145
Width: 542
VWidth: 0
Flags: HW
HStem: 0 27<26.008 83.0598 162.175 235.989 281.023 339.201 421.787 488.584> 340 26<30.5273 77.343> 353 27<158.545 326.508> 361 40<422.737 524> 361 34<169.249 345.734 412.127 510.401> 623 41<234.576 339.085> 630 52<482.741 593.474>
VStem: 95 63<33.0702 346.915 380.012 512.661> 345 68<34.6871 360.992 395.005 519.415>
AnchorPoint: "l;bl" 0 10 basechar 0
AnchorPoint: "l;x" 15 380 basechar 0
AnchorPoint: "l;o" 10 210 basechar 0
AnchorPoint: "r;bl" 512 10 basechar 0
AnchorPoint: "r;x" 542 380 basechar 0
AnchorPoint: "r;o" 527 210 basechar 0
LayerCount: 3
Fore
SplineSet
231 605 m 0x8d80
 193 581 158 503 158 399 c 0
 158 389 160 380 169 380 c 0xa580
 173 380 261 390 320 390 c 0
 335 390 348 391 348 395 c 0
 348 463 362 519 382 557 c 0
 385 563 390 572 390 574 c 0
 390 577 385 579 376 583 c 0
 369 586 360 590 352 595 c 0
 337 605 312 623 292 623 c 0
 269 623 249 616 231 605 c 0x8d80
559 682 m 0x8380
 581 682 625 674 625 648 c 0
 625 628 600 606 581 606 c 0
 553 606 534 630 517 630 c 0
 457 630 410 562 410 412 c 0
 410 402 413 395 422 395 c 0x8b80
 437 395 499 401 511 401 c 0
 518 401 524 398 524 389 c 2
 524 378 l 2
 524 364 521 361 511 361 c 2
 428 361 l 2x9180
 414 361 412 351 412 342 c 0
 412 332 413 254 413 211 c 2
 413 87 l 2
 413 27 425 35 464 33 c 0
 477 32 489 31 489 18 c 0
 489 6 483 1 472 1 c 0
 443 1 416 0 375 0 c 0
 344 0 325 -2 301 -2 c 0
 289 -2 281 3 281 13 c 0
 281 25 294 28 307 28 c 2
 317 28 l 2
 342 28 345 51 345 76 c 2
 346 336 l 2
 346 356 345 363 328 363 c 0
 297 363 212 359 170 353 c 0xa180
 152 351 155 348 155 337 c 0
 157 255 158 170 158 87 c 0
 158 27 159 34 204 30 c 0
 221 28 236 27 236 14 c 0
 236 2 224 0 213 0 c 0
 184 0 167 2 126 2 c 0
 97 2 71 0 47 0 c 0
 35 0 26 3 26 13 c 0
 26 25 37 26 47 27 c 0
 87 31 90 43 91 78 c 2
 96 329 l 2
 96 337 96 347 78 347 c 0
 64 347 49 340 39 340 c 0
 34 340 30 342 30 350 c 0
 30 359 42 364 48 366 c 0
 75 374 95 370 95 381 c 0
 95 530 161 663 338 663 c 0xc580
 360 663 384 660 408 646 c 0
 427 635 431 628 435 628 c 0
 438 628 439 632 451 640 c 0
 477 657 508 682 559 682 c 0x8380
EndSplineSet
Ligature2: "'liga' Standard Ligatures in Latin lookup 1 subtable" f f
LCarets2: 1 0 
EndChar

StartChar: f_i
Encoding: 65543 -1 146
Width: 522
VWidth: 0
Flags: HW
HStem: -1 27<18.0094 84.634 168.516 237.751> 342 28<39.0058 87.013> 581 80<104.109 177.211>
VStem: 97 63<30.8226 302.875> 99 82<586.355 656.15>
AnchorPoint: "l;o" 10 210 basechar 0
AnchorPoint: "l;x" 15 380 basechar 0
AnchorPoint: "l;bl" 0 10 basechar 0
AnchorPoint: "r;bl" 522 10 basechar 0
AnchorPoint: "r;x" 507 380 basechar 0
AnchorPoint: "r;o" 507 210 basechar 0
LayerCount: 3
Fore
SplineSet
257 364 m 2
 227 364 l 2
 197 364 163 362 163 344 c 2
 163 325 l 2
 163 253 168 177 168 105 c 2
 168 82 l 2
 168 40 178 33 201 32 c 2
 221 31 l 2
 238 30 253 27 253 14 c 0
 253 2 241 -1 230 -1 c 0
 201 -1 176 0 135 0 c 0
 97 0 63 -2 39 -2 c 0
 27 -2 23 3 23 13 c 0
 23 25 36 28 49 28 c 2
 59 28 l 2
 87 28 92 35 93 102 c 0
 94 177 94 253 94 328 c 0
 94 335 93 342 79 342 c 0
 63 342 46 333 36 333 c 0
 29 333 25 336 25 348 c 0
 25 357 40 363 46 365 c 0
 72 374 93 375 93 386 c 0
 93 503 113 586 181 639 c 0
 204 657 257 691 316 691 c 0
 348 691 406 686 406 649 c 0
 406 627 384 607 359 607 c 0
 315 607 298 645 270 645 c 0
 188 645 163 528 163 410 c 0
 163 400 166 392 175 392 c 0xac
 211 392 288 398 328 401 c 0
 353 403 378 407 389 420 c 0
 395 428 404 445 416 445 c 0xf0
 422 445 430 441 430 427 c 0
 430 418 429 242 429 84 c 0
 429 46 436 39 468 34 c 0
 487 31 501 28 501 17 c 0
 501 4 496 0 482 0 c 0
 458 0 421 1 398 1 c 0
 363 1 334 -2 314 -2 c 0
 303 -2 290 3 290 15 c 0
 290 27 298 29 310 30 c 0
 354 32 358 35 358 81 c 0
 358 149 356 263 356 334 c 0
 356 345 354 351 338 356 c 0
 318 362 284 364 257 364 c 2
EndSplineSet
Ligature2: "'liga' Standard Ligatures in Latin lookup 1 subtable" f i
LCarets2: 1 0 
EndChar

StartChar: f_l
Encoding: 65544 -1 147
Width: 515
VWidth: 0
Flags: HW
HStem: -5 34<22.0491 102.256> 0 36<183.98 257.744> 659 20G<173 179.5>
VStem: 111 78<36.8129 661>
AnchorPoint: "l;bl" 0 10 basechar 0
AnchorPoint: "l;x" 15 380 basechar 0
AnchorPoint: "l;o" 10 210 basechar 0
AnchorPoint: "r;bl" 515 10 basechar 0
AnchorPoint: "r;x" 505 380 basechar 0
AnchorPoint: "r;hi" 505 660 basechar 0
AnchorPoint: "r;o" 505 210 basechar 0
LayerCount: 3
Fore
SplineSet
300 679 m 0
 322 679 352 671 359 671 c 0
 374 671 383 686 401 686 c 0
 410 686 415 678 415 668 c 0
 415 643 414 620 414 599 c 2
 414 73 l 2
 414 48 425 41 448 38 c 0
 469 35 489 36 489 19 c 0
 489 7 479 1 468 1 c 0
 445 1 442 2 384 2 c 0
 359 2 309 0 299 0 c 0
 282 0 276 6 276 17 c 0
 276 33 292 33 304 34 c 0
 339 37 340 48 340 70 c 0
 340 163 341 184 343 391 c 2
 344 540 l 2
 344 569 343 600 335 617 c 0
 327 634 299 642 271 642 c 0
 243 642 197 630 176 561 c 0
 164 522 155 487 155 410 c 0
 155 400 158 396 167 396 c 0
 179 396 213 399 235 399 c 0
 241 399 245 398 249 398 c 0
 258 397 265 398 265 383 c 0
 265 368 256 366 244 366 c 0
 218 366 199 366 170 362 c 0
 158 361 155 354 155 346 c 0
 155 260 154 173 154 87 c 0
 154 28 157 32 199 31 c 0
 216 31 233 29 233 16 c 0
 233 4 222 -2 211 -2 c 0
 182 -2 158 1 117 1 c 0
 79 1 67 0 43 0 c 0
 31 0 25 6 25 16 c 0
 25 28 36 31 49 31 c 2
 59 31 l 2
 85 31 87 34 87 74 c 2
 88 337 l 2
 88 345 90 354 72 354 c 0
 63 354 53 351 44 349 c 0
 28 345 23 344 23 356 c 0
 23 362 40 372 57 377 c 0
 74 382 93 383 93 387 c 0
 93 494 117 555 153 607 c 0
 180 647 232 679 300 679 c 0
EndSplineSet
Ligature2: "'liga' Standard Ligatures in Latin lookup 1 subtable" f l
LCarets2: 1 0 
EndChar

StartChar: f_f_i
Encoding: 65545 -1 148
Width: 772
VWidth: 0
Flags: HW
HStem: 386.5 19.7998<303.94 307> 420.6 73.7002<139.347 225.774> 496.5 22<281.7 318>
VStem: 224.5 40.7002<561.73 617.478> 228.9 73.6992<297.925 385.896> 237.7 39.5996<276.536 348.576> 325.7 31.8994<430.577 474.424>
AnchorPoint: "r;o" 757 210 basechar 0
AnchorPoint: "r;x" 757 380 basechar 0
AnchorPoint: "r;bl" 772 10 basechar 0
AnchorPoint: "l;o" 10 210 basechar 0
AnchorPoint: "l;x" 15 380 basechar 0
AnchorPoint: "l;bl" 0 10 basechar 0
LayerCount: 3
Fore
SplineSet
78 343 m 0
 64 343 47 333 37 333 c 0
 32 333 28 335 28 343 c 0
 28 351 40 355 46 357 c 0
 60 363 73 366 83 369 c 0
 97 373 98 378 98 388 c 0
 98 483 134 572 203 620 c 0
 235 642 283 662 330 662 c 0
 355 662 374 658 396 645 c 0
 416 633 423 614 427 614 c 0
 430 614 440 628 451 637 c 0
 477 657 515 682 574 682 c 0
 606 682 661 674 661 644 c 0
 661 628 643 606 618 606 c 0
 585 606 559 641 531 641 c 0
 458 641 417 539 417 410 c 0
 417 400 419 387 428 387 c 0xac
 464 387 541 392 581 395 c 0
 606 397 627 397 644 420 c 0
 650 428 660 445 669 445 c 0xf0
 675 445 681 441 681 427 c 0
 680 381 679 324 679 256 c 2
 679 184 l 2
 679 147 680 106 681 64 c 0
 682 30 693 31 713 30 c 2
 731 29 l 2
 743 28 748 22 748 15 c 0
 748 2 737 -1 730 -1 c 0
 706 -1 674 0 651 0 c 0
 616 0 597 -1 577 -1 c 0
 566 -1 543 3 543 15 c 0
 543 27 551 30 563 30 c 0
 607 31 611 34 611 80 c 2
 611 274 l 2
 611 296 611 316 608 334 c 0
 604 357 593 361 575 361 c 2
 546 361 l 2
 517 361 480 360 453 359 c 0
 419 358 413 357 413 325 c 0
 413 245 414 161 414 81 c 0
 414 39 424 30 447 29 c 2
 467 28 l 2
 484 27 496 28 496 15 c 0
 496 3 485 1 474 1 c 0
 445 1 428 2 387 2 c 2
 297 2 l 2
 285 2 281 7 281 17 c 0
 281 29 294 32 307 32 c 0
 345 32 346 37 346 101 c 0
 346 176 348 253 348 328 c 0
 348 335 347 357 330 357 c 0
 295 357 214 356 172 352 c 0xa180
 159 351 159 337 159 329 c 2
 159 287 l 2
 159 221 158 153 158 86 c 0
 158 26 167 29 209 27 c 0
 226 26 241 26 241 13 c 0
 241 1 229 -1 218 -1 c 0
 189 -1 167 0 126 0 c 0
 97 0 71 -2 47 -2 c 0
 35 -2 27 -1 27 9 c 0
 27 18 37 22 47 23 c 0
 87 27 91 28 91 69 c 2
 94 329 l 2
 94 339 88 343 78 343 c 0
161 399 m 0
 161 389 162 380 172 380 c 2xa580
 172 380 263 386 312 386 c 0
 330 386 348 387 348 395 c 0
 348 463 362 519 382 557 c 0
 385 563 390 572 390 574 c 0
 390 577 385 579 376 583 c 0
 351 594 326 626 292 626 c 0
 212 625 161 529 161 399 c 0
EndSplineSet
Ligature2: "'liga' Standard Ligatures in Latin lookup 1 subtable" f f i
LCarets2: 2 0 0 
EndChar

StartChar: f_f_l
Encoding: 65546 -1 149
Width: 781
VWidth: 0
Flags: HW
HStem: 0 31<27.8329 91.0894 161.421 228.928 308 351.483 -nan 494.694 535.123 600.673> 3 35<675.599 756.885> 338 24<23.3644 74.1548> 354 29<156.089 330.731> 363 29<167.349 350.991 413.195 502.409> 367 32<425.654 521.992> 625 40<235.787 334.968> 644 42<476.606 607.828>
VStem: 94 62<31.4042 346.984 383.004 510.555> 351 62<119.293 362.98 397.182 548.254> 352 70<31.6262 321.788> 596 73<357.394 636.558> 605 69<38.6118 303.832>
AnchorPoint: "r;o" 771 210 basechar 0
AnchorPoint: "r;hi" 771 660 basechar 0
AnchorPoint: "r;x" 771 380 basechar 0
AnchorPoint: "r;bl" 781 10 basechar 0
AnchorPoint: "l;bl" 0 10 basechar 0
AnchorPoint: "l;x" 15 380 basechar 0
AnchorPoint: "l;o" 10 210 basechar 0
LayerCount: 3
Fore
SplineSet
223 607 m 0x0ac0
 185 583 156 503 156 399 c 0x06c0
 156 389 158 383 167 383 c 0x10c0
 173 383 272 392 341 392 c 0
 348 392 351 393 351 404 c 0
 352 468 358 521 377 557 c 0
 380 563 385 572 385 574 c 0
 385 577 380 579 371 583 c 0
 350 592 335 608 312 619 c 0
 303 623 294 625 284 625 c 0
 253 625 235 614 223 607 c 0x0ac0
332 363 m 0x88c0
 306 363 211 358 169 354 c 0x10c0
 151 352 154 348 154 337 c 0
 156 255 158 170 158 87 c 0
 158 38 163 30 192 30 c 2
 205 30 l 2
 223 30 229 24 229 14 c 0
 229 4 223 0 212 0 c 0
 183 0 166 1 125 1 c 0
 96 1 69 -2 45 -2 c 0
 33 -2 27 1 27 11 c 0
 27 20 34 23 44 24 c 2
 72 28 l 2
 80 29 93 44 93 54 c 2
 92 329 l 2
 92 337 92 347 75 347 c 0
 57 347 37 338 31 338 c 0
 27 338 22 338 22 346 c 0
 22 355 39 360 45 362 c 0
 72 370 94 369 94 377 c 0
 94 502 137 590 215 634 c 0
 244 651 276 665 329 665 c 0xa2c0
 360 665 381 658 403 646 c 0
 412 641 421 629 425 629 c 0
 428 629 433 634 440 640 c 0
 469 666 510 686 564 686 c 0
 591 686 617 679 624 679 c 0
 639 679 647 690 660 690 c 0
 669 690 672 683 672 673 c 0
 672 648 669 577 669 556 c 2x01d0
 674 74 l 2
 674 49 678 39 700 38 c 2
 734 36 l 2
 746 35 757 30 757 19 c 0
 757 7 747 3 736 3 c 2x4188
 646 2 l 2
 621 2 571 0 561 0 c 0
 544 0 535 6 535 17 c 0
 535 33 554 30 566 31 c 0
 574 31 581 31 586 33 c 0
 602 39 605 54 605 71 c 0x8088
 605 198 599 439 596 591 c 0
 596 604 595 615 592 623 c 0
 587 636 558 644 530 644 c 0
 499 644 453 630 432 561 c 0
 420 522 413 487 413 410 c 0
 413 400 416 397 425 397 c 0
 439 397 449 399 505 399 c 0x85d0
 514 399 522 396 522 383 c 0x10d0
 522 370 511 367 501 367 c 0
 475 366 457 367 428 364 c 0
 416 363 413 354 413 346 c 0x04d0
 415 260 418 173 422 87 c 0
 425 34 428 31 458 31 c 2
 480 31 l 2
 490 31 495 29 495 19 c 0
 495 5 483 2 472 2 c 0
 443 2 420 1 379 1 c 0
 341 1 326 0 302 0 c 0
 290 0 284 6 284 16 c 0
 284 28 295 29 308 30 c 2
 324 31 l 2
 350 33 352 33 352 61 c 2x84a0
 351 347 l 2
 351 358 350 363 332 363 c 0x88c0
EndSplineSet
Ligature2: "'liga' Standard Ligatures in Latin lookup 1 subtable" f f l
LCarets2: 2 0 0 
EndChar

StartChar: exclamdown
Encoding: 161 161 150
Width: 258
VWidth: 0
Flags: HW
HStem: 555 94<71.394 150.606> -13 20G<88 122.5>
VStem: 64 94<562.394 641.606 22.625 257.659> 94 36<258.103 488.909>
AnchorPoint: "l;bl" 0 10 basechar 0
AnchorPoint: "l;x" 0 380 basechar 0
AnchorPoint: "l;hi" 0 660 basechar 0
AnchorPoint: "l;o" 0 210 basechar 0
AnchorPoint: "l;lo" 0 -200 basechar 0
AnchorPoint: "r;bl" 258 10 basechar 0
AnchorPoint: "r;x" 258 380 basechar 0
AnchorPoint: "r;hi" 258 660 basechar 0
AnchorPoint: "r;o" 258 210 basechar 0
AnchorPoint: "r;lo" 258 -200 basechar 0
LayerCount: 3
Fore
SplineSet
152 73 m 2xd0
 152 27 146 -13 99 -13 c 0
 77 -13 60 2 60 22 c 0
 60 35 68 70 69 82 c 0
 84 207 89 273 94 459 c 0
 94 475 95 489 110 489 c 0
 126 489 129 476 130 459 c 0
 139 316 152 172 152 90 c 2
 152 73 l 2xd0
158 602 m 0xe0
 158 576 137 555 111 555 c 0
 85 555 64 576 64 602 c 0
 64 628 85 649 111 649 c 0
 137 649 158 628 158 602 c 0xe0
EndSplineSet
EndChar

StartChar: questiondown
Encoding: 191 191 151
Width: 383
VWidth: 250
Flags: HW
HStem: 508 94<156.394 235.606> 292 57<141.512 235.109> -13 38<160.357 257.5>
VStem: 237 43<314.5 434.418> 149 94<515.394 594.606> 40 58<114.985 252.506>
AnchorPoint: "l;bl" 0 10 basechar 0
AnchorPoint: "l;x" 0 380 basechar 0
AnchorPoint: "l;hi" 0 660 basechar 0
AnchorPoint: "l;o" 0 210 basechar 0
AnchorPoint: "l;lo" 0 -200 basechar 0
AnchorPoint: "r;bl" 383 10 basechar 0
AnchorPoint: "r;x" 383 380 basechar 0
AnchorPoint: "r;hi" 383 660 basechar 0
AnchorPoint: "r;o" 383 210 basechar 0
AnchorPoint: "r;lo" 383 -200 basechar 0
LayerCount: 3
Fore
SplineSet
303 34 m 0xf4
 303 4 274 -13 241 -13 c 0
 115 -13 40 104 40 223 c 0
 40 315 117 349 223 349 c 0
 233 349 237 368 237 378 c 0
 237 412 226 437 220 452 c 0
 216 461 217 469 228 469 c 0
 232 469 236 468 239 465 c 0
 272 430 280 363 280 331 c 0
 280 298 253 296 215 292 c 0
 116 281 98 239 98 179 c 0
 98 99 150 25 192 25 c 0
 228 25 244 68 270 68 c 0
 287 68 303 54 303 34 c 0xf4
243 555 m 0xec
 243 529 222 508 196 508 c 0
 170 508 149 529 149 555 c 0
 149 581 170 602 196 602 c 0
 222 602 243 581 243 555 c 0xec
EndSplineSet
EndChar

StartChar: afii00208
Encoding: 8213 8213 152
Width: 770
VWidth: 250
Flags: HW
HStem: 189 50<5.04044 764.918>
AnchorPoint: "l;bl" 20 10 basechar 0
AnchorPoint: "l;x" 20 380 basechar 0
AnchorPoint: "l;o" 0 210 basechar 0
AnchorPoint: "r;bl" 750 10 basechar 0
AnchorPoint: "r;x" 750 380 basechar 0
AnchorPoint: "r;o" 770 210 basechar 0
LayerCount: 3
Fore
SplineSet
19 239 m 2
 751 239 l 2
 763 239 765 227 765 213 c 0
 765 199 763 189 751 189 c 2
 19 189 l 2
 6 189 5 200 5 215 c 0
 5 229 7 239 19 239 c 2
EndSplineSet
EndChar

StartChar: quotesinglbase
Encoding: 8218 8218 153
Width: 221
VWidth: 0
Flags: HW
AnchorPoint: "l;bl" 0 10 basechar 0
AnchorPoint: "l;o" 0 210 basechar 0
AnchorPoint: "l;lo" 0 -200 basechar 0
AnchorPoint: "r;bl" 221 10 basechar 0
AnchorPoint: "r;o" 221 210 basechar 0
AnchorPoint: "r;lo" 221 -200 basechar 0
LayerCount: 3
Fore
SplineSet
111 77 m 0
 148 77 171 49 171 9 c 0
 171 -40 111 -93 95 -93 c 0
 90 -93 84 -90 84 -82 c 0
 84 -71 97 -59 105 -46 c 0
 108 -40 111 -34 111 -28 c 0
 111 -13 99 -5 88 3 c 0
 75 12 70 26 70 39 c 0
 70 59 84 77 111 77 c 0
EndSplineSet
EndChar

StartChar: quotereversed
Encoding: 8219 8219 154
Width: 221
VWidth: 0
Flags: HW
AnchorPoint: "l;x" 0 380 basechar 0
AnchorPoint: "l;hi" 0 660 basechar 0
AnchorPoint: "l;o" 0 210 basechar 0
AnchorPoint: "r;x" 221 380 basechar 0
AnchorPoint: "r;hi" 221 660 basechar 0
AnchorPoint: "r;o" 221 210 basechar 0
LayerCount: 3
Fore
SplineSet
100 677 m 0
 127 677 141 659 141 639 c 0
 141 626 136 612 123 603 c 0
 112 595 100 587 100 572 c 0
 100 566 103 560 106 554 c 0
 114 541 127 529 127 518 c 0
 127 510 121 507 116 507 c 0
 100 507 40 560 40 609 c 0
 40 649 63 677 100 677 c 0
EndSplineSet
EndChar

StartChar: quotedblbase
Encoding: 8222 8222 155
Width: 371
VWidth: 0
Flags: HW
AnchorPoint: "r;lo" 371 -200 basechar 0
AnchorPoint: "r;o" 371 210 basechar 0
AnchorPoint: "r;bl" 371 10 basechar 0
AnchorPoint: "l;lo" 0 -200 basechar 0
AnchorPoint: "l;o" 0 210 basechar 0
AnchorPoint: "l;bl" 0 10 basechar 0
LayerCount: 3
Fore
SplineSet
261 77 m 0
 298 77 321 49 321 9 c 0
 321 -40 261 -93 245 -93 c 0
 240 -93 234 -90 234 -82 c 0
 234 -71 247 -59 255 -46 c 0
 258 -40 261 -34 261 -28 c 0
 261 -13 249 -5 238 3 c 0
 225 12 220 26 220 39 c 0
 220 59 234 77 261 77 c 0
111 77 m 0
 148 77 171 49 171 9 c 0
 171 -40 111 -93 95 -93 c 0
 90 -93 84 -90 84 -82 c 0
 84 -71 97 -59 105 -46 c 0
 108 -40 111 -34 111 -28 c 0
 111 -13 99 -5 88 3 c 0
 75 12 70 26 70 39 c 0
 70 59 84 77 111 77 c 0
EndSplineSet
EndChar

StartChar: uni201F
Encoding: 8223 8223 156
Width: 371
VWidth: 0
Flags: HW
AnchorPoint: "l;o" 0 210 basechar 0
AnchorPoint: "l;hi" 0 660 basechar 0
AnchorPoint: "l;x" 0 380 basechar 0
AnchorPoint: "r;o" 371 210 basechar 0
AnchorPoint: "r;hi" 371 660 basechar 0
AnchorPoint: "r;x" 371 380 basechar 0
LayerCount: 3
Fore
SplineSet
250 677 m 0
 277 677 291 659 291 639 c 0
 291 626 286 612 273 603 c 0
 262 595 250 587 250 572 c 0
 250 566 253 560 256 554 c 0
 264 541 277 529 277 518 c 0
 277 510 271 507 266 507 c 0
 250 507 190 560 190 609 c 0
 190 649 213 677 250 677 c 0
100 677 m 0
 127 677 141 659 141 639 c 0
 141 626 136 612 123 603 c 0
 112 595 100 587 100 572 c 0
 100 566 103 560 106 554 c 0
 114 541 127 529 127 518 c 0
 127 510 121 507 116 507 c 0
 100 507 40 560 40 609 c 0
 40 649 63 677 100 677 c 0
EndSplineSet
EndChar
